<?xml version="1.0" encoding="utf-8"?>
<!-- Generator: Adobe Illustrator 25.0.0, SVG Export Plug-In . SVG Version: 6.00 Build 0)  -->
<svg version="1.1" id="Capa_1" xmlns="http://www.w3.org/2000/svg" xmlns:xlink="http://www.w3.org/1999/xlink" x="0px" y="0px"
	 viewBox="0 0 277.16 167.09" style="enable-background:new 0 0 277.16 167.09;" xml:space="preserve">
<style type="text/css">
	.st0{fill:#FFFFFF;}
	.st1{fill:#ECF3EA;}
</style>
<g>
	<g>
		<path class="st0" d="M265.85,23.62c-1.82-6.84-5.51-13.63-11.99-17.46c-1.48,19.12-5.57,40.56-21.95,52.6
			c-14.25,10.47-27.51,13.11-43.55,17.01c-16.04,3.9-31.53,9.56-40.94,22.01c-15.18-22.14-57.84-27.09-89.88-41.11
			c-6.28-2.75-13.48-6.93-18.69-11.13C24.04,33.58,14.78,18.64,16.88,0c-8.7,8.84-6.6,40.92,23.87,68.02
			c10.83,9.63,26.6,15.69,33.96,18.26c10.42,3.63,19.6,9.3,29.23,14.24c14.62,7.5,29.75,16.13,37.11,29.86
			c4.46-8.58,14.01-13.94,23.51-17.86c26.88-11.08,58.18-14.98,80.27-32.78C261.91,65.97,271.21,43.8,265.85,23.62z"/>
	</g>
	<g>
		<path class="st1" d="M273.54,37.49c-4.85-14.94-8.6-24.17-19.68-31.32c6.03,6.74,10.85,11.89,12.15,18.09
			c4.23,20.11-2.64,38.79-18.87,52.83c-6.6,5.7-14.66,9.79-22.8,13.49c-11.97,5.44-22.71,9.39-36.75,13.68
			c-8.98,2.75-17.99,5.85-26.54,9.58c-8.55,3.73-16.13,8.66-20.01,16.53c-8.65-15.96-20.73-21.03-33.91-28.21
			c-12.57-6.84-24.38-13.5-37.89-18.62c-6.53-2.47-13.51-5.16-19.35-8.78c-5.86-3.64-10.37-7.56-15.58-12.98
			c-8.22-8.54-13.71-17.7-17.64-28.48C12.74,22.53,12.9,10.76,16.88,0C2.82,17.49-4.41,40.8,2.88,62.64
			c7.2,21.59,24.44,38.77,46.25,47.46c1.58-2.32,3.09-5.29,4.67-7.61c5.28,11.42,19.42,25.4,27.11,27.53
			c-0.24-6.81,1.47-13.53,7.25-17.92c0.18,4.95,0.71,9.55,3.14,14.5c2.64,5.38,5.38,7.53,10.5,10.45
			c5.12,2.92,10.14,5.17,15.23,8.11c9.16,5.29,15.46,12.83,20.18,21.94c0.89-1.58,8.73-9.15,10.5-10.46
			c8.92-6.54,17.3-10.18,27.49-12.91s11.02-3.65,20.4-8.19c9.38-4.54,13.85-8.14,19.68-18.6c3.04,1.97,5.17,5.07,5.79,8.42
			c11.95-7.67,19.62-15.79,27.8-26.83c2.71,4.06,3.96,5.83,5.17,10.25c11.2-9.8,22.24-22.14,22.87-36.19
			C277.59,57.42,277.06,48.32,273.54,37.49z"/>
	</g>
</g>
</svg>
