<?xml version="1.0" encoding="utf-8"?>
<!-- Generator: Adobe Illustrator 25.0.0, SVG Export Plug-In . SVG Version: 6.00 Build 0)  -->
<svg version="1.1" id="Capa_1" xmlns="http://www.w3.org/2000/svg" xmlns:xlink="http://www.w3.org/1999/xlink" x="0px" y="0px"
	 viewBox="0 0 243.21 195.17" style="enable-background:new 0 0 243.21 195.17;" xml:space="preserve">
<style type="text/css">
	.st0{fill:#C22328;}
	.st1{fill:#AA2C2E;}
	.st2{fill:#A9282B;}
	.st3{fill:#FFFFFF;}
	.st4{fill:#EEF5EC;}
</style>
<g>
	<g>
		<g>
			<path class="st0" d="M190.46,162.05c4.49-1.88,10.63-2.63,15.48-2.64c1.25-7.61,3.77-13.87,7.53-20.76
				c7.63-13.97,22.95-27.49,27.75-42.47c2.97-9.26,2.47-17.14-2.65-25.58c-9.2-15.16-33.23-20.48-48.9-29.5
				c-10.45-6.02-16.4-11.42-26.43-18c-12.45-8.17-25.04-16.47-39.63-20.81c-8.51-2.53-18.84-2.96-27.64-1.45
				c-7.63,1.31-15.16,4.89-21.45,9.02C56.22,21.87,41.59,37.65,31.3,55.92c17.69-6.64,39.46-6.04,58.19-2.44
				c33.56,6.46,49.3,14.75,81.2,29.13c6.38,2.88,17.73,6.48,20.41,9.2c2.37,2.41,6.22,8.55,7.15,11.67
				c2.04,6.84,1.54,7.72,1.09,14.59c-0.21,3.19-3.1,14.07-6.3,13.61c-3.69-0.52-4.33-1.17-6.83-2.26
				C185.38,140.61,188.48,149.85,190.46,162.05"/>
		</g>
		<g>
			<path class="st1" d="M112.44,0.12c3.09,0.62,6.24,0.91,9.31,1.67c8.72,2.17,16.79,5.98,24.24,10.46
				c8.85,5.32,17.12,10.08,25.65,16.67c8.17,5.38,16.22,11.04,24.97,15.6c4.59,2.57,9.29,4.24,14.14,6.38
				c1.61,0.58,2.27,1.06,4.97,2.25c-3.38-0.46-7.15-0.76-10.26-1.9c-6.99-2.56-13.89-5.32-20.61-8.43
				c-12.11-5.61-23.82-11.86-35.31-18.46c-7.97-4.57-15.77-9.39-23.89-13.73c-8.41-4.49-17.47-5.4-26.88-2.75
				c-6.12,1.72-11.39,4.77-16.36,8.37c-9.91,7.16-17.16,16.24-22.89,26.37c-1.5,2.66-2.95,5.41-3.76,8.36
				c-8.02,0.55-15.87,1.88-23.49,4.26c0.01-0.11,0.02-0.21,0.01-0.32c0.14-0.71,0.45-1.34,0.91-1.93
				c6.35-7.98,12.44-16.12,19.4-23.68c0.55-0.59,1.06-1.21,1.91-1.47c2.12-2.15,4.23-4.3,6.35-6.45c0.47-0.71,0.97-1.39,1.86-1.73
				c0.55-0.49,1.11-0.99,1.66-1.48c1.24-2,3.32-3.25,5.14-4.72c2.87-2.31,5.97-4.36,9.29-6.13c0.5-0.27,0.99-0.59,1.62-0.48
				c0.52-0.25,1.04-0.5,1.56-0.75c0.3-0.63,0.79-0.93,1.56-0.72c0.4-0.2,0.81-0.4,1.21-0.59c0.62-0.93,1.68-1.02,2.71-1.16
				c0.51-0.15,1.02-0.31,1.53-0.46c0.91-1.09,2.12-1.46,3.58-1.24c0.77-0.17,1.54-0.34,2.3-0.51c0.6-0.85,1.56-0.55,2.4-0.62
				c2.61-0.27,5.22-0.53,7.83-0.8c1.55-0.18,3.09-0.21,4.63,0.01C110.62,0.07,111.53,0.09,112.44,0.12z"/>
			<path class="st2" d="M227.96,76.95c1.99,1.76,3,3.63,3.71,5.45c2.56,6.62,1.29,13-1.97,19.21c-3.67,6.99-8.86,13.06-13.76,19.31
				c-4.48,5.73-9.15,11.37-11.87,18.06c-1.61,3.95-2.69,8.01-2.79,12.25c-0.01,0.45,0.17,0.94-0.5,1.66
				c-0.25-1.84-0.58-3.41-0.65-4.99c-0.42-9.86,2.7-18.92,7.77-27.5c4.12-6.97,8.41-13.87,12.51-20.85
				C224.5,92.61,227.4,85.31,227.96,76.95z"/>
			<g>
				<path class="st2" d="M185.76,38.24c-4.97-3.21-12.13-8.29-16.95-11.68c-5.84-4.1-15.45-9.78-21.52-13.59
					c-10.6-6.65-14.82-8.81-27.4-11.84c-7.91-1.9-18.13-1.57-26.07,0.23c-5.75,1.3-11.14,3.06-16.12,5.99
					C57.61,19.2,41.09,36.29,30.88,55.99c6.79-1.22,7.99-1.51,14.77-2.73c0.8-0.14,10.69-1.76,10.09-2.26
					c-0.34-0.28,0.43-1.78,0.85-2.58C65.51,31.24,76.58,16.8,94.9,9.27c4-1.64,13.42-2.64,17.78-2.22
					c5.52,0.54,15.39,4.67,20.05,7.42c26.92,15.91,59.75,36.46,82.99,38.68C206,48.15,195.28,44.38,185.76,38.24z"/>
			</g>
		</g>
	</g>
	<g>
		<ellipse class="st3" cx="202.54" cy="171.34" rx="24.26" ry="23.69"/>
		<ellipse class="st4" cx="204.16" cy="167.72" rx="20.02" ry="19.55"/>
	</g>
	<g>
		<path class="st4" d="M190.45,90.68c-4.89-3.78-12.07-5.57-17.97-7.85c-21-8.13-39.07-18.03-59.56-24.13
			c-23.61-7.04-52.82-10.88-73.66-5.32c-7.64,2.04-14.33,4.13-19.92,7.6C13.01,64.9,8.76,70.15,5.38,76.41
			C0.45,85.54-0.9,97.07,0.21,107.2c19.38-7.06,40.19-8.18,61.05-7.31c18.5,0.77,37.25,2.66,55.11,7.11
			c15.52,3.87,26.61,6.14,42.61,11.49c4.1,1.37,11.63,4.35,15.63,5.92c7,2.76,13.02,5.68,19.02,8.51c2.68-3.52,4.09-7.29,5.1-11.52
			C201.13,111.36,199.88,97.97,190.45,90.68z"/>
	</g>
</g>
</svg>
