<?xml version="1.0" encoding="utf-8"?>
<!-- Generator: Adobe Illustrator 25.0.0, SVG Export Plug-In . SVG Version: 6.00 Build 0)  -->
<svg version="1.1" id="Capa_1" xmlns="http://www.w3.org/2000/svg" xmlns:xlink="http://www.w3.org/1999/xlink" x="0px" y="0px"
	 viewBox="0 0 175.61 50.87" style="enable-background:new 0 0 175.61 50.87;" xml:space="preserve">
<style type="text/css">
	.st0{fill:#FFFFFF;}
</style>
<g>
	<g>
		<path class="st0" d="M30.81,22.74c-0.03-1.02-0.18-1.93-0.48-2.74c-0.42-1.13-1.07-2.11-1.95-2.92c-0.88-0.81-1.96-1.51-3.24-2.08
			c-1.28-0.57-2.73-1.11-4.33-1.61c-1.13-0.36-2.13-0.68-2.99-0.96c-0.86-0.28-1.57-0.58-2.14-0.89c-0.57-0.31-0.99-0.65-1.28-1.02
			c-0.28-0.37-0.4-0.82-0.34-1.36c0.09-0.86,0.51-1.5,1.28-1.93c0.76-0.43,1.82-0.63,3.16-0.6c1.02,0.02,2.03,0.19,3.03,0.49
			c1,0.3,1.91,0.64,2.75,1.04c0.83,0.39,1.52,0.77,2.07,1.13c0.55,0.36,0.88,0.61,1,0.73c1.31-2.09,2.62-4.19,3.91-6.32
			c-0.7-0.45-1.49-0.9-2.38-1.34C28,1.9,27.06,1.5,26.06,1.16c-1-0.34-2.06-0.62-3.18-0.84C21.75,0.11,20.59,0,19.39,0
			c-1.68,0-3.3,0.23-4.85,0.67c-1.55,0.44-2.95,1.09-4.18,1.94C9.11,3.46,8.09,4.5,7.27,5.73C7.23,5.8,7.19,5.87,7.14,5.94
			C6.41,7.11,5.95,8.45,5.77,9.98c-0.13,1.15-0.07,2.17,0.2,3.06c0.07,0.24,0.17,0.48,0.27,0.71c0.28,0.61,0.67,1.18,1.18,1.7
			c0.7,0.72,1.61,1.38,2.71,1.98c1.11,0.6,2.44,1.18,3.98,1.74c1.17,0.42,2.24,0.8,3.22,1.14c0.98,0.34,1.83,0.7,2.55,1.08
			c0.72,0.38,1.27,0.78,1.66,1.21c0.01,0.01,0.01,0.02,0.02,0.03c0.37,0.43,0.54,0.94,0.49,1.54c-0.14,1.63-1.64,2.33-4.49,2.07
			c-0.26-0.02-0.52-0.06-0.78-0.1c-1.07-0.15-2.12-0.41-3.14-0.77c-1.28-0.45-2.41-0.93-3.41-1.45c-1-0.51-1.84-1-2.51-1.48
			c-0.67-0.48-1.08-0.79-1.23-0.95c-0.45,0.63-0.91,1.27-1.36,1.89c-0.78,1.08-1.57,2.15-2.35,3.21c-0.17,0.23-0.35,0.47-0.52,0.7
			c0.13,0.1,0.27,0.2,0.4,0.3c0.58,0.42,1.19,0.83,1.85,1.21c0.29,0.17,0.59,0.34,0.9,0.5c1.16,0.61,2.37,1.17,3.61,1.67
			c1.25,0.5,2.53,0.92,3.84,1.25c0.9,0.23,1.79,0.42,2.67,0.56c0.41,0.07,0.82,0.13,1.23,0.17c0.92,0.1,1.83,0.15,2.74,0.14
			c0.75-0.01,1.49-0.05,2.23-0.13c1.63-0.19,3.09-0.62,4.37-1.31c1.28-0.68,2.35-1.65,3.19-2.9c0.44-0.65,0.78-1.4,1.03-2.23
			c0.23-0.76,0.38-1.59,0.44-2.49C30.82,23.58,30.82,23.16,30.81,22.74z"/>
	</g>
	<g>
		<path class="st0" d="M37.14,0.29c-0.52,7.58-1.04,15.16-1.57,22.74c-0.09,1.28-0.18,2.56-0.26,3.84
			c-0.17,2.49-0.34,4.99-0.52,7.48c2.71,0.23,5.42,0.44,8.13,0.63c0.15-2.54,0.29-5.08,0.44-7.62c0.08-1.3,0.15-2.61,0.23-3.91
			c0.45-7.72,0.89-15.44,1.34-23.16C42.34,0.29,39.74,0.29,37.14,0.29z"/>
	</g>
	<g>
		<path class="st0" d="M75.88,8.1c-0.53-1.46-1.28-2.78-2.23-3.93c-0.95-1.16-2.09-2.09-3.42-2.8c-1.33-0.71-2.8-1.06-4.42-1.07
			c-4.8,0-9.61,0-14.41-0.01c-0.38,7.82-0.76,15.63-1.15,23.45c-0.06,1.32-0.13,2.64-0.19,3.96c-0.13,2.57-0.25,5.15-0.38,7.72
			c2.71,0.16,5.43,0.31,8.15,0.44c0.1-2.61,0.2-5.21,0.3-7.82c0.05-1.22,0.09-2.44,0.14-3.66c2.35,0.08,4.71,0.15,7.06,0.21
			c0.98,0.02,1.91-0.07,2.8-0.29c0.62-0.15,1.21-0.35,1.78-0.62c1.39-0.66,2.57-1.55,3.56-2.69c0.98-1.14,1.75-2.44,2.31-3.89
			c0.56-1.46,0.85-2.98,0.87-4.58C76.67,11.04,76.41,9.56,75.88,8.1z M67.52,16.15c-0.7,0.83-1.53,1.24-2.46,1.22
			c-2.17-0.04-4.34-0.09-6.51-0.14c0.12-3.24,0.25-6.48,0.37-9.72c2.05,0.02,4.1,0.04,6.14,0.06c0.45,0,0.89,0.1,1.33,0.29
			c0.44,0.19,0.83,0.49,1.18,0.89c0.34,0.41,0.61,0.92,0.8,1.53c0.2,0.61,0.28,1.34,0.26,2.18C68.59,14.08,68.22,15.31,67.52,16.15z
			"/>
	</g>
	<g>
		<path class="st0" d="M102.57,24.44c-0.07,0-0.14,0-0.21,0c-0.31,0.87-0.71,1.62-1.2,2.23c-0.52,0.64-1.1,1.15-1.75,1.56
			c-0.2,0.12-0.41,0.23-0.61,0.34c-0.46,0.23-0.93,0.42-1.42,0.55c-0.71,0.2-1.39,0.3-2.05,0.3c-1.22,0.01-2.33-0.26-3.35-0.8
			c-0.05-0.03-0.1-0.05-0.15-0.07c-1.06-0.59-1.95-1.4-2.69-2.43c-0.35-0.49-0.67-1.02-0.94-1.58c-0.3-0.61-0.56-1.25-0.77-1.94
			c-0.41-1.33-0.6-2.71-0.6-4.14c0-1.33,0.18-2.64,0.52-3.93c0.34-1.3,0.85-2.45,1.52-3.48c0.68-1.02,1.52-1.85,2.55-2.5
			c1.02-0.65,2.24-0.97,3.65-0.98c0.61,0,1.26,0.07,1.95,0.22c0.69,0.15,1.35,0.42,2,0.81c0.65,0.39,1.24,0.89,1.8,1.52
			c0.56,0.62,1.02,1.41,1.39,2.36c2-1.51,3.99-3.01,5.97-4.51c-0.7-1.42-1.61-2.67-2.72-3.77c-0.71-0.7-1.5-1.33-2.38-1.9
			c-1.21-0.78-2.54-1.35-3.97-1.71c-1.23-0.31-2.53-0.47-3.92-0.47c-1.4,0-2.71,0.16-3.94,0.48c-1.03,0.26-2.01,0.63-2.93,1.11
			c-1.34,0.7-2.54,1.55-3.61,2.53c-0.55,0.5-1.06,1.03-1.54,1.61c-1.41,1.7-2.51,3.63-3.27,5.79c-0.76,2.16-1.17,4.32-1.19,6.5
			c-0.03,2.15,0.3,4.28,0.99,6.39c0.05,0.15,0.1,0.31,0.15,0.46c0.45,1.29,1.02,2.5,1.69,3.64c0.5,0.85,1.06,1.65,1.68,2.41
			c0.07,0.08,0.14,0.16,0.21,0.24c1.41,1.67,3.09,3.02,5.03,4.05c2.04,1.07,4.29,1.6,6.74,1.58c1.4-0.01,2.81-0.22,4.25-0.62
			c1.44-0.4,2.8-0.97,4.08-1.71c0.2-0.12,0.4-0.25,0.6-0.38c1.03-0.66,1.97-1.44,2.79-2.35c0.94-1.03,1.65-2.19,2.14-3.45
			c0.02-0.05,0.05-0.1,0.07-0.15C106.92,26.97,104.74,25.71,102.57,24.44z"/>
	</g>
	<g>
		<path class="st0" d="M141.97,11.05c-0.92-2.05-2.14-3.88-3.67-5.51c-0.52-0.55-1.08-1.07-1.66-1.55
			c-1.12-0.93-2.34-1.73-3.68-2.39c-0.92-0.46-1.89-0.8-2.89-1.05c-1.2-0.3-2.45-0.46-3.76-0.46c-1.31,0-2.55,0.16-3.74,0.46
			c-0.94,0.24-1.84,0.57-2.7,1.01c-1.36,0.69-2.58,1.55-3.67,2.57c-0.47,0.44-0.92,0.91-1.34,1.41c-1.4,1.67-2.48,3.61-3.23,5.81
			c-0.76,2.2-1.1,4.48-1.04,6.84c0.06,2.08,0.43,4.09,1.13,6.05c0.08,0.23,0.17,0.47,0.26,0.7c0.47,1.17,1.03,2.27,1.69,3.29
			c0.56,0.87,1.19,1.68,1.88,2.43c1.53,1.64,3.33,2.93,5.43,3.86c2.09,0.94,4.4,1.32,6.92,1.17c2.45-0.15,4.68-0.79,6.69-1.92
			c2.01-1.12,3.71-2.54,5.08-4.23c0.68-0.83,1.27-1.72,1.78-2.66c0.53-0.97,0.96-1.99,1.31-3.07c0.09-0.29,0.18-0.59,0.26-0.88
			c0.49-1.84,0.67-3.72,0.53-5.64C143.42,15.18,142.88,13.11,141.97,11.05z M135.18,21.35c-0.15,0.73-0.38,1.41-0.66,2.06
			c-0.21,0.48-0.44,0.94-0.71,1.38c-0.65,1.03-1.47,1.89-2.49,2.56c-0.09,0.06-0.18,0.11-0.26,0.16c-0.96,0.57-2.09,0.9-3.38,0.96
			c-1.3,0.06-2.47-0.15-3.51-0.63c-0.07-0.03-0.14-0.06-0.2-0.09c-1.09-0.55-2.01-1.31-2.76-2.28c-0.35-0.46-0.66-0.95-0.94-1.47
			c-0.32-0.59-0.59-1.23-0.82-1.9c-0.42-1.27-0.66-2.6-0.71-3.97c-0.05-1.34,0.08-2.65,0.38-3.94c0.3-1.29,0.78-2.44,1.43-3.46
			c0.65-1.01,1.47-1.82,2.47-2.45c0.99-0.63,2.18-0.95,3.55-0.96c1.31-0.02,2.49,0.26,3.55,0.81c1.06,0.56,1.96,1.31,2.73,2.25
			c0.76,0.95,1.37,2.04,1.81,3.28c0.45,1.24,0.71,2.52,0.79,3.85C135.54,18.81,135.44,20.09,135.18,21.35z"/>
	</g>
	<g>
		<path class="st0" d="M172.3,6.84c-0.32-0.54-0.68-1.06-1.07-1.55c-0.48-0.61-1.02-1.19-1.62-1.72c-0.02-0.02-0.05-0.04-0.07-0.06
			c-0.16-0.14-0.32-0.26-0.48-0.39c-0.64-0.51-1.32-0.97-2.06-1.37c-0.37-0.2-0.75-0.39-1.14-0.56c-0.7-0.3-1.43-0.53-2.18-0.69
			c-0.76-0.16-1.55-0.23-2.37-0.23c-4.8,0-9.6,0.01-14.41,0.01c0.01,0.08,0.01,0.17,0.02,0.25c0.09,1.12,0.18,2.24,0.26,3.35
			c0.49,6.25,0.98,12.51,1.48,18.76c0.1,1.27,0.2,2.54,0.3,3.81c0.19,2.42,0.38,4.85,0.57,7.27c1.04-0.1,2.08-0.2,3.13-0.3
			c1.32-0.13,2.64-0.27,3.96-0.41c0.34-0.04,0.69-0.07,1.03-0.11c-0.32-3.51-0.63-7.02-0.95-10.52c2.35-0.17,4.69-0.36,7.03-0.55
			c1.66-0.14,3.14-0.56,4.44-1.26c0.29-0.16,0.57-0.33,0.84-0.51c0.67-0.44,1.27-0.93,1.79-1.48c0.2-0.21,0.4-0.43,0.58-0.65
			c0.43-0.54,0.8-1.1,1.11-1.69c0.3-0.57,0.55-1.17,0.74-1.79c0.39-1.27,0.5-2.56,0.34-3.91C173.43,9.28,173,8.05,172.3,6.84z
			 M164.92,14.19c-0.6,0.78-1.37,1.2-2.31,1.26c-2.16,0.13-4.33,0.25-6.49,0.36c-0.27-2.97-0.54-5.95-0.81-8.92
			c2.05-0.05,4.09-0.1,6.14-0.15c0.44-0.01,0.9,0.06,1.37,0.21c0.47,0.15,0.89,0.4,1.28,0.75c0.39,0.35,0.72,0.78,0.98,1.31
			c0.26,0.52,0.43,1.15,0.51,1.89C165.74,12.32,165.52,13.41,164.92,14.19z"/>
	</g>
	<g>
		<path class="st0" d="M0,42.22c0.22-1.87,0.45-3.74,0.67-5.61c0.91,0.15,1.83,0.29,2.74,0.44c0.29,0.05,0.55,0.14,0.79,0.29
			c0.23,0.15,0.43,0.33,0.58,0.54c0.15,0.21,0.27,0.44,0.34,0.69c0.07,0.25,0.1,0.49,0.07,0.73C5.17,39.53,5.1,39.75,5,39.95
			c-0.11,0.2-0.25,0.37-0.41,0.51c-0.17,0.14-0.36,0.25-0.57,0.32c0.37,0.78,0.74,1.57,1.11,2.36c-0.52-0.09-1.04-0.18-1.57-0.28
			c-0.32-0.68-0.64-1.36-0.96-2.04c-0.32-0.06-0.64-0.11-0.96-0.17c-0.07,0.61-0.14,1.21-0.21,1.82C0.94,42.39,0.47,42.3,0,42.22z
			 M1.76,39.51c0.43,0.07,0.87,0.15,1.3,0.22c0.11,0.02,0.21,0,0.31-0.05c0.1-0.05,0.18-0.13,0.25-0.24
			c0.07-0.11,0.11-0.24,0.13-0.39c0.02-0.16,0-0.3-0.05-0.43c-0.05-0.13-0.13-0.23-0.22-0.31c-0.09-0.08-0.19-0.13-0.29-0.15
			c-0.42-0.07-0.83-0.14-1.25-0.2C1.88,38.49,1.82,39,1.76,39.51z"/>
		<path class="st0" d="M10.24,42.8c-0.04,0.4-0.08,0.79-0.12,1.19c-1.44-0.24-2.88-0.48-4.32-0.73c0.21-1.92,0.42-3.83,0.63-5.75
			c1.4,0.21,2.81,0.42,4.21,0.62c-0.04,0.4-0.08,0.79-0.12,1.19c-0.94-0.14-1.87-0.28-2.81-0.42c-0.04,0.37-0.08,0.75-0.12,1.12
			c0.8,0.13,1.61,0.25,2.41,0.37c-0.04,0.36-0.08,0.73-0.11,1.09c-0.81-0.13-1.61-0.25-2.42-0.38c-0.04,0.41-0.09,0.82-0.13,1.23
			C8.3,42.49,9.27,42.65,10.24,42.8z"/>
		<path class="st0" d="M12.74,40.98c-0.11,1.13-0.22,2.25-0.34,3.38c-0.47-0.08-0.95-0.15-1.42-0.23c0.2-1.96,0.4-3.91,0.6-5.87
			c0.37,0.05,0.75,0.11,1.12,0.16c0.83,1.29,1.66,2.59,2.5,3.89c0.11-1.17,0.22-2.34,0.34-3.5c0.47,0.06,0.94,0.13,1.4,0.19
			c-0.19,1.99-0.37,3.99-0.56,5.98c-0.38-0.06-0.77-0.12-1.15-0.18C14.39,43.52,13.56,42.25,12.74,40.98z"/>
		<path class="st0" d="M22.67,40.97c-0.62-0.08-1.24-0.16-1.87-0.24c-0.14,1.61-0.28,3.22-0.42,4.83c-0.47-0.07-0.95-0.14-1.42-0.21
			c0.14-1.6,0.29-3.2,0.43-4.81c-0.62-0.08-1.25-0.16-1.87-0.25c0.04-0.41,0.08-0.81,0.11-1.22c1.71,0.22,3.43,0.44,5.15,0.65
			C22.74,40.15,22.71,40.56,22.67,40.97z"/>
		<path class="st0" d="M24.44,39.94c0.51,0.06,1.01,0.12,1.52,0.18c0.54,2.13,1.09,4.27,1.64,6.43c-0.49-0.06-0.97-0.12-1.46-0.19
			c-0.1-0.48-0.21-0.96-0.31-1.43c-0.68-0.09-1.36-0.17-2.03-0.26c-0.18,0.44-0.36,0.88-0.54,1.31c-0.49-0.07-0.97-0.13-1.46-0.2
			C22.69,43.84,23.57,41.89,24.44,39.94z M25.62,43.91c-0.18-0.82-0.35-1.64-0.53-2.46c-0.3,0.76-0.61,1.52-0.92,2.28
			C24.66,43.79,25.14,43.85,25.62,43.91z"/>
		<path class="st0" d="M28.15,47.8c0.12-0.39,0.25-0.77,0.37-1.16c-0.15-0.02-0.29-0.04-0.44-0.05c0.04-0.47,0.07-0.94,0.11-1.41
			c0.39,0.05,0.78,0.1,1.17,0.14c-0.04,0.47-0.07,0.94-0.11,1.41c-0.17,0.38-0.33,0.76-0.5,1.15C28.56,47.85,28.36,47.82,28.15,47.8
			z"/>
		<path class="st0" d="M33.39,40.92c0.37,1.57,0.75,3.15,1.13,4.74c0.58-1.48,1.16-2.96,1.74-4.45c0.5,0.05,1,0.09,1.5,0.14
			c-0.88,2.04-1.76,4.07-2.65,6.09c-0.47-0.05-0.94-0.1-1.4-0.16c-0.61-2.18-1.21-4.35-1.81-6.51
			C32.39,40.81,32.89,40.86,33.39,40.92z"/>
		<path class="st0" d="M42.35,46.88c-0.02,0.43-0.05,0.87-0.07,1.3c-1.45-0.14-2.9-0.29-4.35-0.44c0.13-2.12,0.27-4.23,0.4-6.35
			c1.41,0.13,2.83,0.25,4.24,0.37c-0.03,0.43-0.05,0.87-0.08,1.3c-0.94-0.08-1.88-0.17-2.83-0.25c-0.03,0.41-0.05,0.82-0.08,1.24
			c0.81,0.08,1.62,0.15,2.43,0.22c-0.02,0.4-0.05,0.8-0.07,1.2c-0.81-0.07-1.62-0.15-2.43-0.23c-0.03,0.45-0.06,0.9-0.08,1.35
			C40.41,46.69,41.38,46.79,42.35,46.88z"/>
		<path class="st0" d="M44.78,44.71c-0.07,1.23-0.13,2.46-0.2,3.69c-0.48-0.04-0.95-0.09-1.43-0.13c0.12-2.14,0.24-4.28,0.36-6.42
			c0.38,0.03,0.75,0.06,1.13,0.09c0.88,1.34,1.76,2.68,2.65,4.03c0.07-1.27,0.13-2.54,0.2-3.8c0.47,0.04,0.94,0.07,1.41,0.1
			c-0.11,2.16-0.21,4.32-0.32,6.48c-0.39-0.03-0.77-0.06-1.16-0.1C46.54,47.33,45.66,46.01,44.78,44.71z"/>
		<path class="st0" d="M54.72,43.98c-0.63-0.04-1.25-0.08-1.87-0.12c-0.08,1.73-0.15,3.47-0.23,5.2c-0.48-0.04-0.95-0.07-1.43-0.11
			c0.08-1.73,0.16-3.46,0.24-5.19c-0.63-0.04-1.26-0.09-1.88-0.13c0.02-0.44,0.04-0.88,0.06-1.32c1.72,0.12,3.45,0.24,5.17,0.34
			C54.76,43.1,54.74,43.54,54.72,43.98z"/>
		<path class="st0" d="M56.45,42.76c0.51,0.03,1.02,0.06,1.53,0.09c0.63,2.23,1.26,4.46,1.9,6.7c-0.49-0.03-0.98-0.06-1.47-0.09
			c-0.12-0.5-0.24-1-0.37-1.5c-0.68-0.04-1.36-0.09-2.04-0.13c-0.16,0.48-0.32,0.96-0.48,1.44c-0.49-0.03-0.98-0.07-1.47-0.1
			C54.85,47.04,55.65,44.9,56.45,42.76z M57.78,46.9c-0.21-0.86-0.42-1.72-0.62-2.58c-0.27,0.83-0.55,1.66-0.83,2.49
			C56.82,46.85,57.3,46.88,57.78,46.9z"/>
		<path class="st0" d="M60.47,50.84c0.11-0.42,0.22-0.84,0.32-1.26c-0.15-0.01-0.29-0.02-0.44-0.03c0.02-0.5,0.03-1,0.05-1.49
			c0.39,0.02,0.79,0.04,1.18,0.07c-0.02,0.5-0.03,1-0.05,1.5c-0.15,0.42-0.3,0.83-0.45,1.25C60.88,50.86,60.67,50.85,60.47,50.84z"
			/>
		<path class="st0" d="M68.48,45.28c-0.02-0.02-0.08-0.07-0.18-0.14c-0.11-0.08-0.23-0.15-0.39-0.23c-0.15-0.08-0.32-0.15-0.5-0.21
			c-0.18-0.06-0.37-0.09-0.55-0.1c-0.24-0.01-0.43,0.03-0.57,0.12c-0.14,0.09-0.21,0.22-0.21,0.4c0,0.14,0.04,0.26,0.14,0.35
			c0.1,0.09,0.24,0.18,0.43,0.25c0.19,0.07,0.42,0.16,0.7,0.25c0.39,0.13,0.73,0.29,1.02,0.45c0.29,0.17,0.5,0.38,0.65,0.63
			c0.15,0.25,0.22,0.58,0.21,0.99c-0.01,0.37-0.08,0.68-0.21,0.94c-0.13,0.26-0.31,0.46-0.54,0.61c-0.23,0.15-0.48,0.25-0.76,0.31
			c-0.28,0.06-0.57,0.08-0.86,0.07c-0.3-0.01-0.61-0.06-0.93-0.15c-0.32-0.08-0.62-0.19-0.91-0.33c-0.29-0.14-0.55-0.29-0.79-0.47
			c0.22-0.44,0.44-0.87,0.66-1.31c0.03,0.04,0.1,0.1,0.23,0.19c0.13,0.09,0.28,0.18,0.47,0.28c0.19,0.1,0.4,0.19,0.63,0.27
			c0.23,0.08,0.46,0.13,0.7,0.14c0.26,0.01,0.46-0.02,0.58-0.11c0.13-0.08,0.19-0.2,0.2-0.35c0-0.16-0.06-0.29-0.19-0.39
			c-0.13-0.1-0.3-0.2-0.53-0.28c-0.22-0.09-0.48-0.18-0.76-0.28c-0.37-0.15-0.68-0.3-0.93-0.46c-0.24-0.16-0.42-0.36-0.53-0.59
			c-0.11-0.23-0.16-0.5-0.15-0.83c0.01-0.47,0.13-0.86,0.34-1.17c0.21-0.31,0.5-0.54,0.85-0.69c0.35-0.15,0.73-0.22,1.14-0.2
			c0.3,0.01,0.57,0.06,0.84,0.14c0.26,0.09,0.51,0.19,0.75,0.31c0.23,0.12,0.44,0.24,0.61,0.37C68.91,44.46,68.7,44.87,68.48,45.28z
			"/>
		<path class="st0" d="M74.41,48.84c-0.01,0.45-0.02,0.9-0.02,1.35c-1.46-0.04-2.91-0.09-4.37-0.15c0.05-2.22,0.1-4.43,0.15-6.65
			c1.42,0.05,2.83,0.09,4.25,0.13c-0.01,0.45-0.02,0.9-0.02,1.35c-0.94-0.03-1.89-0.05-2.83-0.08c-0.01,0.43-0.02,0.86-0.03,1.29
			c0.81,0.03,1.63,0.05,2.44,0.07c-0.01,0.42-0.01,0.83-0.02,1.25c-0.81-0.02-1.63-0.05-2.44-0.08c-0.01,0.47-0.02,0.94-0.03,1.42
			C72.46,48.78,73.43,48.81,74.41,48.84z"/>
		<path class="st0" d="M75.26,50.22c0.04-2.23,0.07-4.45,0.11-6.68c0.92,0.02,1.85,0.04,2.77,0.06c0.3,0.01,0.57,0.08,0.81,0.21
			c0.25,0.14,0.46,0.31,0.63,0.53c0.17,0.22,0.31,0.46,0.41,0.73c0.1,0.27,0.15,0.55,0.14,0.83c0,0.27-0.05,0.53-0.13,0.78
			c-0.09,0.25-0.21,0.47-0.36,0.66c-0.15,0.19-0.33,0.35-0.54,0.47c0.44,0.84,0.89,1.67,1.34,2.51c-0.53-0.01-1.06-0.02-1.58-0.03
			c-0.39-0.73-0.78-1.45-1.16-2.18c-0.32-0.01-0.65-0.01-0.97-0.02c-0.01,0.72-0.02,1.44-0.03,2.15
			C76.22,50.24,75.74,50.23,75.26,50.22z M76.74,46.75c0.44,0.01,0.88,0.02,1.32,0.03c0.11,0,0.21-0.03,0.3-0.11
			c0.09-0.07,0.17-0.18,0.23-0.32c0.06-0.14,0.09-0.29,0.09-0.47c0-0.19-0.03-0.35-0.09-0.49c-0.07-0.14-0.15-0.24-0.25-0.32
			c-0.1-0.08-0.2-0.12-0.31-0.12c-0.42-0.01-0.84-0.02-1.26-0.03C76.76,45.54,76.75,46.14,76.74,46.75z"/>
		<path class="st0" d="M81.85,43.66c0.47,1.63,0.94,3.27,1.42,4.9c0.49-1.62,0.98-3.25,1.46-4.87c0.5,0,1,0.01,1.5,0.01
			c-0.75,2.23-1.51,4.46-2.28,6.68c-0.47,0-0.94-0.01-1.41-0.02c-0.74-2.24-1.48-4.48-2.21-6.72
			C80.84,43.65,81.35,43.66,81.85,43.66z"/>
		<path class="st0" d="M86.79,50.4c0.01-2.23,0.01-4.47,0.02-6.7c0.47,0,0.95,0,1.42,0c0,2.23,0,4.47,0,6.7
			C87.75,50.4,87.27,50.4,86.79,50.4z"/>
		<path class="st0" d="M89.06,46.99c0-0.4,0.07-0.8,0.2-1.19c0.14-0.39,0.34-0.75,0.61-1.08c0.27-0.32,0.59-0.58,0.98-0.78
			c0.38-0.19,0.81-0.29,1.29-0.29c0.58,0,1.08,0.13,1.51,0.39c0.43,0.27,0.75,0.61,0.97,1.05c-0.37,0.28-0.73,0.57-1.1,0.85
			c-0.09-0.24-0.21-0.42-0.36-0.56c-0.15-0.13-0.32-0.23-0.51-0.28c-0.18-0.05-0.36-0.08-0.54-0.08c-0.27,0-0.5,0.06-0.7,0.18
			c-0.2,0.12-0.37,0.27-0.5,0.47c-0.13,0.2-0.23,0.41-0.3,0.65c-0.07,0.24-0.1,0.48-0.1,0.71c0,0.27,0.04,0.53,0.12,0.77
			c0.08,0.25,0.19,0.46,0.33,0.65c0.14,0.19,0.32,0.34,0.52,0.45c0.2,0.11,0.43,0.16,0.68,0.16c0.17,0,0.35-0.03,0.53-0.09
			c0.18-0.06,0.35-0.16,0.5-0.3c0.15-0.14,0.27-0.32,0.35-0.55c0.39,0.25,0.79,0.49,1.18,0.74c-0.13,0.33-0.33,0.61-0.61,0.85
			c-0.28,0.24-0.59,0.42-0.94,0.54c-0.35,0.13-0.7,0.19-1.05,0.19c-0.45,0-0.86-0.09-1.24-0.29c-0.37-0.2-0.7-0.46-0.97-0.79
			c-0.27-0.33-0.49-0.7-0.63-1.11C89.13,47.84,89.06,47.42,89.06,46.99z"/>
		<path class="st0" d="M95.44,50.36c-0.02-2.23-0.04-4.46-0.05-6.69c0.47-0.01,0.95-0.01,1.42-0.02c0.02,2.23,0.04,4.46,0.07,6.69
			C96.4,50.34,95.92,50.35,95.44,50.36z"/>
		<path class="st0" d="M100.78,50.3c-0.46,0.01-0.87-0.07-1.25-0.26c-0.38-0.18-0.71-0.43-0.98-0.75c-0.28-0.32-0.49-0.68-0.64-1.08
			c-0.15-0.4-0.23-0.82-0.23-1.25c0-0.45,0.07-0.87,0.22-1.28c0.15-0.4,0.36-0.77,0.63-1.09c0.27-0.32,0.59-0.58,0.97-0.77
			c0.37-0.19,0.78-0.29,1.23-0.3c0.46-0.01,0.87,0.08,1.25,0.26c0.38,0.18,0.7,0.43,0.98,0.75c0.28,0.32,0.49,0.68,0.64,1.08
			c0.15,0.4,0.23,0.81,0.24,1.23c0.01,0.44-0.06,0.87-0.2,1.27c-0.14,0.41-0.35,0.77-0.63,1.09c-0.27,0.32-0.6,0.58-0.97,0.78
			C101.65,50.19,101.24,50.29,100.78,50.3z M99.12,46.95c0,0.26,0.04,0.51,0.12,0.75c0.08,0.24,0.18,0.45,0.32,0.64
			c0.14,0.19,0.31,0.33,0.51,0.44c0.2,0.11,0.44,0.16,0.71,0.15c0.27-0.01,0.5-0.07,0.7-0.19c0.2-0.12,0.37-0.28,0.5-0.48
			c0.13-0.2,0.23-0.42,0.29-0.66c0.06-0.24,0.09-0.49,0.09-0.74c0-0.26-0.04-0.5-0.12-0.74c-0.08-0.24-0.18-0.45-0.32-0.64
			c-0.14-0.19-0.31-0.33-0.52-0.43c-0.2-0.1-0.43-0.15-0.69-0.14c-0.27,0.01-0.51,0.07-0.71,0.19c-0.2,0.12-0.37,0.27-0.5,0.47
			c-0.13,0.2-0.23,0.41-0.3,0.65C99.15,46.44,99.12,46.69,99.12,46.95z"/>
		<path class="st0" d="M107.24,43.39c0.46,0.97,0.93,1.93,1.4,2.89c0.43-1,0.86-1.99,1.28-2.99c0.52-0.02,1.04-0.04,1.55-0.06
			c-0.69,1.49-1.39,2.97-2.08,4.46c0.02,0.75,0.04,1.51,0.06,2.26c-0.48,0.02-0.95,0.04-1.43,0.06c-0.02-0.76-0.04-1.52-0.05-2.29
			c-0.76-1.43-1.51-2.86-2.26-4.29C106.21,43.43,106.72,43.41,107.24,43.39z"/>
		<path class="st0" d="M113.49,46.39c-0.01-0.4,0.04-0.79,0.17-1.19c0.12-0.39,0.32-0.76,0.58-1.09c0.26-0.33,0.58-0.6,0.95-0.81
			c0.37-0.21,0.8-0.32,1.28-0.35c0.58-0.03,1.08,0.08,1.52,0.32c0.43,0.24,0.77,0.57,1,0.98c-0.36,0.3-0.72,0.59-1.07,0.89
			c-0.1-0.23-0.22-0.41-0.38-0.53c-0.16-0.12-0.33-0.21-0.51-0.25c-0.18-0.04-0.36-0.06-0.54-0.05c-0.27,0.01-0.5,0.08-0.7,0.21
			c-0.2,0.13-0.36,0.29-0.49,0.49c-0.13,0.2-0.22,0.42-0.28,0.66c-0.06,0.24-0.08,0.47-0.08,0.7c0.01,0.27,0.06,0.52,0.14,0.76
			c0.09,0.24,0.2,0.45,0.35,0.62c0.15,0.18,0.33,0.32,0.53,0.41c0.2,0.1,0.43,0.14,0.68,0.13c0.17-0.01,0.35-0.05,0.53-0.12
			c0.18-0.07,0.34-0.18,0.49-0.32c0.15-0.14,0.26-0.33,0.33-0.56c0.4,0.22,0.8,0.45,1.2,0.67c-0.12,0.33-0.31,0.62-0.58,0.86
			c-0.27,0.25-0.58,0.44-0.93,0.58c-0.35,0.14-0.69,0.22-1.04,0.24c-0.45,0.03-0.86-0.05-1.24-0.22c-0.38-0.17-0.71-0.42-0.99-0.73
			c-0.28-0.31-0.51-0.67-0.67-1.07C113.58,47.22,113.5,46.81,113.49,46.39z"/>
		<path class="st0" d="M122.58,49.26c-0.45,0.03-0.87-0.03-1.26-0.2c-0.38-0.16-0.72-0.39-1-0.69c-0.29-0.3-0.51-0.64-0.67-1.03
			c-0.16-0.39-0.25-0.8-0.26-1.22c-0.02-0.44,0.04-0.86,0.18-1.26c0.14-0.4,0.34-0.77,0.6-1.1c0.26-0.33,0.58-0.59,0.95-0.79
			c0.37-0.2,0.78-0.31,1.22-0.34c0.46-0.03,0.87,0.04,1.26,0.2c0.38,0.16,0.71,0.39,1,0.69c0.28,0.3,0.51,0.64,0.67,1.03
			c0.16,0.38,0.25,0.78,0.27,1.19c0.02,0.43-0.04,0.85-0.17,1.25c-0.13,0.4-0.33,0.77-0.6,1.1c-0.26,0.33-0.58,0.6-0.95,0.81
			C123.45,49.11,123.04,49.23,122.58,49.26z M120.84,46.05c0.01,0.25,0.06,0.5,0.14,0.73c0.08,0.23,0.19,0.44,0.34,0.61
			c0.14,0.18,0.32,0.31,0.52,0.41c0.2,0.1,0.44,0.14,0.72,0.12c0.27-0.02,0.5-0.09,0.7-0.22c0.2-0.13,0.36-0.29,0.49-0.5
			c0.13-0.2,0.22-0.42,0.27-0.66c0.06-0.24,0.08-0.48,0.07-0.72c-0.01-0.25-0.06-0.49-0.14-0.72c-0.08-0.23-0.2-0.43-0.34-0.61
			c-0.14-0.18-0.32-0.31-0.53-0.4c-0.21-0.09-0.44-0.13-0.69-0.11c-0.27,0.02-0.51,0.09-0.7,0.21c-0.2,0.12-0.36,0.28-0.49,0.48
			c-0.13,0.2-0.22,0.42-0.28,0.65C120.85,45.55,120.83,45.8,120.84,46.05z"/>
		<path class="st0" d="M127.76,45.09c0.06,1.24,0.12,2.48,0.18,3.72c-0.48,0.04-0.95,0.08-1.43,0.11c-0.1-2.17-0.2-4.34-0.3-6.5
			c0.38-0.03,0.75-0.05,1.13-0.08c1.01,1.21,2.03,2.41,3.05,3.59c-0.07-1.27-0.13-2.54-0.2-3.8c0.47-0.04,0.94-0.07,1.41-0.11
			c0.12,2.15,0.23,4.3,0.35,6.44c-0.39,0.03-0.77,0.07-1.16,0.1C129.77,47.42,128.77,46.26,127.76,45.09z"/>
		<path class="st0" d="M136.58,43.49c-0.02-0.02-0.08-0.05-0.19-0.11c-0.11-0.06-0.25-0.12-0.4-0.18c-0.16-0.06-0.33-0.1-0.52-0.14
			c-0.19-0.04-0.37-0.04-0.56-0.03c-0.24,0.02-0.43,0.08-0.56,0.18c-0.13,0.1-0.19,0.24-0.18,0.41c0.01,0.14,0.06,0.25,0.17,0.32
			c0.11,0.08,0.26,0.14,0.45,0.19c0.19,0.05,0.43,0.09,0.72,0.15c0.4,0.08,0.75,0.18,1.05,0.3c0.3,0.12,0.53,0.3,0.7,0.52
			c0.17,0.22,0.26,0.53,0.29,0.92c0.02,0.35-0.02,0.66-0.13,0.92c-0.11,0.26-0.27,0.48-0.49,0.66c-0.21,0.17-0.46,0.31-0.73,0.4
			c-0.27,0.1-0.56,0.16-0.85,0.19c-0.3,0.03-0.61,0.03-0.93-0.01c-0.32-0.04-0.63-0.1-0.93-0.2c-0.3-0.09-0.57-0.21-0.82-0.34
			c0.18-0.45,0.36-0.91,0.55-1.36c0.03,0.03,0.11,0.08,0.25,0.15c0.13,0.07,0.29,0.14,0.49,0.21c0.19,0.07,0.41,0.13,0.64,0.18
			c0.24,0.05,0.47,0.06,0.7,0.04c0.26-0.02,0.45-0.09,0.57-0.18c0.12-0.1,0.17-0.22,0.17-0.36c-0.01-0.15-0.08-0.27-0.22-0.35
			c-0.14-0.08-0.32-0.15-0.54-0.2c-0.23-0.05-0.49-0.11-0.78-0.17c-0.38-0.09-0.7-0.2-0.96-0.32c-0.25-0.13-0.45-0.29-0.58-0.5
			c-0.13-0.21-0.2-0.47-0.22-0.78c-0.03-0.46,0.06-0.85,0.25-1.17c0.19-0.33,0.45-0.58,0.79-0.77c0.34-0.19,0.71-0.3,1.12-0.33
			c0.29-0.02,0.58-0.01,0.85,0.04c0.27,0.05,0.53,0.12,0.77,0.2c0.24,0.09,0.46,0.18,0.63,0.28
			C136.94,42.65,136.76,43.07,136.58,43.49z"/>
		<path class="st0" d="M141.16,47.6c-0.49,0.05-0.92,0.01-1.28-0.12c-0.36-0.13-0.66-0.34-0.89-0.61c-0.24-0.28-0.42-0.6-0.54-0.97
			c-0.12-0.37-0.2-0.76-0.23-1.17c-0.07-1.08-0.13-2.16-0.2-3.25c0.47-0.04,0.95-0.09,1.42-0.13c0.07,1.08,0.14,2.16,0.21,3.24
			c0.02,0.24,0.05,0.47,0.11,0.69c0.06,0.22,0.15,0.4,0.26,0.56c0.11,0.16,0.26,0.28,0.43,0.37c0.18,0.09,0.39,0.12,0.63,0.09
			c0.24-0.03,0.45-0.1,0.61-0.22c0.16-0.12,0.29-0.27,0.38-0.46c0.09-0.19,0.15-0.39,0.19-0.62c0.03-0.22,0.04-0.45,0.03-0.68
			c-0.07-1.07-0.14-2.14-0.22-3.22c0.47-0.05,0.94-0.09,1.41-0.14c0.07,1.07,0.15,2.14,0.22,3.21c0.03,0.44,0,0.85-0.08,1.23
			c-0.08,0.39-0.22,0.74-0.42,1.05c-0.2,0.31-0.47,0.57-0.8,0.77C142.05,47.42,141.64,47.55,141.16,47.6z"/>
		<path class="st0" d="M149.88,46.52c-0.1-1.23-0.19-2.46-0.29-3.69c-0.38,0.95-0.75,1.9-1.13,2.85c-0.26,0.03-0.52,0.06-0.77,0.09
			c-0.51-0.85-1.02-1.7-1.53-2.55c0.09,1.24,0.18,2.48,0.27,3.73c-0.48,0.06-0.95,0.11-1.43,0.17c-0.15-2.09-0.3-4.18-0.44-6.26
			c0.51-0.05,1.03-0.11,1.54-0.16c0.61,1.03,1.22,2.06,1.83,3.08c0.45-1.14,0.9-2.28,1.35-3.42c0.51-0.06,1.02-0.11,1.54-0.17
			c0.16,2.05,0.33,4.11,0.49,6.16C150.83,46.4,150.36,46.46,149.88,46.52z"/>
		<path class="st0" d="M152.49,46.18c-0.17-2.05-0.33-4.09-0.5-6.14c0.47-0.05,0.94-0.11,1.42-0.17c0.17,2.04,0.34,4.08,0.51,6.11
			C153.44,46.06,152.97,46.12,152.49,46.18z"/>
		<path class="st0" d="M160.05,43.55c0.03,0.35-0.03,0.65-0.2,0.9c-0.16,0.25-0.4,0.46-0.71,0.62c-0.31,0.16-0.66,0.27-1.04,0.33
			c-1,0.14-2,0.29-3,0.42c-0.17-2.03-0.35-4.06-0.52-6.09c1.13-0.14,2.27-0.28,3.4-0.42c0.29-0.04,0.54,0.01,0.77,0.13
			c0.22,0.12,0.4,0.29,0.54,0.52c0.13,0.22,0.21,0.46,0.24,0.71c0.03,0.28-0.02,0.55-0.15,0.84c-0.12,0.28-0.33,0.51-0.61,0.67
			c0.36,0.05,0.66,0.2,0.89,0.43C159.88,42.84,160.01,43.15,160.05,43.55z M156.1,40.76c0.04,0.42,0.07,0.84,0.11,1.26
			c0.46-0.06,0.92-0.12,1.38-0.18c0.11-0.01,0.21-0.05,0.3-0.11c0.09-0.06,0.16-0.14,0.2-0.23c0.05-0.1,0.06-0.22,0.05-0.36
			c-0.01-0.14-0.05-0.25-0.11-0.34c-0.06-0.08-0.13-0.14-0.21-0.18c-0.08-0.04-0.18-0.05-0.29-0.04
			C157.05,40.64,156.58,40.7,156.1,40.76z M158.58,43.49c-0.01-0.12-0.05-0.23-0.11-0.33c-0.06-0.09-0.14-0.17-0.23-0.21
			c-0.09-0.05-0.19-0.06-0.32-0.05c-0.54,0.07-1.09,0.15-1.63,0.22c0.04,0.44,0.08,0.88,0.12,1.32c0.52-0.07,1.05-0.15,1.57-0.22
			c0.13-0.02,0.24-0.06,0.33-0.13c0.09-0.07,0.16-0.16,0.21-0.26C158.58,43.73,158.59,43.61,158.58,43.49z"/>
		<path class="st0" d="M161.04,44.97c-0.19-1.99-0.37-3.99-0.56-5.98c0.47-0.06,0.94-0.12,1.41-0.19c0.15,1.58,0.3,3.16,0.45,4.74
			c0.99-0.15,1.99-0.3,2.98-0.46c0.04,0.4,0.08,0.8,0.12,1.19C163.98,44.52,162.51,44.75,161.04,44.97z"/>
		<path class="st0" d="M170.31,42.28c0.04,0.39,0.08,0.78,0.13,1.17c-1.44,0.25-2.88,0.49-4.32,0.72c-0.2-1.96-0.4-3.91-0.6-5.87
			c1.41-0.2,2.81-0.4,4.22-0.61c0.04,0.39,0.08,0.78,0.13,1.17c-0.94,0.14-1.87,0.29-2.81,0.42c0.04,0.38,0.08,0.76,0.12,1.14
			c0.81-0.12,1.61-0.25,2.42-0.37c0.04,0.36,0.08,0.72,0.12,1.08c-0.81,0.13-1.61,0.26-2.42,0.38c0.04,0.41,0.09,0.83,0.13,1.24
			C168.38,42.6,169.34,42.45,170.31,42.28z"/>
		<path class="st0" d="M174.52,38.65c-0.02-0.01-0.08-0.04-0.2-0.09c-0.11-0.04-0.25-0.09-0.41-0.12c-0.16-0.04-0.33-0.07-0.52-0.08
			c-0.19-0.02-0.37-0.01-0.56,0.02c-0.24,0.04-0.42,0.11-0.55,0.21c-0.12,0.1-0.18,0.23-0.16,0.38c0.01,0.12,0.07,0.21,0.18,0.28
			c0.11,0.06,0.26,0.1,0.46,0.13c0.2,0.02,0.44,0.05,0.72,0.07c0.4,0.04,0.75,0.1,1.06,0.18c0.3,0.09,0.54,0.22,0.72,0.41
			c0.18,0.18,0.29,0.45,0.33,0.8c0.04,0.31,0.01,0.59-0.09,0.83c-0.1,0.25-0.25,0.46-0.46,0.63c-0.21,0.17-0.44,0.32-0.71,0.43
			c-0.27,0.11-0.55,0.19-0.84,0.24c-0.3,0.05-0.61,0.08-0.93,0.07c-0.32,0-0.63-0.03-0.93-0.09c-0.3-0.06-0.58-0.14-0.84-0.24
			c0.16-0.42,0.32-0.85,0.49-1.27c0.03,0.03,0.12,0.07,0.25,0.12c0.13,0.05,0.3,0.1,0.49,0.14c0.2,0.05,0.41,0.08,0.65,0.1
			c0.24,0.02,0.47,0.01,0.7-0.03c0.26-0.05,0.45-0.12,0.56-0.21c0.11-0.1,0.16-0.21,0.15-0.34c-0.02-0.14-0.09-0.24-0.23-0.3
			c-0.14-0.06-0.32-0.1-0.55-0.13c-0.23-0.03-0.49-0.06-0.79-0.08c-0.39-0.05-0.71-0.12-0.97-0.21c-0.26-0.09-0.46-0.22-0.6-0.4
			c-0.14-0.17-0.22-0.4-0.26-0.69c-0.04-0.41,0.02-0.77,0.19-1.07c0.17-0.31,0.42-0.56,0.75-0.75c0.33-0.19,0.7-0.32,1.1-0.39
			c0.29-0.05,0.57-0.06,0.84-0.03c0.27,0.02,0.53,0.06,0.78,0.12c0.25,0.06,0.46,0.12,0.64,0.2
			C174.85,37.87,174.68,38.25,174.52,38.65z"/>
	</g>
</g>
</svg>
