<?xml version="1.0" encoding="utf-8"?>
<!-- Generator: Adobe Illustrator 25.0.0, SVG Export Plug-In . SVG Version: 6.00 Build 0)  -->
<svg version="1.1" id="Capa_1" xmlns="http://www.w3.org/2000/svg" xmlns:xlink="http://www.w3.org/1999/xlink" x="0px" y="0px"
	 viewBox="0 0 38.15 26.3" style="enable-background:new 0 0 38.15 26.3;" xml:space="preserve">
<style type="text/css">
	.st0{fill:#FBFBF3;}
</style>
<path class="st0" d="M24.06,26.27C8.16,26.47-1.32,13.05,0.15,1.86c0.05-0.35,0.12-0.7,0.22-1.04S0.56,0.04,1.01,0
	c0.66-0.05,0.57,0.51,0.7,0.88c0.42,1.18,0.77,2.39,1.27,3.54C6.63,12.79,14.2,15.63,23,14.53c0.76-0.09,1.31-0.51,1.92-0.82
	c2.5-1.29,5.15-1.92,8.04-1.71c3.19,0.23,5.24,2.23,5.19,5.13c-0.08,4.64-3.41,7.82-9.25,8.76C27.24,26.15,25.55,26.38,24.06,26.27z
	"/>
</svg>
