<?xml version="1.0" encoding="utf-8"?>
<!-- Generator: Adobe Illustrator 25.0.0, SVG Export Plug-In . SVG Version: 6.00 Build 0)  -->
<svg version="1.1" id="Capa_1" xmlns="http://www.w3.org/2000/svg" xmlns:xlink="http://www.w3.org/1999/xlink" x="0px" y="0px"
	 viewBox="0 0 213.86 58.39" style="enable-background:new 0 0 213.86 58.39;" xml:space="preserve">
<style type="text/css">
	.st0{fill:#FFFCF5;}
</style>
<g>
	<path class="st0" d="M8.52,1.05c1.49-0.58,2.98-0.94,4.45-1.07c1.47-0.13,2.91-0.13,4.32-0.01c1.41,0.12,2.77,0.32,4.08,0.59
		c1.31,0.27,2.56,0.48,3.74,0.63c1.18,0.14,2.28,0.16,3.3,0.03c1.02-0.12,1.95-0.54,2.78-1.26c-0.78,1-1.59,1.76-2.43,2.3
		c-0.84,0.54-1.7,0.9-2.57,1.11c-0.87,0.2-1.75,0.28-2.65,0.22c-0.89-0.05-1.8-0.17-2.71-0.34c-0.63,0.18-1.23,0.59-1.8,1.21
		c-0.57,0.62-1.14,1.37-1.69,2.23c-0.55,0.87-1.11,1.81-1.67,2.84c-0.56,1.03-1.15,2.06-1.76,3.08c-0.62,1.02-1.28,1.98-1.97,2.89
		c-0.69,0.9-1.46,1.66-2.29,2.28c-0.83,0.62-1.73,1.06-2.7,1.32c-0.97,0.26-2.04,0.26-3.21,0c-0.56-0.12-1.1-0.3-1.6-0.52
		c-0.5-0.22-0.91-0.49-1.23-0.8c-0.32-0.31-0.52-0.67-0.6-1.07c-0.08-0.4,0.05-0.84,0.37-1.34c0.21-0.33,0.52-0.57,0.92-0.71
		c0.4-0.14,0.84-0.21,1.3-0.2c0.47,0.01,0.92,0.08,1.35,0.22c0.43,0.14,0.78,0.32,1.05,0.56c0.26,0.23,0.39,0.5,0.38,0.8
		c-0.01,0.3-0.23,0.61-0.66,0.92c-0.25-0.23-0.51-0.36-0.76-0.41c-0.25-0.05-0.48-0.04-0.69,0.03c-0.21,0.06-0.38,0.17-0.5,0.31
		c-0.12,0.14-0.18,0.3-0.16,0.46c0.02,0.16,0.12,0.33,0.31,0.48c0.19,0.16,0.49,0.28,0.9,0.37c0.56,0.12,1.11,0.01,1.65-0.34
		c0.53-0.35,1.06-0.85,1.59-1.51c0.52-0.66,1.05-1.44,1.59-2.33c0.53-0.9,1.09-1.82,1.67-2.78c0.58-0.96,1.19-1.92,1.82-2.87
		c0.63-0.96,1.32-1.82,2.06-2.61c0.74-0.78,1.53-1.43,2.37-1.93c0.84-0.51,1.76-0.8,2.77-0.86c-1.01-0.22-2.01-0.46-3.01-0.71
		C15.64,2,14.66,1.83,13.69,1.72c-0.97-0.11-1.92-0.12-2.85-0.03c-0.93,0.09-1.83,0.35-2.7,0.76c-0.98,0.47-1.82,1.04-2.5,1.71
		c-0.68,0.67-1.21,1.36-1.6,2.1C3.67,6.98,3.42,7.72,3.31,8.47c-0.11,0.75-0.1,1.44,0.04,2.07c0.14,0.63,0.4,1.16,0.79,1.6
		c0.38,0.44,0.87,0.7,1.45,0.79c0.35,0.05,0.64,0,0.89-0.15c0.24-0.15,0.38-0.35,0.4-0.58c0.02-0.23-0.09-0.46-0.36-0.68
		c-0.26-0.22-0.73-0.37-1.4-0.46c0.07-0.42,0.35-0.73,0.84-0.92c0.49-0.19,1.02-0.26,1.57-0.2c0.55,0.06,1.04,0.24,1.45,0.56
		c0.42,0.31,0.58,0.77,0.49,1.36c-0.06,0.38-0.23,0.71-0.51,1c-0.29,0.29-0.64,0.52-1.07,0.69c-0.42,0.17-0.9,0.28-1.42,0.34
		c-0.52,0.05-1.04,0.04-1.56-0.05c-1.39-0.22-2.47-0.63-3.25-1.21c-0.78-0.58-1.29-1.25-1.52-2.01c-0.24-0.76-0.22-1.56,0.06-2.43
		c0.28-0.86,0.78-1.72,1.5-2.58c0.72-0.86,1.66-1.69,2.81-2.49C5.67,2.32,7,1.63,8.52,1.05z"/>
	<path class="st0" d="M24.45,9.7c0.72,0.05,1.23,0.27,1.53,0.66c0.3,0.39,0.43,0.85,0.38,1.37c-0.05,0.53-0.26,1.08-0.61,1.66
		c-0.36,0.58-0.83,1.09-1.43,1.52c-0.59,0.43-1.28,0.74-2.07,0.93c-0.79,0.19-1.64,0.18-2.54-0.03c-0.15,0.68-0.16,1.27-0.03,1.78
		c0.14,0.5,0.51,0.8,1.12,0.89c0.72,0.11,1.43,0.02,2.12-0.27c0.69-0.29,1.32-0.65,1.88-1.08c0.64-0.5,1.24-1.08,1.8-1.76
		c0.17,0.02,0.35,0.04,0.52,0.06c-0.64,0.96-1.37,1.77-2.18,2.44c-0.35,0.3-0.73,0.58-1.14,0.84c-0.41,0.26-0.85,0.48-1.32,0.65
		c-0.47,0.18-0.96,0.3-1.48,0.37c-0.52,0.07-1.06,0.06-1.6-0.03c-1.03-0.17-1.79-0.56-2.28-1.14c-0.49-0.59-0.75-1.26-0.77-2.01
		c-0.02-0.75,0.16-1.54,0.54-2.38c0.38-0.84,0.93-1.59,1.65-2.27c0.72-0.68,1.58-1.24,2.58-1.67C22.13,9.79,23.23,9.61,24.45,9.7z
		 M23.67,10.43c-0.28-0.02-0.6,0.1-0.95,0.37c-0.35,0.27-0.7,0.62-1.04,1.06c-0.34,0.43-0.66,0.92-0.96,1.46
		c-0.3,0.54-0.55,1.08-0.75,1.61c0.36,0.16,0.73,0.16,1.11,0.01c0.38-0.15,0.75-0.39,1.1-0.71c0.35-0.33,0.67-0.7,0.95-1.13
		c0.29-0.42,0.5-0.83,0.65-1.23c0.15-0.39,0.22-0.73,0.22-1C24,10.6,23.89,10.45,23.67,10.43z"/>
	<path class="st0" d="M47.38-0.03c1.21,0,2.28,0.1,3.23,0.3c0.94,0.2,1.76,0.45,2.45,0.77c1.54,0.72,2.72,1.71,3.53,2.98
		c0.81,1.27,1.32,2.7,1.54,4.27c0.22,1.57,0.17,3.22-0.14,4.93c-0.32,1.71-0.84,3.36-1.57,4.93c-0.73,1.57-1.63,2.99-2.69,4.27
		c-1.06,1.27-2.23,2.27-3.5,2.98c-1.27,0.72-2.59,1.1-3.98,1.15c-1.39,0.06-2.76-0.34-4.12-1.16c-0.7-0.46-1.28-0.95-1.75-1.48
		c-0.65,0.45-1.33,0.77-2.06,0.96c-0.73,0.19-1.51,0.23-2.35,0.1c-0.58-0.08-1.11-0.24-1.62-0.46c-0.5-0.22-0.92-0.51-1.25-0.88
		c-0.33-0.37-0.54-0.8-0.62-1.31c-0.08-0.51,0.02-1.11,0.29-1.81c0.21-0.46,0.51-0.8,0.93-1.03c0.41-0.23,0.85-0.36,1.33-0.4
		c0.47-0.04,0.93,0.01,1.39,0.14c0.45,0.13,0.81,0.34,1.07,0.61c0.26,0.27,0.4,0.6,0.4,0.99c0.01,0.39-0.19,0.81-0.59,1.26
		c-0.26-0.26-0.53-0.41-0.79-0.44c-0.27-0.03-0.5,0-0.7,0.11c-0.2,0.11-0.37,0.26-0.5,0.46c-0.13,0.2-0.19,0.4-0.16,0.61
		c0.02,0.21,0.12,0.4,0.29,0.58c0.17,0.18,0.47,0.3,0.89,0.36c0.6,0.08,1.17-0.14,1.71-0.68c0.54-0.54,1.08-1.27,1.6-2.2
		c0.52-0.93,1.05-2.01,1.57-3.23c0.52-1.22,1.07-2.48,1.64-3.77c0.57-1.29,1.18-2.55,1.83-3.8c0.65-1.24,1.34-2.35,2.09-3.33
		c0.75-0.98,1.57-1.76,2.45-2.34c0.88-0.58,1.85-0.84,2.91-0.78c-0.1-0.1-0.2-0.2-0.3-0.3c-0.57-0.47-1.32-0.93-2.25-1.36
		c-0.93-0.43-2.04-0.65-3.33-0.66c-1.86-0.01-3.47,0.38-4.84,1.16c-1.37,0.78-2.51,1.73-3.42,2.88c-0.91,1.14-1.59,2.38-2.03,3.71
		c-0.44,1.33-0.68,2.57-0.72,3.74c-0.03,1.16,0.15,2.15,0.54,2.97c0.39,0.82,0.98,1.27,1.77,1.35c0.35,0.03,0.65-0.06,0.89-0.27
		c0.24-0.22,0.37-0.47,0.39-0.76c0.02-0.29-0.12-0.57-0.4-0.84c-0.28-0.26-0.76-0.42-1.44-0.48c0.06-0.55,0.33-0.97,0.82-1.25
		c0.49-0.28,1.01-0.41,1.57-0.38c0.56,0.03,1.05,0.23,1.48,0.6c0.43,0.37,0.61,0.93,0.54,1.69c-0.05,0.5-0.2,0.95-0.47,1.34
		c-0.27,0.39-0.61,0.71-1.02,0.96c-0.41,0.26-0.89,0.44-1.42,0.55c-0.53,0.11-1.08,0.14-1.62,0.08c-1.3-0.14-2.34-0.52-3.11-1.12
		c-0.78-0.6-1.33-1.34-1.64-2.22c-0.32-0.88-0.41-1.84-0.28-2.91c0.13-1.07,0.46-2.14,0.99-3.22c0.53-1.08,1.25-2.14,2.16-3.2
		c0.91-1.06,1.98-2.01,3.21-2.85c1.23-0.84,2.62-1.53,4.16-2.06C43.89,0.24,45.57-0.04,47.38-0.03z M52.53,4.04
		c-0.65,0.3-1.26,0.87-1.82,1.73c-0.56,0.85-1.11,1.85-1.65,3c-0.54,1.15-1.08,2.39-1.63,3.73c-0.54,1.34-1.12,2.67-1.73,3.98
		c-0.61,1.31-1.27,2.55-1.99,3.72c-0.72,1.17-1.5,2.14-2.36,2.93c0.2,0.22,0.42,0.42,0.66,0.61c0.24,0.19,0.49,0.37,0.74,0.53
		c0.93,0.61,1.87,0.9,2.81,0.85c0.95-0.05,1.85-0.34,2.71-0.89c0.86-0.54,1.67-1.3,2.42-2.26c0.76-0.96,1.41-2.05,1.95-3.27
		c0.55-1.22,0.99-2.52,1.32-3.88c0.33-1.37,0.51-2.72,0.53-4.04c0.02-1.32-0.13-2.57-0.44-3.74C53.76,5.88,53.24,4.87,52.53,4.04z"
		/>
	<path class="st0" d="M71.76,17.5c0.92,0.7,1.5,1.54,1.76,2.49c0.26,0.95,0.24,1.85-0.04,2.7c-0.28,0.84-0.83,1.54-1.64,2.1
		c-0.81,0.56-1.83,0.79-3.05,0.71c-0.85-0.06-1.57-0.39-2.16-1c-0.59-0.6-0.92-1.28-0.99-2.03c-0.64,0.68-1.38,1.26-2.23,1.74
		c-0.84,0.48-1.78,0.68-2.8,0.59c-1.05-0.09-1.83-0.48-2.35-1.16c-0.52-0.69-0.81-1.5-0.87-2.45c-0.06-0.95,0.09-1.97,0.43-3.06
		c0.34-1.09,0.86-2.09,1.55-3c0.69-0.91,1.52-1.66,2.51-2.27c0.98-0.6,2.08-0.88,3.31-0.84c0.72,0.03,1.25,0.27,1.57,0.72
		c0.33,0.46,0.48,1.01,0.45,1.65c-0.02,0.64-0.2,1.33-0.53,2.06c-0.33,0.73-0.78,1.39-1.36,1.96c-0.58,0.57-1.26,1.02-2.04,1.32
		c-0.78,0.31-1.64,0.37-2.56,0.19c-0.12,0.87-0.1,1.6,0.06,2.21c0.16,0.61,0.55,0.94,1.17,0.99c0.75,0.06,1.48-0.13,2.16-0.57
		c0.68-0.44,1.3-0.95,1.84-1.52c0.33-0.7,0.77-1.13,1.34-1.29c0.56-0.16,1.1-0.13,1.61,0.09c0.51,0.22,0.9,0.58,1.17,1.09
		c0.27,0.51,0.29,1.08,0.03,1.7c-0.4-0.45-0.78-0.62-1.13-0.51c-0.35,0.11-0.61,0.32-0.77,0.62c-0.16,0.31-0.2,0.64-0.12,1
		c0.08,0.36,0.35,0.59,0.82,0.69c0.53,0.11,0.98,0,1.34-0.32c0.36-0.32,0.61-0.73,0.73-1.23c0.13-0.5,0.11-1.04-0.04-1.6
		c-0.15-0.56-0.46-1.05-0.93-1.45c-0.83-0.68-1.39-1.47-1.69-2.37c-0.3-0.9-0.33-1.73-0.1-2.52c0.23-0.79,0.71-1.45,1.44-1.99
		c0.73-0.54,1.71-0.79,2.94-0.75c1.07,0.03,1.88,0.35,2.43,0.97c0.54,0.61,0.69,1.39,0.42,2.34c-0.23,0.71-0.6,1.19-1.12,1.44
		c-0.52,0.25-1.02,0.32-1.5,0.21c-0.48-0.12-0.87-0.39-1.15-0.81c-0.29-0.43-0.3-0.97-0.02-1.62c0.44,0.37,0.83,0.51,1.15,0.4
		c0.33-0.11,0.55-0.29,0.67-0.56c0.12-0.27,0.12-0.55-0.01-0.84c-0.13-0.29-0.44-0.44-0.92-0.46c-0.44-0.01-0.82,0.12-1.14,0.4
		c-0.32,0.28-0.54,0.64-0.66,1.08c-0.12,0.43-0.11,0.9,0.03,1.4C70.92,16.64,71.25,17.1,71.76,17.5z M64.43,12.95
		c-0.28-0.01-0.6,0.16-0.94,0.52c-0.34,0.36-0.67,0.81-0.99,1.38c-0.32,0.56-0.62,1.19-0.9,1.89c-0.28,0.7-0.5,1.38-0.68,2.06
		c0.37,0.16,0.74,0.13,1.12-0.08c0.38-0.22,0.74-0.54,1.07-0.98c0.34-0.43,0.64-0.92,0.9-1.46c0.26-0.54,0.46-1.06,0.59-1.56
		c0.13-0.49,0.19-0.91,0.17-1.25C64.76,13.14,64.65,12.96,64.43,12.95z"/>
	<path class="st0" d="M82.4,12.53c0.72,0.02,1.25,0.26,1.59,0.73c0.34,0.47,0.5,1.04,0.49,1.7c-0.01,0.67-0.17,1.39-0.48,2.16
		c-0.31,0.77-0.75,1.46-1.31,2.07c-0.56,0.61-1.24,1.09-2.01,1.43c-0.78,0.34-1.63,0.44-2.56,0.28c-0.1,0.91-0.07,1.68,0.11,2.31
		c0.18,0.63,0.58,0.97,1.2,1c0.73,0.03,1.44-0.18,2.12-0.65c0.67-0.47,1.28-1.01,1.81-1.62c0.6-0.71,1.16-1.51,1.67-2.42
		c0.18,0.01,0.35,0.01,0.53,0.02c-0.57,1.27-1.24,2.38-2,3.32c-0.33,0.43-0.68,0.83-1.08,1.21c-0.39,0.38-0.82,0.72-1.27,1.02
		c-0.46,0.29-0.95,0.52-1.47,0.69c-0.52,0.17-1.06,0.24-1.62,0.21c-1.05-0.06-1.85-0.44-2.38-1.14c-0.54-0.7-0.85-1.55-0.93-2.54
		c-0.08-0.99,0.04-2.07,0.36-3.23c0.32-1.16,0.81-2.22,1.48-3.19c0.67-0.97,1.49-1.78,2.46-2.43C80.08,12.81,81.18,12.5,82.4,12.53z
		 M81.68,13.53c-0.29-0.01-0.6,0.18-0.93,0.56c-0.33,0.38-0.65,0.86-0.96,1.46c-0.31,0.59-0.59,1.26-0.85,1.99
		c-0.26,0.74-0.47,1.46-0.63,2.18c0.37,0.16,0.74,0.12,1.12-0.12c0.37-0.24,0.72-0.59,1.05-1.05c0.33-0.46,0.62-0.98,0.87-1.55
		c0.25-0.57,0.44-1.12,0.55-1.63c0.12-0.52,0.16-0.95,0.14-1.3C82.02,13.71,81.9,13.53,81.68,13.53z"/>
	<path class="st0" d="M94.81,13.06c-0.37,1.3-0.73,2.52-1.06,3.67c-0.28,0.98-0.57,1.95-0.85,2.91c-0.28,0.96-0.5,1.69-0.64,2.18
		c-0.28,0.93-0.4,1.52-0.34,1.78c0.06,0.26,0.18,0.42,0.36,0.47c0.24,0.08,0.56,0,0.96-0.25c0.39-0.25,0.73-0.69,1.01-1.32
		c0.16,0,0.31,0.01,0.47,0.01c-0.28,0.76-0.6,1.4-0.97,1.92c-0.37,0.52-0.75,0.94-1.15,1.26c-0.4,0.32-0.78,0.55-1.16,0.69
		c-0.37,0.14-0.7,0.2-0.99,0.19c-0.4-0.01-0.78-0.15-1.13-0.42c-0.35-0.27-0.54-0.79-0.56-1.58c-0.48,0.52-1.04,0.96-1.68,1.32
		c-0.64,0.36-1.26,0.52-1.86,0.5c-0.42-0.02-0.78-0.18-1.06-0.5c-0.28-0.32-0.45-0.78-0.49-1.4c-0.05-0.62,0.04-1.4,0.26-2.34
		c0.22-0.94,0.6-2.03,1.15-3.28c0.55-1.27,1.23-2.36,2.05-3.25c0.82-0.9,1.68-1.59,2.58-2.09c0.9-0.5,1.8-0.79,2.69-0.88
		C93.29,12.54,94.09,12.69,94.81,13.06z M88.9,22.95c0.08-0.37,0.18-0.77,0.33-1.2c0.71-2.39,1.42-4.79,2.12-7.19
		c-0.13-0.05-0.26-0.08-0.39-0.08c-0.35-0.01-0.72,0.21-1.1,0.66c-0.39,0.45-0.75,1.01-1.1,1.7c-0.35,0.69-0.67,1.43-0.97,2.21
		c-0.3,0.79-0.52,1.52-0.66,2.22c-0.14,0.69-0.19,1.26-0.15,1.72c0.04,0.45,0.21,0.68,0.5,0.69c0.22,0.01,0.47-0.08,0.74-0.25
		C88.49,23.25,88.72,23.1,88.9,22.95z"/>
	<path class="st0" d="M110.21,3.42c0.65,0,1.17,0.15,1.56,0.46c0.39,0.31,0.67,0.69,0.84,1.15c0.17,0.46,0.21,0.95,0.14,1.48
		c-0.07,0.53-0.23,1.03-0.48,1.48c-0.25,0.46-0.59,0.84-1.02,1.15c-0.44,0.31-0.95,0.47-1.54,0.47c-0.65,0-1.1-0.23-1.35-0.68
		c-0.24-0.46-0.32-0.94-0.23-1.45c0.09-0.51,0.31-0.94,0.68-1.32c0.37-0.37,0.83-0.48,1.4-0.34c-0.13,0.12-0.21,0.28-0.24,0.46
		c-0.03,0.18-0.03,0.36,0,0.52c0.03,0.16,0.1,0.3,0.21,0.41c0.11,0.11,0.23,0.17,0.36,0.17c0.17,0,0.3-0.15,0.37-0.45
		c0.07-0.3,0.09-0.62,0.04-0.98c-0.05-0.36-0.18-0.69-0.4-0.98c-0.22-0.3-0.53-0.44-0.95-0.44c-0.56,0-1.08,0.35-1.56,1.06
		c-0.48,0.71-0.87,1.61-1.17,2.72c-0.07,0.2-0.16,0.53-0.28,1c-0.12,0.47-0.26,1.04-0.43,1.7c-0.17,0.67-0.36,1.41-0.58,2.24
		c-0.22,0.83-0.44,1.69-0.67,2.58c0.91-0.7,1.81-1.41,2.71-2.11c-0.11,0.89-0.09,1.58,0.05,2.07c0.14,0.5,0.35,0.84,0.61,1.04
		c0.27,0.2,0.57,0.28,0.93,0.24c0.35-0.04,0.7-0.14,1.03-0.32c-0.7,0.92-1.38,1.61-2.03,2.08c-0.65,0.47-1.25,0.72-1.78,0.76
		c-0.53,0.04-0.97-0.13-1.31-0.5c-0.34-0.37-0.56-0.94-0.64-1.71c-0.38,1.48-0.77,2.96-1.16,4.44c-0.4,1.48-0.76,2.81-1.08,3.99
		c-0.39,1.38-0.75,2.71-1.07,3.99c-1.04-0.01-2.09-0.03-3.13-0.05c0.75-2.75,1.48-5.39,2.2-7.92c0.3-1.08,0.6-2.19,0.91-3.32
		c0.31-1.13,0.61-2.23,0.9-3.29c0.29-1.06,0.57-2.05,0.83-2.98c0.26-0.92,0.47-1.72,0.65-2.39c0.36-1.36,0.79-2.46,1.29-3.3
		c0.5-0.84,1.04-1.49,1.62-1.96c0.58-0.47,1.18-0.78,1.82-0.95C108.92,3.5,109.56,3.42,110.21,3.42z"/>
	<path class="st0" d="M115,12.77c0.73-0.01,1.26,0.22,1.62,0.69c0.36,0.46,0.55,1.04,0.57,1.71c0.02,0.68-0.11,1.41-0.38,2.2
		c-0.28,0.79-0.68,1.51-1.22,2.16c-0.54,0.65-1.19,1.17-1.95,1.56c-0.76,0.39-1.61,0.53-2.55,0.41c-0.06,0.94,0.01,1.73,0.22,2.37
		c0.2,0.64,0.62,0.96,1.24,0.95c0.74-0.01,1.43-0.27,2.08-0.78c0.65-0.51,1.23-1.09,1.73-1.74c0.57-0.75,1.09-1.59,1.56-2.53
		c0.18,0,0.35-0.01,0.53-0.01c-0.51,1.31-1.13,2.47-1.85,3.46c-0.31,0.45-0.65,0.88-1.02,1.29c-0.38,0.41-0.78,0.78-1.23,1.11
		c-0.44,0.33-0.92,0.59-1.43,0.79c-0.51,0.2-1.05,0.31-1.61,0.31c-1.05,0.01-1.87-0.33-2.44-1.02c-0.57-0.69-0.92-1.55-1.04-2.57
		c-0.12-1.02-0.05-2.14,0.21-3.35c0.26-1.21,0.71-2.33,1.34-3.36c0.63-1.03,1.41-1.89,2.35-2.58
		C112.69,13.13,113.77,12.78,115,12.77z M114.32,13.81c-0.29,0-0.59,0.2-0.9,0.6c-0.32,0.4-0.61,0.91-0.9,1.53
		c-0.28,0.62-0.54,1.31-0.76,2.08c-0.23,0.77-0.4,1.52-0.53,2.26c0.38,0.15,0.75,0.09,1.11-0.17c0.36-0.26,0.7-0.64,1-1.12
		c0.31-0.48,0.57-1.02,0.8-1.62c0.23-0.59,0.39-1.16,0.48-1.69c0.1-0.53,0.12-0.97,0.09-1.33
		C114.67,13.99,114.54,13.81,114.32,13.81z"/>
	<path class="st0" d="M120.2,21.86c-0.25,0.94-0.34,1.54-0.27,1.79c0.07,0.26,0.2,0.41,0.38,0.45c0.25,0.07,0.55-0.03,0.92-0.3
		c0.36-0.27,0.67-0.72,0.92-1.37c0.18,0,0.36-0.01,0.53-0.01c-0.25,0.77-0.55,1.42-0.89,1.95c-0.35,0.54-0.71,0.97-1.1,1.31
		c-0.38,0.34-0.76,0.59-1.13,0.75c-0.37,0.16-0.7,0.24-0.99,0.24c-0.31,0.01-0.61-0.05-0.89-0.19c-0.28-0.13-0.51-0.37-0.68-0.71
		c-0.17-0.34-0.26-0.83-0.27-1.46c-0.01-0.63,0.12-1.44,0.37-2.43c1.52-5.91,3-11.8,4.44-17.67c0.99,0,1.97-0.01,2.96-0.02
		c-0.71,2.94-1.36,5.62-1.94,8.06c-0.26,1.03-0.52,2.07-0.78,3.12c-0.25,1.05-0.49,2.01-0.7,2.88c-0.21,0.88-0.4,1.63-0.55,2.26
		C120.37,21.17,120.26,21.61,120.2,21.86z"/>
	<path class="st0" d="M125.23,21.74c-0.12,0.47-0.2,0.84-0.24,1.13c-0.04,0.28-0.04,0.5,0,0.66c0.04,0.16,0.09,0.27,0.17,0.33
		c0.08,0.06,0.16,0.1,0.25,0.12c0.2,0.07,0.49-0.03,0.88-0.3c0.38-0.27,0.7-0.72,0.95-1.37c0.16,0,0.31-0.01,0.47-0.01
		c-0.24,0.76-0.54,1.41-0.88,1.95c-0.34,0.54-0.7,0.98-1.07,1.32c-0.37,0.34-0.75,0.59-1.12,0.75c-0.38,0.16-0.72,0.24-1.03,0.25
		c-0.29,0.01-0.57-0.05-0.84-0.18c-0.27-0.13-0.49-0.36-0.67-0.7c-0.17-0.34-0.26-0.82-0.26-1.45c0-0.63,0.12-1.43,0.37-2.42
		c0.79-3.06,1.57-6.11,2.35-9.15c0.99-0.02,1.97-0.03,2.96-0.05c-0.33,1.37-0.65,2.64-0.95,3.82c-0.26,1.03-0.51,2.05-0.76,3.06
		C125.54,20.49,125.36,21.24,125.23,21.74z M129.19,7.4c0.02,0.61-0.16,1.13-0.54,1.57c-0.38,0.44-0.83,0.67-1.36,0.68
		c-0.57,0.01-1.05-0.2-1.44-0.64c-0.39-0.43-0.6-0.96-0.61-1.57c-0.02-0.63,0.16-1.16,0.53-1.58c0.37-0.42,0.84-0.63,1.4-0.63
		c0.52,0,0.98,0.2,1.39,0.61C128.96,6.25,129.17,6.77,129.19,7.4z"/>
	<path class="st0" d="M134.15,14.88c-0.13,0.12-0.2,0.28-0.21,0.46c-0.02,0.18,0,0.35,0.05,0.5c0.05,0.16,0.13,0.28,0.25,0.39
		c0.11,0.1,0.24,0.16,0.37,0.15c0.18-0.01,0.3-0.15,0.36-0.45c0.07-0.29,0.07-0.61,0.01-0.96c-0.06-0.35-0.2-0.66-0.43-0.95
		c-0.23-0.28-0.56-0.42-0.97-0.41c-0.51,0.01-0.96,0.28-1.36,0.81c-0.4,0.53-0.73,1.19-1.01,1.99c-0.27,0.8-0.47,1.65-0.6,2.56
		c-0.13,0.91-0.16,1.76-0.1,2.55c0.06,0.79,0.21,1.44,0.45,1.95c0.24,0.51,0.59,0.76,1.06,0.74c0.73-0.03,1.42-0.31,2.04-0.83
		c0.63-0.52,1.18-1.1,1.67-1.72c0.55-0.72,1.05-1.55,1.5-2.48c0.19-0.01,0.38-0.02,0.56-0.02c-0.45,1.29-1.03,2.43-1.72,3.42
		c-0.3,0.45-0.62,0.88-0.98,1.29c-0.36,0.41-0.76,0.79-1.2,1.12c-0.44,0.33-0.91,0.61-1.41,0.83c-0.51,0.22-1.05,0.34-1.63,0.36
		c-1.05,0.05-1.87-0.26-2.46-0.92c-0.59-0.66-0.96-1.5-1.11-2.5c-0.15-1.01-0.11-2.11,0.12-3.31c0.23-1.2,0.65-2.31,1.25-3.34
		c0.6-1.02,1.36-1.89,2.28-2.59c0.92-0.7,2-1.06,3.22-1.09c0.64-0.02,1.16,0.12,1.57,0.41c0.41,0.29,0.7,0.66,0.87,1.11
		c0.17,0.45,0.24,0.93,0.19,1.45c-0.04,0.52-0.19,1.01-0.44,1.47c-0.25,0.46-0.58,0.86-1,1.17c-0.42,0.32-0.93,0.49-1.52,0.51
		c-0.66,0.02-1.12-0.18-1.38-0.61c-0.26-0.43-0.36-0.9-0.3-1.4s0.27-0.95,0.63-1.32C133.14,14.88,133.59,14.76,134.15,14.88z"/>
	<path class="st0" d="M150.44,17.08c0.99,0.59,1.66,1.33,2.01,2.22c0.36,0.89,0.44,1.75,0.25,2.59c-0.19,0.84-0.66,1.59-1.4,2.24
		c-0.74,0.65-1.73,1.03-2.95,1.12c-0.85,0.06-1.6-0.16-2.25-0.68c-0.65-0.52-1.05-1.15-1.2-1.9c-0.56,0.77-1.24,1.45-2.02,2.06
		c-0.79,0.61-1.69,0.95-2.72,1.01c-1.05,0.06-1.87-0.23-2.47-0.86c-0.6-0.64-0.97-1.46-1.14-2.44c-0.16-0.99-0.13-2.08,0.08-3.26
		c0.22-1.18,0.62-2.28,1.21-3.3c0.59-1.01,1.33-1.87,2.25-2.56c0.91-0.7,1.98-1.06,3.21-1.1c0.72-0.02,1.27,0.18,1.65,0.61
		c0.37,0.43,0.59,0.97,0.63,1.61c0.04,0.64-0.06,1.35-0.3,2.11c-0.25,0.76-0.62,1.47-1.13,2.1c-0.51,0.64-1.14,1.16-1.88,1.57
		c-0.75,0.41-1.59,0.58-2.52,0.5c-0.03,0.91,0.08,1.67,0.3,2.27c0.23,0.61,0.65,0.89,1.28,0.86c0.76-0.04,1.45-0.34,2.08-0.87
		c0.63-0.53,1.18-1.12,1.66-1.76c0.25-0.74,0.65-1.22,1.19-1.44c0.54-0.22,1.08-0.25,1.61-0.09c0.53,0.16,0.96,0.47,1.29,0.94
		c0.33,0.47,0.4,1.02,0.21,1.66c-0.45-0.39-0.84-0.51-1.17-0.36c-0.34,0.15-0.57,0.39-0.7,0.71c-0.13,0.32-0.13,0.66-0.01,1
		c0.12,0.34,0.41,0.53,0.89,0.57c0.54,0.03,0.97-0.14,1.29-0.5c0.32-0.36,0.52-0.79,0.59-1.3c0.07-0.5,0-1.02-0.21-1.55
		c-0.21-0.53-0.57-0.97-1.08-1.31c-0.9-0.57-1.54-1.29-1.93-2.15c-0.39-0.86-0.51-1.69-0.37-2.49c0.14-0.8,0.55-1.5,1.22-2.08
		c0.67-0.59,1.61-0.9,2.84-0.95c1.07-0.04,1.91,0.21,2.52,0.76c0.61,0.54,0.83,1.28,0.67,2.2c-0.15,0.69-0.47,1.19-0.96,1.48
		c-0.49,0.29-0.98,0.41-1.47,0.34c-0.49-0.06-0.9-0.29-1.23-0.68c-0.33-0.39-0.4-0.91-0.19-1.57c0.48,0.33,0.88,0.42,1.19,0.29
		c0.31-0.13,0.51-0.33,0.61-0.6c0.09-0.27,0.06-0.54-0.1-0.81c-0.16-0.27-0.48-0.39-0.96-0.37c-0.44,0.02-0.8,0.18-1.09,0.48
		c-0.29,0.3-0.47,0.67-0.55,1.1c-0.07,0.43-0.01,0.89,0.18,1.37C149.52,16.33,149.89,16.74,150.44,17.08z M142.66,13.21
		c-0.29,0.01-0.58,0.21-0.88,0.6c-0.3,0.39-0.58,0.89-0.84,1.49c-0.26,0.6-0.49,1.28-0.68,2.02c-0.2,0.75-0.35,1.48-0.45,2.2
		c0.38,0.13,0.75,0.05,1.1-0.21c0.35-0.27,0.67-0.64,0.96-1.11c0.29-0.47,0.53-1,0.73-1.58c0.2-0.58,0.34-1.12,0.41-1.63
		c0.07-0.51,0.08-0.94,0.03-1.28C143.01,13.37,142.88,13.21,142.66,13.21z"/>
	<path class="st0" d="M170.39,18.93c-0.1,0.42-0.16,0.75-0.18,1c-0.02,0.25-0.01,0.44,0.04,0.58c0.05,0.13,0.11,0.23,0.19,0.27
		c0.08,0.05,0.17,0.07,0.26,0.08c0.21,0.04,0.49-0.07,0.86-0.33c0.36-0.26,0.65-0.68,0.87-1.26c0.15-0.02,0.31-0.03,0.46-0.05
		c-0.2,0.68-0.46,1.27-0.77,1.76c-0.31,0.49-0.64,0.91-0.99,1.23c-0.35,0.33-0.71,0.58-1.07,0.75c-0.36,0.17-0.7,0.28-1.01,0.31
		c-0.29,0.03-0.57,0.01-0.85-0.08c-0.27-0.09-0.51-0.28-0.7-0.56c-0.19-0.29-0.3-0.7-0.34-1.26c-0.04-0.55,0.04-1.28,0.23-2.17
		c0.25-1.1,0.5-2.2,0.75-3.29c-0.51,0.49-1.01,0.85-1.48,1.06c-0.48,0.21-0.92,0.3-1.32,0.25c-0.4-0.04-0.74-0.22-1.02-0.51
		c-0.28-0.3-0.47-0.73-0.59-1.3c-0.27,1.34-0.54,2.69-0.82,4.05c-0.28,1.36-0.54,2.58-0.77,3.67c-0.28,1.28-0.53,2.51-0.76,3.7
		c-1.04,0.11-2.07,0.23-3.11,0.33c0.53-2.6,1.06-5.07,1.57-7.43c0.21-1,0.43-2.03,0.65-3.07c0.22-1.04,0.44-2.05,0.65-3.02
		c0.21-0.97,0.41-1.87,0.6-2.72c0.19-0.84,0.34-1.56,0.47-2.16c0.25-1.22,0.6-2.23,1.04-3.01c0.44-0.78,0.92-1.39,1.46-1.82
		c0.54-0.43,1.12-0.72,1.75-0.88c0.62-0.15,1.27-0.2,1.92-0.14c1.18,0.09,2.11,0.4,2.8,0.92c0.69,0.52,1.15,1.09,1.37,1.71
		c0.22,0.62,0.2,1.21-0.06,1.78c-0.26,0.57-0.77,0.92-1.52,1.06c-0.43,0.08-0.81,0.05-1.14-0.09c-0.33-0.15-0.59-0.36-0.79-0.64
		c-0.2-0.28-0.33-0.6-0.38-0.95c-0.05-0.35-0.03-0.68,0.08-0.98c0.1-0.3,0.3-0.55,0.58-0.75c0.29-0.2,0.68-0.3,1.18-0.32
		c-0.53-0.58-1.21-0.86-2.03-0.85c-0.74,0.01-1.37,0.34-1.9,0.99c-0.53,0.65-0.91,1.47-1.13,2.46c-0.05,0.18-0.12,0.47-0.2,0.89
		c-0.09,0.42-0.18,0.92-0.3,1.52c-0.11,0.59-0.25,1.26-0.41,2.01c-0.16,0.74-0.31,1.52-0.47,2.32c0.85-0.68,1.69-1.36,2.54-2.03
		c-0.04,0.59-0.01,1.07,0.09,1.45c0.1,0.37,0.23,0.67,0.39,0.89c0.16,0.22,0.36,0.36,0.6,0.43c0.24,0.07,0.48,0.1,0.72,0.08
		c0.29-1.27,0.57-2.54,0.85-3.8c0.98-0.06,1.97-0.11,2.95-0.17c-0.26,1.2-0.51,2.32-0.75,3.36c-0.2,0.91-0.4,1.81-0.6,2.7
		C170.62,17.82,170.48,18.49,170.39,18.93z"/>
	<path class="st0" d="M186.09,14.27c1,0.45,1.69,1.02,2.08,1.74c0.38,0.72,0.5,1.43,0.34,2.15c-0.16,0.72-0.6,1.38-1.31,1.98
		c-0.71,0.6-1.67,1-2.88,1.17c-0.84,0.12-1.59-0.01-2.26-0.41c-0.67-0.39-1.09-0.91-1.27-1.54c-0.53,0.69-1.17,1.33-1.92,1.91
		c-0.75,0.58-1.64,0.94-2.65,1.07c-1.04,0.13-1.87-0.06-2.48-0.58c-0.62-0.52-1.03-1.21-1.23-2.08c-0.2-0.86-0.22-1.82-0.05-2.88
		c0.17-1.05,0.52-2.04,1.06-2.96c0.54-0.91,1.25-1.69,2.13-2.33c0.88-0.64,1.93-0.99,3.15-1.07c0.72-0.05,1.27,0.11,1.66,0.46
		c0.39,0.36,0.62,0.81,0.69,1.35c0.07,0.55,0,1.15-0.22,1.82c-0.22,0.67-0.56,1.29-1.05,1.86c-0.48,0.58-1.09,1.07-1.81,1.46
		c-0.72,0.4-1.55,0.59-2.49,0.59c0.01,0.79,0.14,1.45,0.39,1.96c0.25,0.51,0.68,0.73,1.3,0.66c0.75-0.09,1.43-0.39,2.03-0.9
		c0.61-0.5,1.13-1.05,1.58-1.63c0.22-0.65,0.59-1.09,1.12-1.31c0.53-0.22,1.06-0.28,1.59-0.18c0.53,0.1,0.97,0.34,1.31,0.71
		c0.34,0.37,0.43,0.83,0.27,1.39c-0.46-0.3-0.85-0.37-1.18-0.22c-0.33,0.15-0.55,0.37-0.66,0.65c-0.11,0.28-0.1,0.57,0.03,0.85
		c0.13,0.28,0.43,0.42,0.9,0.42c0.53-0.01,0.95-0.19,1.26-0.52c0.31-0.33,0.49-0.71,0.54-1.14c0.05-0.43-0.04-0.86-0.27-1.3
		c-0.23-0.43-0.6-0.78-1.12-1.04c-0.91-0.43-1.58-1-2-1.71c-0.42-0.71-0.57-1.41-0.46-2.1c0.11-0.69,0.49-1.3,1.13-1.82
		c0.64-0.52,1.57-0.82,2.79-0.91c1.06-0.08,1.91,0.1,2.53,0.53c0.62,0.43,0.87,1.02,0.74,1.79c-0.13,0.58-0.43,1.01-0.9,1.28
		c-0.48,0.27-0.96,0.39-1.45,0.36c-0.49-0.03-0.91-0.19-1.25-0.5c-0.35-0.31-0.43-0.75-0.25-1.31c0.49,0.25,0.89,0.31,1.19,0.19
		c0.3-0.12,0.5-0.3,0.58-0.53c0.08-0.23,0.04-0.45-0.13-0.67c-0.17-0.22-0.49-0.31-0.97-0.27c-0.44,0.03-0.79,0.18-1.07,0.45
		c-0.28,0.27-0.44,0.58-0.5,0.95c-0.06,0.37,0.02,0.75,0.23,1.14C185.15,13.69,185.53,14.01,186.09,14.27z M178.2,11.35
		c-0.28,0.02-0.57,0.2-0.85,0.55c-0.28,0.35-0.54,0.79-0.77,1.33c-0.23,0.53-0.43,1.13-0.6,1.79c-0.17,0.66-0.28,1.3-0.36,1.94
		c0.39,0.09,0.75,0,1.09-0.25c0.34-0.25,0.64-0.59,0.91-1.02c0.27-0.43,0.49-0.89,0.67-1.4c0.18-0.51,0.3-0.98,0.35-1.43
		c0.05-0.44,0.05-0.81-0.02-1.1C178.56,11.47,178.42,11.33,178.2,11.35z"/>
	<path class="st0" d="M191.18,9.68c0.35-1.56,0.7-3.1,1.05-4.62c0.97-0.04,1.95-0.08,2.92-0.13c-0.1,0.45-0.21,0.91-0.31,1.36
		c-0.1,0.42-0.2,0.9-0.32,1.44c-0.11,0.54-0.24,1.11-0.38,1.71c0.68-0.06,1.37-0.11,2.05-0.17c0.05,0.4,0.11,0.8,0.16,1.2
		c-0.83,0.08-1.65,0.15-2.48,0.23c-0.34,1.52-0.69,3.05-1.03,4.61c-0.25,0.98-0.34,1.72-0.27,2.19c0.07,0.47,0.28,0.68,0.63,0.63
		c0.33-0.05,0.66-0.28,1-0.68c0.34-0.4,0.66-0.86,0.96-1.37c0.3-0.51,0.57-1.01,0.8-1.5c0.23-0.49,0.4-0.86,0.5-1.11
		c0.17-0.02,0.35-0.04,0.52-0.06c-0.14,0.45-0.36,1.03-0.66,1.75c-0.3,0.72-0.67,1.43-1.1,2.13c-0.43,0.7-0.91,1.32-1.45,1.88
		c-0.53,0.55-1.1,0.88-1.72,0.98c-0.99,0.16-1.7-0.14-2.13-0.9c-0.44-0.76-0.48-1.96-0.11-3.55c0.36-1.59,0.72-3.16,1.07-4.71
		c-0.39,0.03-0.78,0.07-1.17,0.1c-0.05-0.42-0.1-0.84-0.15-1.27C190.1,9.76,190.64,9.72,191.18,9.68z"/>
	<path class="st0" d="M204.86,8.64c-0.22,0.9-0.42,1.75-0.61,2.56c-0.16,0.69-0.33,1.38-0.49,2.07c-0.16,0.69-0.29,1.22-0.37,1.57
		c-0.17,0.68-0.21,1.1-0.12,1.27c0.09,0.17,0.22,0.25,0.4,0.26c0.25,0.01,0.55-0.1,0.9-0.34c0.35-0.24,0.63-0.59,0.83-1.06
		c0.15-0.02,0.3-0.05,0.46-0.07c-0.18,0.55-0.42,1.03-0.72,1.44c-0.29,0.41-0.62,0.77-0.96,1.06c-0.35,0.29-0.69,0.52-1.04,0.69
		c-0.34,0.17-0.66,0.27-0.94,0.33c-0.39,0.07-0.78,0.05-1.15-0.07c-0.37-0.12-0.62-0.45-0.74-1c-0.4,0.45-0.89,0.87-1.47,1.25
		c-0.57,0.37-1.15,0.62-1.75,0.72c-0.41,0.07-0.78,0.02-1.09-0.16c-0.31-0.18-0.53-0.49-0.66-0.94c-0.13-0.45-0.14-1.04-0.05-1.77
		c0.09-0.73,0.33-1.6,0.71-2.59c0.37-1.01,0.91-1.88,1.6-2.62c0.69-0.74,1.45-1.33,2.28-1.77c0.83-0.44,1.67-0.73,2.54-0.87
		C203.3,8.44,204.11,8.46,204.86,8.64z M200.26,16.19c0.03-0.27,0.09-0.57,0.17-0.9c0.4-1.79,0.8-3.55,1.2-5.28
		c-0.13-0.02-0.27-0.02-0.4-0.01c-0.35,0.03-0.68,0.23-1.01,0.58c-0.32,0.35-0.62,0.8-0.87,1.33c-0.26,0.53-0.48,1.1-0.68,1.7
		c-0.19,0.6-0.32,1.16-0.37,1.68c-0.05,0.52-0.03,0.94,0.07,1.25c0.1,0.32,0.29,0.45,0.57,0.41c0.22-0.03,0.45-0.14,0.69-0.31
		C199.9,16.47,200.1,16.32,200.26,16.19z"/>
	<path class="st0" d="M210.51,11.37c1,0.31,1.7,0.73,2.09,1.28c0.39,0.55,0.51,1.11,0.36,1.69c-0.15,0.59-0.57,1.14-1.26,1.68
		c-0.69,0.54-1.64,0.93-2.83,1.16c-0.52,0.1-1.02,0.11-1.49,0.04c-0.47-0.08-0.87-0.23-1.2-0.44c-0.33-0.22-0.58-0.48-0.74-0.79
		c-0.16-0.31-0.19-0.64-0.08-1c0.09-0.4,0.29-0.72,0.57-0.96c0.28-0.24,0.61-0.41,0.97-0.52c0.36-0.1,0.73-0.14,1.1-0.11
		c0.37,0.03,0.7,0.11,0.98,0.24c0.29,0.13,0.5,0.32,0.65,0.55c0.15,0.23,0.17,0.51,0.07,0.83c-0.46-0.21-0.84-0.25-1.17-0.1
		c-0.32,0.14-0.54,0.33-0.64,0.57c-0.11,0.24-0.09,0.47,0.04,0.7c0.13,0.22,0.43,0.32,0.9,0.28c0.53-0.05,0.94-0.22,1.24-0.51
		c0.3-0.29,0.47-0.61,0.52-0.96c0.04-0.35-0.05-0.69-0.28-1.03c-0.23-0.34-0.61-0.59-1.12-0.77c-0.91-0.3-1.58-0.73-2.01-1.28
		c-0.43-0.56-0.59-1.13-0.49-1.69c0.1-0.57,0.47-1.08,1.1-1.53c0.63-0.45,1.55-0.72,2.76-0.84c1.06-0.1,1.9,0.01,2.52,0.32
		c0.62,0.31,0.88,0.77,0.76,1.39c-0.12,0.47-0.41,0.82-0.88,1.06c-0.47,0.24-0.95,0.36-1.43,0.37c-0.49,0-0.9-0.11-1.25-0.34
		c-0.35-0.23-0.43-0.58-0.27-1.04c0.49,0.18,0.89,0.21,1.19,0.1c0.3-0.11,0.49-0.26,0.57-0.45c0.08-0.19,0.03-0.36-0.14-0.53
		c-0.17-0.17-0.49-0.23-0.97-0.18c-0.43,0.04-0.79,0.18-1.06,0.4c-0.27,0.23-0.43,0.49-0.48,0.79c-0.05,0.3,0.03,0.61,0.25,0.91
		C209.56,10.95,209.95,11.19,210.51,11.37z"/>
	<path class="st0" d="M19.23,43.05c-0.57,0.4-1.18,0.48-1.84,0.26c-0.28-0.1-0.54-0.23-0.78-0.41c-0.24-0.18-0.42-0.4-0.53-0.68
		c-0.12-0.28-0.15-0.62-0.08-1.03c0.06-0.41,0.27-0.9,0.61-1.46c1.01-1.78,2.01-3.6,3.01-5.45c0.89,0.24,1.78,0.48,2.68,0.71
		c-0.45,0.86-0.87,1.65-1.24,2.38c-0.34,0.63-0.68,1.26-1,1.87c-0.32,0.61-0.57,1.06-0.73,1.36c-0.32,0.56-0.48,0.93-0.48,1.13
		c0,0.2,0.07,0.32,0.23,0.37c0.1,0.03,0.27-0.04,0.51-0.22c0.24-0.18,0.46-0.41,0.66-0.68c0.35-0.66,0.71-1.33,1.08-2.01
		c0.37-0.69,0.71-1.32,1-1.91c0.35-0.68,0.69-1.35,1.01-2.02c0.9,0.23,1.81,0.46,2.72,0.69c-0.46,0.94-0.92,1.89-1.41,2.85
		c-0.4,0.82-0.84,1.69-1.31,2.61c-0.47,0.93-0.93,1.79-1.38,2.6c-0.35,0.65-0.72,1.24-1.1,1.78c-0.39,0.54-0.83,0.97-1.32,1.31
		c-0.49,0.33-1.04,0.53-1.66,0.6c-0.62,0.06-1.31-0.05-2.09-0.35c-0.52-0.2-0.97-0.45-1.36-0.76c-0.39-0.3-0.69-0.62-0.89-0.96
		c-0.21-0.33-0.32-0.67-0.35-1.01c-0.03-0.34,0.06-0.65,0.27-0.94c0.29-0.43,0.69-0.64,1.22-0.63c0.53,0.01,1.02,0.13,1.48,0.38
		c0.46,0.25,0.8,0.58,1.03,0.99c0.23,0.42,0.18,0.81-0.13,1.18c-0.41-0.41-0.76-0.6-1.07-0.58c-0.31,0.02-0.53,0.12-0.67,0.31
		c-0.14,0.19-0.16,0.43-0.08,0.71c0.09,0.28,0.32,0.49,0.7,0.64c0.34,0.13,0.66,0.09,0.96-0.11c0.3-0.2,0.58-0.49,0.85-0.87
		c0.27-0.38,0.52-0.81,0.77-1.29C18.75,43.92,18.99,43.47,19.23,43.05z"/>
	<path class="st0" d="M39.91,39.3c-0.41,0.93-0.81,1.81-1.17,2.64c-0.31,0.7-0.63,1.39-0.94,2.07c-0.31,0.68-0.55,1.19-0.71,1.54
		c-0.31,0.65-0.44,1.08-0.4,1.29c0.04,0.21,0.14,0.36,0.3,0.44c0.22,0.11,0.51,0.12,0.89,0.01c0.37-0.11,0.7-0.38,0.99-0.81
		c0.14,0.03,0.28,0.07,0.43,0.1c-0.3,0.53-0.63,0.95-0.99,1.28c-0.36,0.32-0.73,0.56-1.11,0.73c-0.38,0.16-0.74,0.25-1.09,0.27
		c-0.35,0.02-0.65,0-0.91-0.07c-0.36-0.1-0.7-0.29-1.01-0.57c-0.3-0.28-0.45-0.72-0.43-1.32c-0.47,0.29-1,0.5-1.59,0.62
		c-0.59,0.12-1.17,0.1-1.71-0.05c-0.38-0.11-0.69-0.32-0.93-0.62c-0.24-0.3-0.36-0.69-0.37-1.16c-0.01-0.47,0.11-1.03,0.35-1.68
		c0.24-0.65,0.65-1.38,1.21-2.19c0.56-0.83,1.24-1.5,2.03-2.01c0.79-0.51,1.62-0.87,2.47-1.08c0.85-0.21,1.69-0.27,2.51-0.17
		C38.54,38.63,39.27,38.88,39.91,39.3z M33.97,45.7c0.09-0.26,0.21-0.54,0.36-0.84c0.78-1.66,1.55-3.34,2.32-5.04
		c-0.12-0.06-0.24-0.11-0.36-0.13c-0.32-0.07-0.67,0.03-1.05,0.29c-0.38,0.26-0.74,0.62-1.09,1.07c-0.35,0.45-0.69,0.94-1,1.47
		c-0.31,0.53-0.55,1.04-0.71,1.53c-0.16,0.49-0.24,0.91-0.22,1.26c0.01,0.35,0.15,0.56,0.42,0.63c0.2,0.05,0.43,0.05,0.69-0.03
		C33.58,45.83,33.8,45.76,33.97,45.7z"/>
	<path class="st0" d="M42.51,49.64c0-0.02,0.01-0.04,0.02-0.05c0.01-0.02,0.02-0.04,0.02-0.08c-0.44,0.23-0.9,0.39-1.38,0.49
		c-0.49,0.1-0.95,0.09-1.37-0.02c-0.41-0.1-0.73-0.3-0.96-0.61c-0.23-0.3-0.36-0.7-0.37-1.19c-0.01-0.5,0.09-1.09,0.32-1.79
		c0.23-0.7,0.62-1.48,1.18-2.36c0.56-0.9,1.23-1.63,2.01-2.2c0.78-0.57,1.59-0.98,2.43-1.23c0.84-0.25,1.68-0.35,2.5-0.28
		c0.82,0.07,1.56,0.31,2.2,0.72c-0.41,1.07-0.85,2.14-1.3,3.21c-0.38,0.94-0.8,1.95-1.25,3.02c-0.45,1.07-0.87,2.09-1.26,3.08
		c-0.34,0.78-0.7,1.5-1.09,2.15c-0.39,0.66-0.83,1.21-1.33,1.66c-0.5,0.44-1.05,0.75-1.67,0.92c-0.61,0.17-1.31,0.15-2.09-0.07
		c-0.53-0.15-1-0.36-1.4-0.65c-0.4-0.29-0.71-0.61-0.93-0.96c-0.22-0.35-0.35-0.72-0.38-1.1c-0.04-0.38,0.05-0.76,0.25-1.12
		c0.28-0.54,0.69-0.84,1.23-0.91c0.54-0.07,1.04,0,1.51,0.22c0.47,0.22,0.83,0.55,1.07,0.99c0.24,0.44,0.21,0.9-0.11,1.36
		c-0.42-0.4-0.79-0.57-1.11-0.51c-0.32,0.06-0.54,0.21-0.67,0.46c-0.13,0.25-0.15,0.52-0.06,0.83c0.09,0.3,0.33,0.51,0.74,0.63
		c0.35,0.09,0.67,0.01,0.97-0.27c0.3-0.27,0.58-0.64,0.84-1.11c0.26-0.47,0.51-1,0.75-1.57C42.04,50.7,42.28,50.16,42.51,49.64z
		 M41.92,48.27c0.2,0.05,0.43,0.03,0.69-0.06c0.26-0.09,0.47-0.16,0.64-0.22c0.23-0.54,0.47-1.09,0.72-1.66
		c0.25-0.57,0.48-1.13,0.72-1.7c0.23-0.56,0.45-1.09,0.66-1.58c0.21-0.49,0.39-0.93,0.54-1.32c-0.12-0.08-0.25-0.14-0.39-0.16
		c-0.3-0.06-0.64,0.06-1.02,0.35c-0.38,0.29-0.74,0.68-1.1,1.16c-0.36,0.49-0.69,1.01-0.99,1.58c-0.3,0.57-0.53,1.11-0.69,1.63
		c-0.16,0.52-0.24,0.96-0.23,1.32C41.48,47.99,41.63,48.2,41.92,48.27z"/>
	<path class="st0" d="M53.08,41.44c-0.17,0.43-0.35,0.86-0.53,1.28c0.92-0.42,1.83-0.86,2.74-1.3c-0.17,0.71-0.22,1.27-0.13,1.68
		c0.08,0.41,0.24,0.72,0.47,0.94c0.23,0.21,0.51,0.33,0.84,0.35c0.33,0.02,0.65-0.01,0.96-0.11c-0.7,0.67-1.37,1.15-2.01,1.42
		c-0.64,0.27-1.2,0.38-1.68,0.33c-0.48-0.05-0.87-0.26-1.16-0.63c-0.29-0.37-0.46-0.88-0.49-1.53c-1.11,2.8-2.24,5.57-3.37,8.3
		c-0.93-0.2-1.86-0.41-2.8-0.62c1.47-3.46,2.93-6.98,4.37-10.56C51.24,41.13,52.16,41.29,53.08,41.44z"/>
	<path class="st0" d="M64.17,43.32c-0.39,1.06-0.76,2.06-1.1,3c-0.29,0.8-0.59,1.58-0.88,2.37c-0.29,0.78-0.52,1.37-0.66,1.76
		c-0.29,0.75-0.42,1.23-0.37,1.46c0.05,0.23,0.15,0.38,0.32,0.44c0.22,0.1,0.52,0.07,0.89-0.09c0.37-0.16,0.7-0.49,0.98-1
		c0.14,0.02,0.29,0.04,0.43,0.07c-0.28,0.61-0.6,1.11-0.96,1.51c-0.36,0.4-0.72,0.7-1.1,0.92c-0.38,0.22-0.74,0.36-1.09,0.43
		c-0.35,0.07-0.66,0.08-0.92,0.03c-0.37-0.06-0.72-0.23-1.03-0.51c-0.32-0.27-0.47-0.74-0.47-1.4c-0.46,0.38-0.99,0.67-1.59,0.88
		c-0.6,0.21-1.17,0.26-1.73,0.15c-0.39-0.08-0.71-0.27-0.96-0.57c-0.25-0.3-0.39-0.72-0.41-1.24c-0.02-0.53,0.08-1.16,0.31-1.92
		c0.23-0.75,0.62-1.61,1.16-2.58c0.54-0.99,1.21-1.81,1.99-2.46c0.79-0.65,1.6-1.13,2.45-1.44c0.85-0.31,1.69-0.46,2.52-0.43
		C62.77,42.71,63.51,42.92,64.17,43.32z M58.37,50.96c0.08-0.3,0.2-0.62,0.34-0.97c0.74-1.92,1.47-3.85,2.19-5.8
		c-0.12-0.06-0.24-0.1-0.36-0.11c-0.33-0.05-0.67,0.1-1.05,0.42c-0.37,0.33-0.73,0.76-1.07,1.3c-0.34,0.54-0.67,1.11-0.97,1.73
		c-0.3,0.62-0.53,1.21-0.68,1.77c-0.15,0.56-0.21,1.03-0.19,1.42c0.03,0.39,0.17,0.6,0.44,0.65c0.2,0.04,0.44,0,0.69-0.11
		C57.99,51.15,58.2,51.05,58.37,50.96z"/>
	<path class="st0" d="M71.06,51.77c-0.29,0.78-0.4,1.28-0.35,1.51c0.05,0.23,0.17,0.38,0.35,0.45c0.22,0.09,0.51,0.05,0.85-0.13
		c0.34-0.18,0.65-0.54,0.92-1.06c0.18,0.02,0.35,0.04,0.53,0.06c-0.28,0.63-0.6,1.16-0.96,1.57c-0.36,0.42-0.73,0.74-1.11,0.98
		c-0.38,0.24-0.74,0.4-1.09,0.48c-0.35,0.08-0.66,0.1-0.93,0.07c-0.42-0.06-0.78-0.23-1.1-0.5c-0.32-0.28-0.48-0.76-0.49-1.44
		c-0.44,0.43-0.96,0.76-1.55,1c-0.6,0.24-1.18,0.31-1.76,0.22c-0.41-0.06-0.74-0.25-0.98-0.55c-0.24-0.3-0.38-0.72-0.41-1.26
		c-0.03-0.54,0.07-1.2,0.29-1.98c0.22-0.78,0.6-1.68,1.13-2.7c0.37-0.73,0.81-1.37,1.3-1.94c0.5-0.57,1.03-1.05,1.61-1.44
		c0.58-0.39,1.17-0.7,1.77-0.9c0.61-0.21,1.21-0.33,1.8-0.38c0.82-2.36,1.64-4.74,2.45-7.13c0.92,0.08,1.84,0.15,2.77,0.22
		c-0.84,2.51-1.6,4.8-2.28,6.85c-0.29,0.87-0.58,1.75-0.87,2.63c-0.3,0.88-0.57,1.68-0.82,2.41c-0.25,0.73-0.47,1.36-0.66,1.88
		C71.27,51.2,71.14,51.57,71.06,51.77z M67.89,52.38c0.05-0.16,0.09-0.32,0.13-0.48c0.04-0.15,0.09-0.32,0.17-0.5
		c0.71-1.98,1.42-3.98,2.13-5.99c-0.12-0.08-0.26-0.13-0.43-0.14c-0.33-0.04-0.68,0.12-1.04,0.47c-0.37,0.35-0.72,0.81-1.06,1.37
		c-0.34,0.56-0.65,1.17-0.95,1.81c-0.29,0.65-0.51,1.26-0.66,1.84c-0.15,0.58-0.2,1.07-0.17,1.47c0.03,0.39,0.18,0.61,0.45,0.65
		c0.23,0.03,0.48-0.02,0.77-0.16C67.52,52.58,67.74,52.47,67.89,52.38z"/>
	<path class="st0" d="M79.94,44.66c0.68,0.05,1.17,0.3,1.48,0.73c0.31,0.44,0.47,0.95,0.46,1.55c-0.01,0.6-0.16,1.23-0.45,1.9
		c-0.29,0.67-0.7,1.27-1.23,1.78c-0.53,0.52-1.15,0.91-1.88,1.18c-0.73,0.27-1.52,0.3-2.38,0.1c-0.09,0.81-0.06,1.5,0.1,2.08
		c0.16,0.58,0.54,0.9,1.12,0.96c0.69,0.07,1.34-0.08,1.97-0.46c0.63-0.38,1.19-0.84,1.69-1.36c0.56-0.6,1.08-1.3,1.56-2.09
		c0.17,0.01,0.33,0.03,0.5,0.04c-0.53,1.11-1.16,2.07-1.87,2.88c-0.3,0.36-0.64,0.71-1,1.03c-0.37,0.32-0.76,0.61-1.19,0.84
		c-0.43,0.24-0.88,0.42-1.37,0.54c-0.49,0.12-0.99,0.15-1.51,0.09c-0.98-0.11-1.72-0.5-2.22-1.16c-0.5-0.66-0.79-1.44-0.86-2.34
		c-0.07-0.9,0.04-1.85,0.33-2.87c0.29-1.02,0.75-1.94,1.38-2.77c0.62-0.83,1.39-1.5,2.29-2.02C77.77,44.79,78.79,44.57,79.94,44.66z
		 M79.26,45.52c-0.27-0.02-0.55,0.13-0.87,0.44c-0.31,0.32-0.61,0.74-0.9,1.25c-0.29,0.51-0.55,1.09-0.8,1.74
		c-0.24,0.64-0.44,1.28-0.59,1.91c0.35,0.16,0.69,0.15,1.04-0.04c0.35-0.19,0.68-0.48,0.98-0.88c0.3-0.39,0.57-0.84,0.81-1.34
		c0.24-0.5,0.41-0.98,0.52-1.43c0.11-0.46,0.15-0.84,0.13-1.16C79.58,45.7,79.46,45.53,79.26,45.52z"/>
	<path class="st0" d="M88.28,47.42c-0.13,0.1-0.2,0.23-0.23,0.4c-0.03,0.16-0.02,0.32,0.02,0.46c0.04,0.14,0.11,0.27,0.21,0.37
		c0.1,0.1,0.21,0.16,0.34,0.17c0.16,0.01,0.29-0.12,0.37-0.37c0.08-0.26,0.1-0.55,0.07-0.87c-0.04-0.32-0.15-0.62-0.35-0.89
		c-0.2-0.27-0.49-0.42-0.88-0.44c-0.47-0.03-0.91,0.18-1.31,0.63c-0.4,0.45-0.75,1.01-1.05,1.7c-0.3,0.69-0.53,1.44-0.7,2.24
		c-0.17,0.81-0.25,1.56-0.24,2.27c0.01,0.71,0.11,1.31,0.31,1.79c0.19,0.48,0.51,0.74,0.95,0.78c0.69,0.05,1.34-0.13,1.95-0.53
		c0.61-0.41,1.17-0.87,1.66-1.39c0.55-0.6,1.07-1.31,1.54-2.12c0.18,0.01,0.35,0.02,0.53,0.03c-0.5,1.14-1.1,2.13-1.81,2.96
		c-0.3,0.38-0.63,0.73-0.99,1.07c-0.36,0.34-0.76,0.64-1.18,0.89c-0.42,0.26-0.88,0.45-1.36,0.59c-0.48,0.14-1,0.19-1.54,0.14
		c-0.98-0.08-1.73-0.45-2.23-1.11c-0.51-0.66-0.81-1.44-0.89-2.35c-0.08-0.91,0.02-1.88,0.3-2.92c0.28-1.04,0.73-1.99,1.35-2.85
		c0.62-0.86,1.37-1.56,2.27-2.11c0.9-0.55,1.92-0.8,3.07-0.74c0.59,0.03,1.07,0.19,1.44,0.49c0.36,0.29,0.61,0.65,0.75,1.07
		c0.13,0.42,0.17,0.87,0.09,1.34c-0.07,0.47-0.24,0.91-0.49,1.31c-0.26,0.4-0.59,0.73-1,0.98c-0.41,0.25-0.89,0.36-1.45,0.32
		c-0.62-0.04-1.04-0.26-1.26-0.67c-0.22-0.41-0.28-0.84-0.2-1.29c0.09-0.45,0.31-0.83,0.67-1.14
		C87.33,47.34,87.77,47.26,88.28,47.42z"/>
	<path class="st0" d="M96.99,45.59c0.68,0.02,1.18,0.24,1.5,0.67c0.32,0.43,0.49,0.95,0.49,1.55c0,0.61-0.13,1.26-0.41,1.96
		c-0.28,0.7-0.67,1.33-1.19,1.89c-0.52,0.56-1.13,1-1.85,1.31c-0.72,0.32-1.52,0.4-2.38,0.25c-0.08,0.83-0.03,1.54,0.15,2.12
		c0.18,0.58,0.56,0.88,1.14,0.91c0.69,0.03,1.34-0.17,1.96-0.6c0.62-0.43,1.17-0.93,1.66-1.48c0.55-0.65,1.05-1.38,1.52-2.21
		c0.17,0,0.33,0.01,0.5,0.01c-0.51,1.16-1.11,2.17-1.81,3.04c-0.3,0.39-0.62,0.76-0.98,1.11c-0.36,0.35-0.75,0.66-1.17,0.93
		c-0.42,0.27-0.87,0.48-1.36,0.64c-0.48,0.16-0.99,0.22-1.51,0.2c-0.98-0.05-1.73-0.4-2.25-1.04c-0.52-0.65-0.82-1.43-0.92-2.34
		c-0.09-0.92,0-1.9,0.27-2.96c0.27-1.06,0.71-2.03,1.32-2.92c0.6-0.88,1.36-1.61,2.25-2.2C94.82,45.83,95.84,45.55,96.99,45.59z
		 M96.33,46.49c-0.27-0.01-0.55,0.16-0.86,0.5c-0.3,0.34-0.59,0.78-0.87,1.32c-0.28,0.54-0.53,1.15-0.76,1.82
		c-0.23,0.67-0.41,1.34-0.55,1.99c0.35,0.15,0.7,0.11,1.04-0.1c0.35-0.22,0.67-0.54,0.96-0.95c0.3-0.42,0.56-0.89,0.78-1.41
		c0.22-0.52,0.39-1.02,0.48-1.49c0.1-0.47,0.14-0.87,0.11-1.19C96.65,46.66,96.53,46.5,96.33,46.49z"/>
	<path class="st0" d="M106.51,45.87c0.51-1.81,1.03-3.63,1.53-5.44c0.92,0,1.84-0.01,2.76-0.02c-0.15,0.55-0.3,1.11-0.45,1.66
		c-0.14,0.51-0.3,1.09-0.47,1.75c-0.17,0.65-0.36,1.34-0.56,2.04c0.65,0,1.29-0.01,1.94-0.02c0,0.5,0.01,1,0.01,1.49
		c-0.78,0.01-1.56,0.02-2.35,0.02c-0.5,1.79-1,3.59-1.51,5.38c-0.35,1.13-0.52,1.98-0.51,2.54c0.01,0.56,0.18,0.85,0.52,0.85
		c0.31,0,0.65-0.21,1.01-0.63c0.36-0.42,0.72-0.92,1.06-1.48c0.34-0.57,0.65-1.13,0.93-1.7c0.28-0.57,0.48-0.99,0.6-1.28
		c0.17,0,0.33,0,0.5-0.01c-0.18,0.53-0.46,1.22-0.83,2.05c-0.37,0.83-0.8,1.64-1.28,2.4c-0.49,0.77-1.01,1.43-1.57,1.98
		c-0.56,0.55-1.14,0.83-1.72,0.83c-0.94,0-1.57-0.48-1.89-1.44c-0.32-0.95-0.21-2.32,0.31-4.11c0.52-1.79,1.04-3.58,1.56-5.37
		c-0.37,0-0.74,0-1.11,0c0-0.5,0-1,0-1.49C105.48,45.86,106,45.86,106.51,45.87z"/>
	<path class="st0" d="M116.54,53.81c-0.12,0.42-0.2,0.76-0.24,1.02c-0.04,0.26-0.04,0.46-0.01,0.6c0.03,0.14,0.09,0.24,0.16,0.29
		c0.07,0.05,0.15,0.09,0.24,0.11c0.19,0.06,0.46-0.03,0.82-0.28c0.36-0.25,0.66-0.66,0.9-1.24c0.17-0.01,0.33-0.01,0.5-0.02
		c-0.26,0.7-0.56,1.29-0.89,1.77c-0.34,0.49-0.68,0.89-1.03,1.2c-0.35,0.31-0.7,0.54-1.04,0.68c-0.34,0.15-0.66,0.22-0.95,0.23
		c-0.21,0.01-0.41-0.02-0.61-0.08c-0.2-0.06-0.38-0.17-0.54-0.32c-0.16-0.15-0.28-0.36-0.36-0.62c-0.09-0.26-0.13-0.6-0.13-1.02
		c-0.35,0.69-0.71,1.22-1.08,1.58c-0.37,0.36-0.8,0.54-1.28,0.55c-0.27,0-0.54-0.05-0.8-0.17c-0.26-0.12-0.47-0.33-0.61-0.64
		c-0.15-0.31-0.22-0.74-0.22-1.31c0-0.56,0.12-1.29,0.37-2.18c0.77-2.75,1.53-5.5,2.28-8.25c0.92-0.01,1.85-0.03,2.77-0.05
		c-0.34,1.24-0.64,2.4-0.92,3.47c-0.26,0.93-0.51,1.86-0.75,2.77c-0.24,0.91-0.42,1.59-0.55,2.03c-0.24,0.84-0.34,1.39-0.29,1.65
		c0.05,0.25,0.13,0.38,0.24,0.38c0.12,0,0.3-0.19,0.54-0.58c0.24-0.38,0.44-0.79,0.6-1.24c0.02-0.08,0.04-0.16,0.06-0.23
		c0.78-2.76,1.54-5.52,2.3-8.27c0.92-0.02,1.85-0.05,2.77-0.09c-0.33,1.25-0.64,2.4-0.94,3.47c-0.26,0.93-0.51,1.86-0.75,2.77
		C116.84,52.68,116.66,53.36,116.54,53.81z"/>
	<path class="st0" d="M130.42,47.11c-0.12,0.12-0.19,0.26-0.2,0.42c-0.01,0.17,0,0.32,0.04,0.45c0.05,0.14,0.12,0.25,0.23,0.34
		c0.11,0.09,0.22,0.13,0.35,0.12c0.16-0.01,0.28-0.15,0.34-0.42c0.06-0.27,0.07-0.55,0.02-0.87c-0.05-0.31-0.18-0.59-0.4-0.84
		c-0.21-0.25-0.52-0.35-0.9-0.33c-0.47,0.03-0.9,0.3-1.27,0.79c-0.38,0.49-0.7,1.11-0.95,1.83c-0.26,0.73-0.45,1.51-0.57,2.33
		c-0.12,0.83-0.16,1.6-0.11,2.31c0.05,0.71,0.18,1.29,0.41,1.74c0.22,0.45,0.55,0.67,0.99,0.63c0.69-0.05,1.32-0.33,1.91-0.82
		c0.59-0.49,1.11-1.03,1.57-1.62c0.52-0.67,0.99-1.44,1.41-2.31c0.18-0.02,0.35-0.03,0.53-0.05c-0.43,1.19-0.98,2.25-1.63,3.17
		c-0.28,0.42-0.59,0.82-0.93,1.21c-0.34,0.39-0.72,0.74-1.12,1.06c-0.41,0.32-0.85,0.58-1.32,0.79c-0.47,0.21-0.98,0.34-1.52,0.38
		c-0.98,0.07-1.74-0.18-2.29-0.76c-0.55-0.58-0.89-1.32-1.02-2.23c-0.13-0.9-0.09-1.9,0.14-2.99c0.22-1.09,0.62-2.1,1.18-3.05
		c0.56-0.94,1.28-1.74,2.15-2.41c0.87-0.66,1.87-1.03,3.02-1.11c0.6-0.04,1.08,0.06,1.46,0.3c0.38,0.24,0.64,0.57,0.8,0.96
		c0.16,0.4,0.21,0.84,0.17,1.31c-0.05,0.47-0.18,0.92-0.42,1.35c-0.23,0.43-0.55,0.8-0.94,1.1c-0.39,0.3-0.87,0.48-1.43,0.52
		c-0.62,0.05-1.05-0.12-1.29-0.5c-0.24-0.38-0.33-0.8-0.27-1.26c0.06-0.46,0.26-0.87,0.6-1.22
		C129.47,47.14,129.9,47.02,130.42,47.11z"/>
	<path class="st0" d="M138.46,44.27c0.78-0.07,1.39,0.02,1.83,0.29c0.44,0.27,0.76,0.66,0.95,1.19c0.19,0.53,0.26,1.16,0.21,1.9
		c-0.05,0.74-0.17,1.54-0.36,2.4c-0.21,0.86-0.51,1.68-0.92,2.47c-0.4,0.79-0.86,1.48-1.36,2.09c-0.51,0.61-1.04,1.1-1.61,1.47
		c-0.57,0.38-1.14,0.59-1.7,0.65c-0.79,0.08-1.41-0.01-1.86-0.28c-0.45-0.27-0.76-0.68-0.95-1.22c-0.19-0.54-0.25-1.18-0.19-1.94
		c0.06-0.75,0.19-1.56,0.38-2.43c0.2-0.86,0.5-1.69,0.89-2.47c0.39-0.78,0.84-1.47,1.35-2.06c0.5-0.59,1.04-1.07,1.61-1.44
		C137.32,44.53,137.89,44.32,138.46,44.27z M135.95,55.32c0.25-0.03,0.5-0.28,0.77-0.76c0.26-0.48,0.51-1.08,0.76-1.8
		c0.24-0.71,0.45-1.47,0.64-2.28c0.18-0.81,0.31-1.55,0.39-2.25c0.07-0.7,0.08-1.27,0.02-1.71c-0.06-0.45-0.22-0.66-0.49-0.63
		c-0.27,0.03-0.53,0.28-0.8,0.75c-0.27,0.48-0.52,1.07-0.75,1.79c-0.23,0.71-0.43,1.47-0.6,2.28c-0.17,0.81-0.28,1.56-0.35,2.26
		c-0.07,0.7-0.07,1.27-0.01,1.72C135.58,55.13,135.72,55.34,135.95,55.32z"/>
	<path class="st0" d="M146.88,45.59c-0.16,0.02-0.33,0.14-0.51,0.36c-0.17,0.22-0.33,0.5-0.48,0.82c-0.15,0.33-0.29,0.69-0.44,1.09
		c-0.15,0.4-0.28,0.79-0.41,1.16c-0.54,2.3-1.08,4.6-1.62,6.92c-0.94,0.13-1.89,0.25-2.83,0.36c1-4.21,1.99-8.4,2.95-12.56
		c0.93-0.1,1.86-0.21,2.79-0.31c-0.16,0.68-0.32,1.37-0.48,2.06c0.38-0.64,0.79-1.17,1.23-1.59c0.44-0.42,0.92-0.67,1.46-0.73
		c0.65-0.08,1.07,0.11,1.25,0.57c0.18,0.46,0.22,1.05,0.12,1.78c-0.1,0.73-0.28,1.53-0.54,2.42c-0.26,0.89-0.5,1.71-0.72,2.45
		c-0.22,0.75-0.36,1.37-0.41,1.86c-0.05,0.49,0.08,0.72,0.41,0.67c0.16-0.02,0.42-0.16,0.77-0.4c0.35-0.24,0.63-0.65,0.85-1.23
		c0.14-0.02,0.29-0.04,0.43-0.07c-0.21,0.68-0.47,1.27-0.77,1.77c-0.31,0.5-0.63,0.92-0.98,1.25c-0.34,0.34-0.69,0.59-1.02,0.77
		c-0.33,0.18-0.64,0.29-0.91,0.33c-0.7,0.1-1.16-0.07-1.37-0.53c-0.21-0.46-0.28-1.05-0.22-1.79c0.07-0.73,0.22-1.54,0.47-2.42
		c0.24-0.88,0.47-1.69,0.7-2.44c0.22-0.75,0.38-1.37,0.47-1.87C147.17,45.8,147.11,45.56,146.88,45.59z"/>
	<path class="st0" d="M160.15,49.11c-0.09,0.41-0.16,0.73-0.18,0.97c-0.03,0.24-0.02,0.42,0.02,0.55c0.04,0.12,0.1,0.21,0.17,0.24
		c0.07,0.04,0.15,0.06,0.24,0.06c0.19,0.02,0.46-0.1,0.8-0.38c0.34-0.28,0.62-0.7,0.83-1.27c0.14-0.03,0.29-0.06,0.43-0.08
		c-0.2,0.67-0.45,1.25-0.74,1.74c-0.3,0.5-0.61,0.91-0.94,1.25c-0.33,0.34-0.67,0.61-1.01,0.79c-0.34,0.19-0.65,0.31-0.94,0.37
		c-0.27,0.05-0.53,0.04-0.78-0.02c-0.25-0.07-0.47-0.23-0.64-0.48c-0.17-0.26-0.27-0.65-0.3-1.17c-0.03-0.52,0.06-1.21,0.25-2.07
		c0.25-1.06,0.5-2.12,0.75-3.18c-0.48,0.51-0.95,0.89-1.4,1.13c-0.45,0.24-0.86,0.35-1.23,0.34c-0.37-0.01-0.69-0.15-0.94-0.41
		c-0.25-0.26-0.43-0.65-0.52-1.18c-0.27,1.29-0.55,2.58-0.83,3.87c-0.28,1.29-0.54,2.46-0.77,3.5c-0.28,1.22-0.53,2.39-0.76,3.52
		c-0.96,0.16-1.93,0.32-2.89,0.48c0.54-2.45,1.06-4.79,1.57-7.03c0.21-0.95,0.43-1.93,0.65-2.92c0.22-0.99,0.44-1.96,0.65-2.88
		c0.21-0.93,0.41-1.79,0.6-2.6c0.19-0.81,0.34-1.5,0.47-2.07c0.25-1.17,0.59-2.15,1.01-2.93c0.42-0.78,0.88-1.4,1.39-1.86
		c0.51-0.46,1.05-0.8,1.64-1c0.58-0.21,1.18-0.32,1.79-0.33c1.09-0.04,1.96,0.16,2.59,0.58c0.63,0.43,1.05,0.93,1.24,1.5
		c0.2,0.57,0.17,1.15-0.08,1.72c-0.25,0.57-0.73,0.96-1.43,1.17c-0.4,0.12-0.75,0.13-1.06,0.02c-0.3-0.11-0.55-0.29-0.73-0.53
		c-0.18-0.25-0.29-0.54-0.34-0.87c-0.05-0.33-0.02-0.64,0.09-0.94c0.1-0.3,0.29-0.56,0.56-0.78c0.27-0.22,0.63-0.36,1.1-0.42
		c-0.48-0.5-1.11-0.7-1.87-0.6c-0.68,0.09-1.28,0.47-1.78,1.14c-0.5,0.67-0.87,1.48-1.09,2.44c-0.05,0.17-0.12,0.46-0.2,0.86
		c-0.09,0.4-0.19,0.89-0.3,1.46c-0.12,0.57-0.25,1.22-0.41,1.93c-0.16,0.72-0.32,1.46-0.47,2.23c0.8-0.71,1.6-1.42,2.39-2.12
		c-0.04,0.56-0.02,1.02,0.06,1.36c0.09,0.35,0.2,0.62,0.35,0.81c0.15,0.19,0.33,0.31,0.55,0.36c0.22,0.05,0.44,0.05,0.67,0.01
		c0.29-1.24,0.57-2.47,0.85-3.69c0.91-0.14,1.83-0.29,2.74-0.44c-0.26,1.17-0.51,2.27-0.74,3.28c-0.2,0.89-0.4,1.77-0.6,2.64
		C160.39,48.03,160.24,48.68,160.15,49.11z"/>
	<path class="st0" d="M171.13,39.86c-0.23,1.08-0.45,2.1-0.66,3.06c-0.18,0.82-0.35,1.64-0.53,2.45c-0.18,0.81-0.32,1.43-0.4,1.84
		c-0.18,0.79-0.23,1.28-0.15,1.47c0.08,0.19,0.2,0.29,0.37,0.29c0.23,0.01,0.51-0.13,0.85-0.42c0.34-0.28,0.61-0.7,0.81-1.26
		c0.14-0.03,0.28-0.06,0.43-0.1c-0.19,0.65-0.43,1.22-0.72,1.71c-0.29,0.49-0.6,0.91-0.94,1.25c-0.33,0.34-0.66,0.61-0.99,0.81
		c-0.33,0.2-0.62,0.32-0.89,0.38c-0.37,0.08-0.73,0.06-1.07-0.07c-0.34-0.13-0.56-0.51-0.65-1.13c-0.39,0.53-0.87,1-1.42,1.43
		c-0.55,0.43-1.1,0.7-1.66,0.82c-0.39,0.08-0.73,0.03-1.01-0.17c-0.29-0.2-0.48-0.54-0.58-1.04c-0.1-0.5-0.09-1.16,0.03-1.97
		c0.12-0.81,0.37-1.78,0.76-2.91c0.39-1.14,0.92-2.15,1.59-3.02s1.4-1.59,2.19-2.15c0.79-0.56,1.58-0.95,2.39-1.18
		C169.69,39.74,170.44,39.7,171.13,39.86z M166.57,48.84c0.04-0.31,0.1-0.65,0.2-1.03c0.45-2.06,0.89-4.1,1.32-6.13
		c-0.12-0.01-0.25-0.01-0.37,0.01c-0.32,0.06-0.64,0.3-0.96,0.73c-0.31,0.43-0.6,0.95-0.86,1.57c-0.26,0.62-0.49,1.27-0.69,1.96
		c-0.2,0.69-0.34,1.33-0.41,1.91c-0.07,0.59-0.06,1.06,0.02,1.41c0.08,0.36,0.25,0.51,0.52,0.45c0.2-0.04,0.42-0.16,0.66-0.36
		C166.22,49.17,166.41,48.99,166.57,48.84z"/>
	<path class="st0" d="M176.43,40.52c-0.16,0.04-0.32,0.16-0.49,0.38c-0.16,0.22-0.32,0.48-0.45,0.79c-0.14,0.31-0.27,0.65-0.4,1.02
		c-0.13,0.38-0.25,0.74-0.36,1.09c-0.45,2.13-0.91,4.27-1.37,6.43c-0.93,0.23-1.85,0.46-2.78,0.68c0.85-3.95,1.68-7.85,2.5-11.7
		c0.92-0.18,1.83-0.37,2.75-0.56c-0.14,0.63-0.27,1.26-0.41,1.89c0.35-0.61,0.74-1.13,1.16-1.55c0.42-0.42,0.89-0.69,1.41-0.8
		c0.64-0.14,1.06-0.01,1.25,0.38c0.19,0.39,0.25,0.91,0.17,1.57c-0.08,0.66-0.23,1.39-0.46,2.21c-0.23,0.82-0.44,1.58-0.63,2.27
		c-0.19,0.69-0.31,1.26-0.35,1.71c-0.04,0.45,0.1,0.63,0.43,0.55c0.16-0.04,0.41-0.19,0.75-0.45c0.34-0.26,0.6-0.66,0.8-1.2
		c0.14-0.04,0.28-0.07,0.42-0.11c-0.18,0.63-0.42,1.19-0.7,1.67c-0.28,0.48-0.59,0.89-0.92,1.24c-0.33,0.35-0.66,0.62-0.98,0.82
		c-0.32,0.2-0.62,0.34-0.88,0.41c-0.69,0.18-1.15,0.08-1.37-0.31c-0.22-0.39-0.31-0.91-0.27-1.58c0.04-0.67,0.17-1.41,0.38-2.23
		c0.21-0.82,0.42-1.57,0.61-2.27c0.19-0.69,0.33-1.27,0.41-1.72C176.72,40.68,176.65,40.48,176.43,40.52z"/>
	<path class="st0" d="M184.87,42.93c0.1,0.58,0.27,1.04,0.49,1.4c0.23,0.36,0.51,0.49,0.85,0.39c0.22-0.06,0.48-0.22,0.79-0.48
		c0.3-0.25,0.55-0.64,0.74-1.17c0.14-0.04,0.28-0.08,0.42-0.12c-0.18,0.61-0.41,1.15-0.69,1.63c-0.28,0.47-0.58,0.88-0.89,1.22
		c-0.32,0.34-0.63,0.61-0.96,0.82c-0.32,0.21-0.62,0.35-0.9,0.43c-0.45,0.13-0.84,0.11-1.2-0.08c-0.35-0.19-0.65-0.52-0.88-0.99
		c-0.83,0.82-1.66,1.64-2.49,2.46c-0.45,0.12-0.89,0.25-1.34,0.37c2.27-3.49,4.51-6.91,6.73-10.22c-0.51,0.26-0.97,0.42-1.4,0.49
		c-0.42,0.07-0.83,0.15-1.21,0.24c-0.38,0.09-0.73,0.25-1.06,0.48c-0.33,0.23-0.65,0.62-0.96,1.18c0.48-1.14,0.97-2.02,1.49-2.63
		c0.51-0.61,1.01-1.06,1.49-1.34c0.48-0.29,0.95-0.46,1.42-0.53c0.46-0.07,0.9-0.11,1.31-0.13c0.41-0.02,0.78-0.06,1.12-0.13
		c0.34-0.07,0.64-0.24,0.89-0.52c-2.13,3.12-4.28,6.34-6.46,9.65C183.08,44.55,183.98,43.74,184.87,42.93z"/>
	<path class="st0" d="M196.49,33.87c-0.21,0.95-0.4,1.85-0.58,2.71c-0.15,0.73-0.31,1.45-0.46,2.18c-0.16,0.73-0.28,1.27-0.35,1.64
		c-0.16,0.71-0.2,1.14-0.12,1.29c0.08,0.16,0.2,0.22,0.37,0.2c0.23-0.02,0.5-0.18,0.83-0.47c0.33-0.29,0.58-0.68,0.77-1.19
		c0.14-0.05,0.28-0.09,0.42-0.14c-0.17,0.58-0.4,1.11-0.67,1.56c-0.28,0.46-0.57,0.86-0.89,1.2c-0.32,0.34-0.64,0.62-0.96,0.83
		c-0.32,0.21-0.61,0.36-0.87,0.45c-0.36,0.12-0.71,0.15-1.05,0.07c-0.34-0.07-0.57-0.37-0.67-0.9c-0.37,0.51-0.83,0.98-1.36,1.43
		c-0.53,0.45-1.07,0.75-1.61,0.92c-0.38,0.12-0.72,0.11-1-0.03c-0.29-0.14-0.48-0.42-0.6-0.85c-0.11-0.43-0.12-1.01-0.03-1.74
		c0.09-0.73,0.32-1.62,0.68-2.65c0.35-1.05,0.85-1.99,1.5-2.83c0.64-0.84,1.34-1.53,2.1-2.1c0.76-0.57,1.54-0.99,2.33-1.27
		C195.07,33.91,195.81,33.81,196.49,33.87z M192.21,42.17c0.03-0.27,0.08-0.58,0.17-0.92c0.39-1.85,0.77-3.67,1.16-5.48
		c-0.12,0-0.24,0.02-0.36,0.05c-0.32,0.09-0.63,0.33-0.93,0.74c-0.3,0.4-0.57,0.89-0.81,1.46c-0.24,0.57-0.45,1.17-0.64,1.79
		c-0.18,0.63-0.3,1.2-0.35,1.72c-0.05,0.52-0.04,0.94,0.05,1.24c0.09,0.3,0.26,0.41,0.52,0.33c0.2-0.06,0.41-0.19,0.64-0.4
		C191.87,42.49,192.06,42.32,192.21,42.17z"/>
</g>
</svg>
