<?xml version="1.0" encoding="utf-8"?>
<!-- Generator: Adobe Illustrator 25.0.0, SVG Export Plug-In . SVG Version: 6.00 Build 0)  -->
<svg version="1.1" id="Capa_1" xmlns="http://www.w3.org/2000/svg" xmlns:xlink="http://www.w3.org/1999/xlink" x="0px" y="0px"
	 viewBox="0 0 699.6 504.6" style="enable-background:new 0 0 699.6 504.6;" xml:space="preserve">
<style type="text/css">
	.st0{clip-path:url(#SVGID_2_);}
	.st1{opacity:0.5;}
	.st2{fill:#FFFFFF;}
	.st3{fill:#DD4B4B;}
</style>
<g>
	<g>
		<g>
			<g>
				<defs>
					<rect id="SVGID_1_" y="0" width="699.6" height="504.6"/>
				</defs>
				<clipPath id="SVGID_2_">
					<use xlink:href="#SVGID_1_"  style="overflow:visible;"/>
				</clipPath>
				<g class="st0">
					<g class="st1">
						<path class="st2" d="M136.5,193.6c-0.8,0-0.8,1.3,0,1.3C137.3,194.8,137.3,193.6,136.5,193.6z"/>
						<path class="st2" d="M425.9,214.4c-0.8,0-0.8,1.3,0,1.3S426.6,214.4,425.9,214.4z"/>
						<path class="st2" d="M512.9,139.7c-0.8,0-0.8,1.3,0,1.3S513.7,139.7,512.9,139.7z"/>
						<path class="st2" d="M681.5,304.6c-0.8,0-0.8,1.3,0,1.3S682.2,304.6,681.5,304.6z"/>
						<path class="st2" d="M657.2,394.7c-0.8,0-0.8,1.3,0,1.3S658,394.7,657.2,394.7z"/>
						<path class="st2" d="M680.2,466c-0.8,0-0.8,1.3,0,1.3S681,466,680.2,466z"/>
						<path class="st2" d="M582.6,400.8c-0.8,0-0.8,1.3,0,1.3S583.3,400.8,582.6,400.8z"/>
						<path class="st2" d="M598.8,324.1c-0.8,0-0.8,1.3,0,1.3C599.5,325.3,599.5,324.1,598.8,324.1z"/>
						<path class="st2" d="M496.8,360.4c-0.8,0-0.8,1.3,0,1.3S497.5,360.4,496.8,360.4z"/>
						<path class="st2" d="M383.6,359.7c-0.8,0-0.8,1.3,0,1.3C384.3,361,384.3,359.7,383.6,359.7z"/>
						<path class="st2" d="M252.4,343.6c-0.8,0-0.8,1.3,0,1.3S253.1,343.6,252.4,343.6z"/>
						<path class="st2" d="M263,273.6c-0.8,0-0.8,1.3,0,1.3C263.7,274.9,263.7,273.6,263,273.6z"/>
						<path class="st2" d="M174,281c-0.8,0-0.8,1.3,0,1.3C174.8,282.3,174.8,281,174,281z"/>
						<path class="st2" d="M166.6,328.1c-0.8,0-0.8,1.3,0,1.3S167.3,328.1,166.6,328.1z"/>
						<path class="st2" d="M102.5,369.8c-0.8,0-0.8,1.3,0,1.3C103.3,371.1,103.3,369.8,102.5,369.8z"/>
						<path class="st2" d="M98.2,464.7c-0.8,0-0.8,1.3,0,1.3S98.9,464.7,98.2,464.7z"/>
						<path class="st2" d="M18,484.2c-0.8,0-0.8,1.3,0,1.3S18.7,484.2,18,484.2z"/>
						<path class="st2" d="M158.5,454.6c-0.8,0-0.8,1.3,0,1.3S159.2,454.6,158.5,454.6z"/>
						<path class="st2" d="M312.1,445.2c-0.8,0-0.8,1.3,0,1.3C312.8,446.4,312.8,445.2,312.1,445.2z"/>
						<path class="st2" d="M341.9,487.5c-0.8,0-0.8,1.3,0,1.3S342.7,487.5,341.9,487.5z"/>
						<path class="st2" d="M389.8,486.2c-0.8,0-0.8,1.3,0,1.3S390.6,486.2,389.8,486.2z"/>
						<path class="st2" d="M442,484.9c-0.8,0-0.8,1.3,0,1.3S442.8,484.9,442,484.9z"/>
						<path class="st2" d="M528.5,511.1c-0.8,0-0.8,1.3,0,1.3S529.2,511.1,528.5,511.1z"/>
						<path class="st2" d="M499.9,522.5c-0.8,0-0.8,1.3,0,1.3C500.6,523.8,500.6,522.5,499.9,522.5z"/>
						<path class="st2" d="M201.4,530.6c-0.8,0-0.8,1.3,0,1.3S202.1,530.6,201.4,530.6z"/>
						<path class="st2" d="M125.5,515.1c-0.8,0-0.8,1.3,0,1.3C126.3,516.4,126.3,515.1,125.5,515.1z"/>
						<path class="st2" d="M36.6,325.4c-0.8,0-0.8,1.3,0,1.3C37.4,326.7,37.4,325.4,36.6,325.4z"/>
						<path class="st2" d="M39.7,155.9c-0.8,0-0.8,1.3,0,1.3S40.5,155.9,39.7,155.9z"/>
						<path class="st2" d="M103.1,140.1c0-0.1-0.1-0.1-0.1-0.2c-0.1-0.1-0.1-0.1-0.2-0.1c-0.1,0-0.1-0.1-0.2-0.1c-0.1,0-0.1,0-0.2,0
							c-0.1,0-0.2,0.1-0.3,0.2c-0.1,0.1-0.2,0.3-0.2,0.4v0.7c0,0.1,0,0.2,0.1,0.2c0,0.1,0.1,0.1,0.1,0.2c0.1,0.1,0.1,0.1,0.2,0.1
							c0.1,0,0.1,0.1,0.2,0.1c0.1,0,0.1,0,0.2,0c0.1,0,0.2-0.1,0.3-0.2c0.1-0.1,0.2-0.3,0.2-0.4v-0.7
							C103.1,140.3,103.1,140.2,103.1,140.1z"/>
						<path class="st2" d="M124.3,225.2c-0.8,0-0.8,1.3,0,1.3C125,226.4,125,225.2,124.3,225.2z"/>
						<path class="st2" d="M243.7,124.9c-0.8,0-0.8,1.3,0,1.3C244.4,126.2,244.4,124.9,243.7,124.9z"/>
						<path class="st2" d="M249.9,195.6c-0.8,0-0.8,1.3,0,1.3C250.6,196.8,250.6,195.6,249.9,195.6z"/>
						<path class="st2" d="M307.1,136.4c-0.8,0-0.8,1.3,0,1.3C307.9,137.6,307.9,136.4,307.1,136.4z"/>
						<path class="st2" d="M455.1,145.1c-0.8,0-0.8,1.3,0,1.3C455.9,146.4,455.9,145.1,455.1,145.1z"/>
						<path class="st2" d="M537.8,215.1c-0.8,0-0.8,1.3,0,1.3C538.6,216.4,538.6,215.1,537.8,215.1z"/>
						<path class="st2" d="M634.2,130.3c-0.8,0-0.8,1.3,0,1.3S634.9,130.3,634.2,130.3z"/>
						<path class="st2" d="M662.8,203c-0.8,0-0.8,1.3,0,1.3C663.5,204.2,663.5,203,662.8,203z"/>
						<path class="st2" d="M599.4,218.4c-0.8,0-0.8,1.3,0,1.3C600.1,219.7,600.1,218.4,599.4,218.4z"/>
						<path class="st2" d="M598.8,185.5c-0.8,0-0.8,1.3,0,1.3C599.5,186.7,599.5,185.5,598.8,185.5z"/>
						<path class="st2" d="M603.1,203.6c-0.8,0-0.8,1.3,0,1.3C603.8,204.9,603.8,203.6,603.1,203.6z"/>
						<path class="st2" d="M631.7,250.1c-0.8,0-0.8,1.3,0,1.3S632.5,250.1,631.7,250.1z"/>
						<path class="st2" d="M635.4,337.5c-0.8,0-0.8,1.3,0,1.3S636.2,337.5,635.4,337.5z"/>
						<path class="st2" d="M657.2,368.5c-0.8,0-0.8,1.3,0,1.3S658,368.5,657.2,368.5z"/>
						<path class="st2" d="M644.8,402.1c-0.8,0-0.8,1.3,0,1.3S645.5,402.1,644.8,402.1z"/>
						<path class="st2" d="M614.9,458.6c-0.8,0-0.8,1.3,0,1.3S615.7,458.6,614.9,458.6z"/>
						<path class="st2" d="M496.1,420.3c-0.8,0-0.8,1.3,0,1.3S496.9,420.3,496.1,420.3z"/>
						<path class="st2" d="M485.6,394.7c-0.8,0-0.8,1.3,0,1.3S486.3,394.7,485.6,394.7z"/>
						<path class="st2" d="M314,410.9c-0.8,0-0.8,1.3,0,1.3S314.7,410.9,314,410.9z"/>
						<path class="st2" d="M284.1,398.8c-0.8,0-0.8,1.3,0,1.3S284.9,398.8,284.1,398.8z"/>
						<path class="st2" d="M207.6,315.3c-0.8,0-0.8,1.3,0,1.3S208.4,315.3,207.6,315.3z"/>
						<path class="st2" d="M145.4,365.1c-0.8,0-0.8,1.3,0,1.3S146.2,365.1,145.4,365.1z"/>
						<path class="st2" d="M54,392.7c-0.8,0-0.8,1.3,0,1.3S54.8,392.7,54,392.7z"/>
						<path class="st2" d="M57.1,408.2c-0.8,0-0.8,1.3,0,1.3C57.9,409.4,57.9,408.2,57.1,408.2z"/>
						<path class="st2" d="M43.5,426.3c-0.8,0-0.8,1.3,0,1.3S44.2,426.3,43.5,426.3z"/>
						<path class="st2" d="M84.5,270.9c-0.8,0-0.8,1.3,0,1.3C85.2,272.2,85.2,270.9,84.5,270.9z"/>
						<path class="st2" d="M57.8,242.7c-0.8,0-0.8,1.3,0,1.3S58.5,242.7,57.8,242.7z"/>
						<path class="st2" d="M198.3,144.4c-0.8,0-0.8,1.3,0,1.3C199,145.7,199,144.4,198.3,144.4z"/>
						<path class="st2" d="M128.6,257.5c-1.5,0-1.5,2.5,0,2.5S130.1,257.5,128.6,257.5z"/>
						<path class="st2" d="M69.6,183.5c-1.5,0-1.5,2.5,0,2.5S71.1,183.5,69.6,183.5z"/>
						<path class="st2" d="M144.8,137.8c-1.5,0-1.5,2.5,0,2.5S146.3,137.8,144.8,137.8z"/>
						<path class="st2" d="M158.5,158.6c-1.5,0-1.5,2.5,0,2.5C160,161.1,160,158.6,158.5,158.6z"/>
						<path class="st2" d="M169.7,157.9c-1.5,0-1.5,2.5,0,2.5S171.2,157.9,169.7,157.9z"/>
						<path class="st2" d="M361.2,123c-1.5,0-1.5,2.5,0,2.5C362.7,125.5,362.7,123,361.2,123z"/>
						<path class="st2" d="M425.9,180.1c-1.5,0-1.5,2.5,0,2.5C427.4,182.7,427.4,180.1,425.9,180.1z"/>
						<path class="st2" d="M97.6,396.1c-1.5,0-1.5,2.5,0,2.5S99.1,396.1,97.6,396.1z"/>
						<path class="st2" d="M76.4,468.1c-1.5,0-1.5,2.5,0,2.5C77.9,470.6,77.9,468.1,76.4,468.1z"/>
						<path class="st2" d="M644.1,456.6c-1.5,0-1.5,2.5,0,2.5C645.6,459.2,645.6,456.6,644.1,456.6z"/>
						<path class="st2" d="M636.7,429.1c-1.5,0-1.5,2.5,0,2.5C638.2,431.6,638.2,429.1,636.7,429.1z"/>
						<path class="st2" d="M436.5,326.5c-1.5,0-1.5,2.5,0,2.5S438,326.5,436.5,326.5z"/>
						<path class="st2" d="M669.6,155.2c-1.5,0-1.5,2.5,0,2.5S671.1,155.2,669.6,155.2z"/>
						<path class="st2" d="M584.4,266.9c-1.5,0-1.5,2.5,0,2.5C585.9,269.5,586,266.9,584.4,266.9z"/>
						<path class="st2" d="M555.8,252.8c-1.5,0-1.5,2.5,0,2.5S557.3,252.8,555.8,252.8z"/>
						<path class="st2" d="M573.9,194.9c-1.5,0-1.5,2.5,0,2.5C575.4,197.5,575.4,194.9,573.9,194.9z"/>
						<path class="st2" d="M475.6,209.8c-3,0-3,5.1,0,5.1C478.6,214.9,478.6,209.8,475.6,209.8z"/>
						<path class="st2" d="M244.9,164.1c-3,0-3,5.1,0,5.1C247.9,169.1,247.9,164.1,244.9,164.1z"/>
						<path class="st2" d="M135.5,286.5c-3,0-3,5,0,5C138.5,291.6,138.5,286.5,135.5,286.5z"/>
						<path class="st2" d="M32.9,363.9c-3,0-3,5,0,5C35.9,368.9,35.9,363.9,32.9,363.9z"/>
						<path class="st2" d="M30.4,180.9c-3,0-3,5.1,0,5.1C33.4,185.9,33.4,180.9,30.4,180.9z"/>
						<path class="st2" d="M368,139.9c-3,0-3,5.1,0,5.1C371,144.9,371,139.9,368,139.9z"/>
						<path class="st2" d="M562.7,154.7c-3,0-3,5.1,0,5.1C565.7,159.7,565.7,154.7,562.7,154.7z"/>
						<path class="st2" d="M590.7,125.1c-3,0-3,5.1,0,5.1C593.7,130.1,593.7,125.1,590.7,125.1z"/>
						<path class="st2" d="M680.8,267c-3,0-3,5,0,5C683.8,272.1,683.8,267,680.8,267z"/>
						<path class="st2" d="M652.8,296.6c-3,0-3,5,0,5C655.8,301.7,655.8,296.6,652.8,296.6z"/>
						<path class="st2" d="M680.8,394.8c-3,0-3,5,0,5C683.8,399.9,683.8,394.8,680.8,394.8z"/>
						<path class="st2" d="M575.7,356.5c-3,0-3,5,0,5C578.7,361.5,578.7,356.5,575.7,356.5z"/>
						<path class="st2" d="M51.5,311.4c-3,0-3,5,0,5C54.5,316.5,54.5,311.4,51.5,311.4z"/>
						<path class="st2" d="M64,345c-3,0-3,5,0,5C67,350.1,67,345,64,345z"/>
						<path class="st2" d="M402.9,216.6c-3,0-3,5.1,0,5.1C405.9,221.6,405.9,216.6,402.9,216.6z"/>
						<path class="st2" d="M299,404.3c-3,0-3,5,0,5C302,409.3,302,404.3,299,404.3z"/>
						<path class="st2" d="M239.3,441.9c-3,0-3,5,0,5C242.3,447,242.3,441.9,239.3,441.9z"/>
						<path class="st2" d="M196.4,505.8c-3,0-3,5,0,5C199.4,510.9,199.4,505.8,196.4,505.8z"/>
						<path class="st2" d="M527.9,532.8c-3,0-3,5,0,5C530.9,537.8,530.9,532.8,527.9,532.8z"/>
						<path class="st2" d="M503.6,481.6c-3,0-3,5,0,5C506.6,486.7,506.6,481.6,503.6,481.6z"/>
						<path class="st2" d="M392.3,431.2c-3,0-3,5,0,5C395.3,436.2,395.3,431.2,392.3,431.2z"/>
						<path class="st2" d="M169.7,435.9c-3,0-3,5,0,5C172.7,440.9,172.7,435.9,169.7,435.9z"/>
						<path class="st2" d="M29.1,121.6c-0.8,0-0.8,1.3,0,1.3S29.9,121.6,29.1,121.6z"/>
						<path class="st2" d="M56.5,138.4c-0.8,0-0.8,1.3,0,1.3S57.3,138.4,56.5,138.4z"/>
						<path class="st2" d="M146.7,116.9c-0.8,0-0.8,1.3,0,1.3S147.4,116.9,146.7,116.9z"/>
						<path class="st2" d="M159.7,246c-0.8,0-0.8,1.3,0,1.3S160.5,246,159.7,246z"/>
						<path class="st2" d="M163.5,236.6c-0.8,0-0.8,1.3,0,1.3S164.2,236.6,163.5,236.6z"/>
						<path class="st2" d="M501.7,228.5c-0.8,0-0.8,1.3,0,1.3C502.5,229.8,502.5,228.5,501.7,228.5z"/>
						<path class="st2" d="M494.3,252.1c-0.8,0-0.8,1.3,0,1.3C495,253.4,495,252.1,494.3,252.1z"/>
						<path class="st2" d="M519.8,256.8c-0.8,0-0.8,1.3,0,1.3S520.5,256.8,519.8,256.8z"/>
						<path class="st2" d="M505.5,188.9c-0.8,0-0.8,1.3,0,1.3S506.2,188.9,505.5,188.9z"/>
						<path class="st2" d="M519.7,149.5c0-0.1-0.1-0.1-0.1-0.2c0-0.1-0.1-0.1-0.2-0.1c-0.1,0-0.1-0.1-0.2-0.1c0,0-0.1,0-0.2,0
							c-0.1,0-0.2,0.1-0.3,0.2c-0.1,0.1-0.2,0.3-0.2,0.4v0.7c0,0.1,0,0.2,0,0.2c0,0.1,0.1,0.1,0.1,0.2c0,0.1,0.1,0.1,0.2,0.1
							c0.1,0,0.1,0.1,0.2,0.1c0,0,0.1,0,0.2,0c0.1,0,0.2-0.1,0.3-0.2c0.1-0.1,0.2-0.3,0.2-0.4v-0.7
							C519.7,149.7,519.7,149.6,519.7,149.5z"/>
						<path class="st2" d="M443.9,238c-0.8,0-0.8,1.3,0,1.3S444.7,238,443.9,238z"/>
						<path class="st2" d="M156.6,344.9c-0.8,0-0.8,1.3,0,1.3S157.4,344.9,156.6,344.9z"/>
						<path class="st2" d="M622.4,361.8c-0.8,0-0.8,1.3,0,1.3S623.1,361.8,622.4,361.8z"/>
						<path class="st2" d="M555.2,351c-0.8,0-0.8,1.3,0,1.3C556,352.2,556,351,555.2,351z"/>
						<path class="st2" d="M559,330.1c-0.8,0-0.8,1.3,0,1.3S559.7,330.1,559,330.1z"/>
						<path class="st2" d="M554.6,306.6c-0.8,0-0.8,1.3,0,1.3S555.3,306.6,554.6,306.6z"/>
						<path class="st2" d="M142.9,406.8c-0.8,0-0.8,1.3,0,1.3C143.7,408.1,143.7,406.8,142.9,406.8z"/>
						<path class="st2" d="M181.5,402.8c-0.8,0-0.8,1.3,0,1.3S182.2,402.8,181.5,402.8z"/>
						<path class="st2" d="M186.5,417.6c-0.8,0-0.8,1.3,0,1.3C187.2,418.9,187.2,417.6,186.5,417.6z"/>
						<path class="st2" d="M182.7,420.3c-0.8,0-0.8,1.3,0,1.3S183.5,420.3,182.7,420.3z"/>
						<path class="st2" d="M65.8,494.3c-0.8,0-0.8,1.3,0,1.3S66.6,494.3,65.8,494.3z"/>
						<path class="st2" d="M27.3,513.8c-0.8,0-0.8,1.3,0,1.3S28,513.8,27.3,513.8z"/>
						<path class="st2" d="M10.5,449.9c-0.8,0-0.8,1.3,0,1.3S11.2,449.9,10.5,449.9z"/>
						<path class="st2" d="M48.4,386.6c-0.8,0-0.8,1.3,0,1.3C49.2,387.9,49.2,386.6,48.4,386.6z"/>
						<path class="st2" d="M-1.9,323.4c-0.8,0-0.8,1.3,0,1.3S-1.2,323.4-1.9,323.4z"/>
						<path class="st2" d="M14.8,285.5c0-0.1-0.1-0.3-0.3-0.4c-0.1-0.1-0.3-0.1-0.4-0.1c-0.1,0-0.3,0.1-0.4,0.3
							c-0.2,0.5-0.4,0.9-0.6,1.4c-0.1,0.1-0.1,0.3-0.1,0.5c0,0.1,0.1,0.3,0.3,0.4c0.1,0.1,0.3,0.1,0.4,0.1c0.1,0,0.3-0.1,0.4-0.3
							c0.2-0.5,0.4-0.9,0.6-1.4C14.8,285.9,14.8,285.7,14.8,285.5z"/>
						<path class="st2" d="M22.9,252.1c-0.8,0-0.8,1.3,0,1.3C23.7,253.4,23.7,252.1,22.9,252.1z"/>
						<path class="st2" d="M11.1,232.6c-0.8,0-0.8,1.3,0,1.3S11.9,232.6,11.1,232.6z"/>
						<path class="st2" d="M10.5,178.8c-0.8,0-0.8,1.3,0,1.3C11.2,180,11.2,178.8,10.5,178.8z"/>
						<path class="st2" d="M489.3,118.9c-0.8,0-0.8,1.3,0,1.3S490,118.9,489.3,118.9z"/>
						<path class="st2" d="M491.2,110.8c-0.8,0-0.8,1.3,0,1.3S491.9,110.8,491.2,110.8z"/>
						<path class="st2" d="M506.1,119.6c-0.8,0-0.8,1.3,0,1.3C506.8,120.8,506.8,119.6,506.1,119.6z"/>
						<path class="st2" d="M536.6,118.9c-0.8,0-0.8,1.3,0,1.3S537.3,118.9,536.6,118.9z"/>
						<path class="st2" d="M694.5,203c-0.8,0-0.8,1.3,0,1.3C695.3,204.2,695.3,203,694.5,203z"/>
						<path class="st2" d="M713.2,159.9c-0.8,0-0.8,1.3,0,1.3S713.9,159.9,713.2,159.9z"/>
						<path class="st2" d="M698.2,139.7c-0.8,0-0.8,1.3,0,1.3S699,139.7,698.2,139.7z"/>
						<path class="st2" d="M696.4,125.6c-0.8,0-0.8,1.3,0,1.3S697.1,125.6,696.4,125.6z"/>
						<path class="st2" d="M698.2,332.8c-0.8,0-0.8,1.3,0,1.3C699,334.1,699,332.8,698.2,332.8z"/>
						<path class="st2" d="M704.5,353.7c-0.8,0-0.8,1.3,0,1.3C705.2,354.9,705.2,353.7,704.5,353.7z"/>
						<path class="st2" d="M136.5-7.3c-0.8,0-0.8,1.3,0,1.3S137.3-7.3,136.5-7.3z"/>
						<path class="st2" d="M425.9,13.6c-0.8,0-0.8,1.3,0,1.3C426.6,14.9,426.6,13.6,425.9,13.6z"/>
						<path class="st2" d="M681.5,103.7c-0.8,0-0.8,1.3,0,1.3S682.2,103.7,681.5,103.7z"/>
						<path class="st2" d="M598.8,123.2c-0.8,0-0.8,1.3,0,1.3S599.5,123.2,598.8,123.2z"/>
						<path class="st2" d="M496.8,159.6c-0.8,0-0.8,1.3,0,1.3S497.5,159.6,496.8,159.6z"/>
						<path class="st2" d="M383.6,158.9c-0.8,0-0.8,1.3,0,1.3S384.3,158.9,383.6,158.9z"/>
						<path class="st2" d="M252.4,142.8c-0.8,0-0.8,1.3,0,1.3C253.1,144,253.1,142.8,252.4,142.8z"/>
						<path class="st2" d="M263,72.8c-0.8,0-0.8,1.3,0,1.3C263.7,74.1,263.7,72.8,263,72.8z"/>
						<path class="st2" d="M328.2,62.7c-0.8,0-0.8,1.3,0,1.3C329,64,329,62.7,328.2,62.7z"/>
						<path class="st2" d="M262.3,8.2c-0.8,0-0.8,1.3,0,1.3S263.1,8.2,262.3,8.2z"/>
						<path class="st2" d="M174,80.2c-0.8,0-0.8,1.3,0,1.3S174.8,80.2,174,80.2z"/>
						<path class="st2" d="M166.6,127.3c-0.8,0-0.8,1.3,0,1.3S167.3,127.3,166.6,127.3z"/>
						<path class="st2" d="M36.6,124.6c-0.8,0-0.8,1.3,0,1.3S37.4,124.6,36.6,124.6z"/>
						<path class="st2" d="M124.3,24.4c-0.8,0-0.8,1.3,0,1.3S125,24.4,124.3,24.4z"/>
						<path class="st2" d="M249.9-5.2c-0.8,0-0.8,1.3,0,1.3C250.6-4,250.6-5.2,249.9-5.2z"/>
						<path class="st2" d="M537.8,14.3c-0.8,0-0.8,1.3,0,1.3C538.6,15.5,538.6,14.3,537.8,14.3z"/>
						<path class="st2" d="M662.8,2.2c-0.8,0-0.8,1.3,0,1.3S663.5,2.2,662.8,2.2z"/>
						<path class="st2" d="M599.4,17.6c-0.8,0-0.8,1.3,0,1.3S600.1,17.6,599.4,17.6z"/>
						<path class="st2" d="M598.8-15.3c-0.8,0-0.8,1.3,0,1.3S599.5-15.3,598.8-15.3z"/>
						<path class="st2" d="M603.1,2.8c-0.8,0-0.8,1.3,0,1.3S603.8,2.8,603.1,2.8z"/>
						<path class="st2" d="M631.7,49.2c-0.8,0-0.8,1.3,0,1.3S632.5,49.2,631.7,49.2z"/>
						<path class="st2" d="M635.4,136.7c-0.8,0-0.8,1.3,0,1.3S636.2,136.7,635.4,136.7z"/>
						<path class="st2" d="M207.6,114.5c-0.8,0-0.8,1.3,0,1.3C208.4,115.8,208.4,114.5,207.6,114.5z"/>
						<path class="st2" d="M84.5,70.1c-0.8,0-0.8,1.3,0,1.3S85.2,70.1,84.5,70.1z"/>
						<path class="st2" d="M57.8,41.8c-0.8,0-0.8,1.3,0,1.3C58.5,43.1,58.5,41.8,57.8,41.8z"/>
						<path class="st2" d="M205.1,10.9c-0.8,0-0.8,1.3,0,1.3S205.9,10.9,205.1,10.9z"/>
						<path class="st2" d="M128.6,56.7c-1.5,0-1.5,2.5,0,2.5C130.1,59.2,130.1,56.7,128.6,56.7z"/>
						<path class="st2" d="M69.6-17.3c-1.5,0-1.5,2.5,0,2.5C71.1-14.8,71.1-17.3,69.6-17.3z"/>
						<path class="st2" d="M260.5,37.9c-1.5,0-1.5,2.5,0,2.5S262,37.9,260.5,37.9z"/>
						<path class="st2" d="M228.1,68.8c-1.5,0-1.5,2.5,0,2.5S229.6,68.8,228.1,68.8z"/>
						<path class="st2" d="M193.3,96.4c-1.5,0-1.5,2.5,0,2.5C194.8,98.9,194.8,96.4,193.3,96.4z"/>
						<path class="st2" d="M584.4,66.1c-1.5,0-1.5,2.5,0,2.5S586,66.1,584.4,66.1z"/>
						<path class="st2" d="M555.8,52c-1.5,0-1.5,2.5,0,2.5C557.3,54.5,557.3,52,555.8,52z"/>
						<path class="st2" d="M573.9-5.9c-1.5,0-1.5,2.5,0,2.5S575.4-5.9,573.9-5.9z"/>
						<path class="st2" d="M475.6,9c-3,0-3,5.1,0,5.1C478.6,14.1,478.6,9,475.6,9z"/>
						<path class="st2" d="M135.5,85.7c-3,0-3,5.1,0,5.1C138.5,90.8,138.5,85.7,135.5,85.7z"/>
						<path class="st2" d="M30.4-19.9c-3,0-3,5.1,0,5.1C33.4-14.9,33.4-19.9,30.4-19.9z"/>
						<path class="st2" d="M680.8,66.2c-3,0-3,5.1,0,5.1C683.8,71.2,683.8,66.2,680.8,66.2z"/>
						<path class="st2" d="M652.8,95.8c-3,0-3,5.1,0,5.1C655.8,100.8,655.8,95.8,652.8,95.8z"/>
						<path class="st2" d="M575.7,155.7c-3,0-3,5.1,0,5.1C578.7,160.7,578.7,155.7,575.7,155.7z"/>
						<path class="st2" d="M249.3,114c-3,0-3,5.1,0,5.1C252.3,119,252.3,114,249.3,114z"/>
						<path class="st2" d="M205.1,59.5c-3,0-3,5.1,0,5.1C208.1,64.5,208.1,59.5,205.1,59.5z"/>
						<path class="st2" d="M51.5,110.6c-3,0-3,5.1,0,5.1C54.5,115.6,54.5,110.6,51.5,110.6z"/>
						<path class="st2" d="M64,144.2c-3,0-3,5.1,0,5.1C67,149.3,67,144.2,64,144.2z"/>
						<path class="st2" d="M406.6,33.9c-3,0-3,5,0,5C409.6,39,409.6,33.9,406.6,33.9z"/>
						<path class="st2" d="M354.1,68.2c-3,0-3,5.1,0,5.1C357.1,73.3,357.1,68.2,354.1,68.2z"/>
						<path class="st2" d="M159.7,45.2c-0.8,0-0.8,1.3,0,1.3C160.5,46.5,160.5,45.2,159.7,45.2z"/>
						<path class="st2" d="M501.7,27.7c-0.8,0-0.8,1.3,0,1.3S502.5,27.7,501.7,27.7z"/>
						<path class="st2" d="M494.3,51.3c-0.8,0-0.8,1.3,0,1.3S495,51.3,494.3,51.3z"/>
						<path class="st2" d="M519.8,56c-0.8,0-0.8,1.3,0,1.3C520.5,57.2,520.5,56,519.8,56z"/>
						<path class="st2" d="M505.5-12c-0.8,0-0.8,1.3,0,1.3S506.2-12,505.5-12z"/>
						<path class="st2" d="M443.9,37.1c-0.8,0-0.8,1.3,0,1.3C444.7,38.4,444.7,37.1,443.9,37.1z"/>
						<path class="st2" d="M156.6,144.1c-0.8,0-0.8,1.3,0,1.3S157.4,144.1,156.6,144.1z"/>
						<path class="st2" d="M622.4,160.9c-0.8,0-0.8,1.3,0,1.3C623.1,162.2,623.1,160.9,622.4,160.9z"/>
						<path class="st2" d="M555.2,150.2c-0.8,0-0.8,1.3,0,1.3S556,150.2,555.2,150.2z"/>
						<path class="st2" d="M559,129.3c-0.8,0-0.8,1.3,0,1.3C559.7,130.6,559.7,129.3,559,129.3z"/>
						<path class="st2" d="M554.6,105.8c-0.8,0-0.8,1.3,0,1.3C555.3,107,555.3,105.8,554.6,105.8z"/>
						<path class="st2" d="M-1.9,122.6c-0.8,0-0.8,1.3,0,1.3C-1.2,123.8-1.2,122.6-1.9,122.6z"/>
						<path class="st2" d="M14.8,84.7c0-0.2-0.1-0.3-0.3-0.4c-0.1-0.1-0.3-0.1-0.4-0.1c-0.1,0.1-0.3,0.1-0.4,0.3
							c-0.2,0.4-0.4,0.9-0.6,1.3C13,86.1,13,86.2,13,86.4c0,0.2,0.1,0.3,0.3,0.4c0.1,0.1,0.3,0.1,0.4,0.1c0.1-0.1,0.3-0.1,0.4-0.3
							c0.2-0.4,0.4-0.9,0.6-1.3C14.8,85,14.8,84.9,14.8,84.7z"/>
						<path class="st2" d="M22.9,51.3c-0.8,0-0.8,1.3,0,1.3S23.7,51.3,22.9,51.3z"/>
						<path class="st2" d="M11.1,31.8c-0.8,0-0.8,1.3,0,1.3S11.9,31.8,11.1,31.8z"/>
						<path class="st2" d="M694.5,2.2c-0.8,0-0.8,1.3,0,1.3S695.3,2.2,694.5,2.2z"/>
						<path class="st2" d="M698.2,132c-0.8,0-0.8,1.3,0,1.3S699,132,698.2,132z"/>
						<path class="st2" d="M704.5,152.9c-0.8,0-0.8,1.3,0,1.3C705.2,154.1,705.2,152.9,704.5,152.9z"/>
						<path class="st2" d="M346.1,341c-0.8,0-0.8,1.3,0,1.3C346.9,342.2,346.9,341,346.1,341z"/>
						<path class="st2" d="M377.8,341c-0.8,0-0.8,1.3,0,1.3C378.6,342.2,378.6,341,377.8,341z"/>
						<path class="st2" d="M396.5,297.9c-0.8,0-0.8,1.3,0,1.3C397.2,299.2,397.2,297.9,396.5,297.9z"/>
						<path class="st2" d="M318.8,274.7c-0.8,0-0.8,1.3,0,1.3S319.5,274.7,318.8,274.7z"/>
						<path class="st2" d="M381.6,270c-0.8,0-0.8,1.3,0,1.3S382.3,270,381.6,270z"/>
						<path class="st2" d="M387.8,290.9c-0.8,0-0.8,1.3,0,1.3C388.5,292.1,388.5,290.9,387.8,290.9z"/>
						<path class="st2" d="M147.2,572.5c-0.8,0-0.8,1.3,0,1.3S148,572.5,147.2,572.5z"/>
						<path class="st2" d="M523.7,518.7c-0.8,0-0.8,1.3,0,1.3S524.4,518.7,523.7,518.7z"/>
						<path class="st2" d="M50.5,534.8c-0.8,0-0.8,1.3,0,1.3S51.2,534.8,50.5,534.8z"/>
						<path class="st2" d="M113.8,519c0-0.1-0.1-0.2-0.1-0.2c-0.1-0.1-0.1-0.1-0.2-0.1c-0.1,0-0.1-0.1-0.2,0c-0.1,0-0.1,0-0.2,0
							c-0.1,0-0.2,0.1-0.3,0.2c-0.1,0.1-0.2,0.3-0.2,0.5v0.7c0,0.1,0,0.2,0.1,0.2c0,0.1,0.1,0.2,0.1,0.2c0.1,0.1,0.1,0.1,0.2,0.1
							c0.1,0,0.1,0.1,0.2,0c0.1,0,0.1,0,0.2,0c0.1,0,0.2-0.1,0.3-0.2c0.1-0.1,0.2-0.3,0.2-0.5v-0.7
							C113.8,519.2,113.8,519.1,113.8,519z"/>
						<path class="st2" d="M254.4,503.9c-0.8,0-0.8,1.3,0,1.3C255.2,505.1,255.2,503.9,254.4,503.9z"/>
						<path class="st2" d="M260.6,574.5c-0.8,0-0.8,1.3,0,1.3C261.4,575.8,261.4,574.5,260.6,574.5z"/>
						<path class="st2" d="M317.8,515.3c-0.8,0-0.8,1.3,0,1.3S318.6,515.3,317.8,515.3z"/>
						<path class="st2" d="M465.8,524c-0.8,0-0.8,1.3,0,1.3S466.6,524,465.8,524z"/>
						<path class="st2" d="M644.9,509.2c-0.8,0-0.8,1.3,0,1.3S645.7,509.2,644.9,509.2z"/>
						<path class="st2" d="M673.5,581.9c-0.8,0-0.8,1.3,0,1.3C674.3,583.2,674.3,581.9,673.5,581.9z"/>
						<path class="st2" d="M609.5,564.4c-0.8,0-0.8,1.3,0,1.3S610.2,564.4,609.5,564.4z"/>
						<path class="st2" d="M613.8,582.6c-0.8,0-0.8,1.3,0,1.3S614.6,582.6,613.8,582.6z"/>
						<path class="st2" d="M209,523.4c-0.8,0-0.8,1.3,0,1.3C209.8,524.6,209.8,523.4,209,523.4z"/>
						<path class="st2" d="M80.3,562.4c-1.5,0-1.5,2.5,0,2.5S81.8,562.4,80.3,562.4z"/>
						<path class="st2" d="M155.5,516.7c-1.5,0-1.5,2.5,0,2.5S157,516.7,155.5,516.7z"/>
						<path class="st2" d="M169.2,537.5c-1.5,0-1.5,2.5,0,2.5C170.7,540.1,170.7,537.5,169.2,537.5z"/>
						<path class="st2" d="M180.4,536.9c-1.5,0-1.5,2.5,0,2.5S181.9,536.9,180.4,536.9z"/>
						<path class="st2" d="M371.9,501.9c-1.5,0-1.5,2.5,0,2.5S373.4,501.9,371.9,501.9z"/>
						<path class="st2" d="M436.6,559.1c-1.5,0-1.5,2.5,0,2.5C438.1,561.6,438.1,559.1,436.6,559.1z"/>
						<path class="st2" d="M680.4,534.2c-1.5,0-1.5,2.5,0,2.5S681.9,534.2,680.4,534.2z"/>
						<path class="st2" d="M584.6,573.9c-1.5,0-1.5,2.5,0,2.5C586.1,576.4,586.1,573.9,584.6,573.9z"/>
						<path class="st2" d="M255.6,543c-3,0-3,5,0,5C258.6,548.1,258.7,543,255.6,543z"/>
						<path class="st2" d="M41.1,559.8c-3,0-3,5,0,5C44.1,564.9,44.1,559.8,41.1,559.8z"/>
						<path class="st2" d="M378.8,518.8c-3,0-3,5,0,5C381.8,523.8,381.8,518.8,378.8,518.8z"/>
						<path class="st2" d="M573.4,533.6c-3,0-3,5,0,5C576.4,538.6,576.4,533.6,573.4,533.6z"/>
						<path class="st2" d="M434.7,532.1c-3,0-3,5,0,5C437.7,537.1,437.7,532.1,434.7,532.1z"/>
						<path class="st2" d="M601.4,504c-3,0-3,5,0,5C604.4,509,604.4,504,601.4,504z"/>
						<path class="st2" d="M39.9,500.5c-0.8,0-0.8,1.3,0,1.3S40.6,500.5,39.9,500.5z"/>
						<path class="st2" d="M67.2,517.3c-0.8,0-0.8,1.3,0,1.3S68,517.3,67.2,517.3z"/>
						<path class="st2" d="M516.2,567.8c-0.8,0-0.8,1.3,0,1.3C517,569,517,567.8,516.2,567.8z"/>
						<path class="st2" d="M530.4,528.5c0-0.1-0.1-0.2-0.1-0.2c0-0.1-0.1-0.1-0.2-0.1c-0.1,0-0.1-0.1-0.2,0c0,0-0.1,0-0.2,0
							c-0.1,0-0.2,0.1-0.3,0.2c-0.1,0.1-0.2,0.3-0.2,0.5v0.7c0,0.1,0,0.2,0,0.2c0,0.1,0.1,0.2,0.1,0.2c0,0.1,0.1,0.1,0.2,0.1
							c0.1,0,0.1,0.1,0.2,0c0,0,0.1,0,0.2,0c0.1,0,0.2-0.1,0.3-0.2c0.1-0.1,0.2-0.3,0.2-0.5v-0.7
							C530.5,528.6,530.5,528.5,530.4,528.5z"/>
						<path class="st2" d="M21.2,557.7c-0.8,0-0.8,1.3,0,1.3S22,557.7,21.2,557.7z"/>
						<path class="st2" d="M705.2,581.9c-0.8,0-0.8,1.3,0,1.3C706,583.2,706,581.9,705.2,581.9z"/>
						<path class="st2" d="M723.9,538.8c-0.8,0-0.8,1.3,0,1.3S724.6,538.8,723.9,538.8z"/>
						<path class="st2" d="M709,518.7c-0.8,0-0.8,1.3,0,1.3S709.7,518.7,709,518.7z"/>
						<path class="st2" d="M707.1,504.5c-0.8,0-0.8,1.3,0,1.3C707.8,505.8,707.8,504.5,707.1,504.5z"/>
						<path class="st2" d="M609.5,502.2c-0.8,0-0.8,1.3,0,1.3S610.2,502.2,609.5,502.2z"/>
						<path class="st2" d="M507.5,538.5c-0.8,0-0.8,1.3,0,1.3S508.2,538.5,507.5,538.5z"/>
						<path class="st2" d="M394.3,537.8c-0.8,0-0.8,1.3,0,1.3C395.1,539.1,395.1,537.8,394.3,537.8z"/>
						<path class="st2" d="M263.1,521.7c-0.8,0-0.8,1.3,0,1.3S263.9,521.7,263.1,521.7z"/>
						<path class="st2" d="M177.3,506.2c-0.8,0-0.8,1.3,0,1.3S178.1,506.2,177.3,506.2z"/>
						<path class="st2" d="M47.3,503.5c-0.8,0-0.8,1.3,0,1.3S48.1,503.5,47.3,503.5z"/>
						<path class="st2" d="M646.2,515.6c-0.8,0-0.8,1.3,0,1.3S646.9,515.6,646.2,515.6z"/>
						<path class="st2" d="M558.5,436.7c-3,0-3,5,0,5C561.5,441.8,561.5,436.7,558.5,436.7z"/>
						<path class="st2" d="M74.7,523.2c-3,0-3,5,0,5C77.7,528.2,77.7,523.2,74.7,523.2z"/>
						<path class="st2" d="M167.4,523c-0.8,0-0.8,1.3,0,1.3S168.1,523,167.4,523z"/>
						<path class="st2" d="M633.1,539.9c-0.8,0-0.8,1.3,0,1.3S633.8,539.9,633.1,539.9z"/>
						<path class="st2" d="M565.9,529.1c-0.8,0-0.8,1.3,0,1.3C566.7,530.3,566.7,529.1,565.9,529.1z"/>
						<path class="st2" d="M569.7,508.2c-0.8,0-0.8,1.3,0,1.3S570.4,508.2,569.7,508.2z"/>
						<path class="st2" d="M8.8,501.5c-0.8,0-0.8,1.3,0,1.3C9.5,502.8,9.5,501.5,8.8,501.5z"/>
						<path class="st2" d="M709,510.9c-0.8,0-0.8,1.3,0,1.3S709.7,510.9,709,510.9z"/>
						<path class="st2" d="M715.2,531.8c-0.8,0-0.8,1.3,0,1.3C715.9,533,715.9,531.8,715.2,531.8z"/>
					</g>
				</g>
			</g>
		</g>
	</g>
</g>
<rect x="691" y="0" class="st3" width="8.6" height="504.6"/>
<rect class="st3" width="699.6" height="10.3"/>
</svg>
