<?xml version="1.0" encoding="utf-8"?>
<!-- Generator: Adobe Illustrator 25.0.0, SVG Export Plug-In . SVG Version: 6.00 Build 0)  -->
<svg version="1.1" id="Capa_1" xmlns="http://www.w3.org/2000/svg" xmlns:xlink="http://www.w3.org/1999/xlink" x="0px" y="0px"
	 viewBox="0 0 699.56 504.57" style="enable-background:new 0 0 699.56 504.57;" xml:space="preserve">
<style type="text/css">
	.st0{clip-path:url(#SVGID_2_);}
	.st1{opacity:0.5;}
	.st2{fill:#FFFFFF;}
</style>
<g>
	<g>
		<g>
			<defs>
				<rect id="SVGID_1_" y="0" width="699.56" height="504.57"/>
			</defs>
			<clipPath id="SVGID_2_">
				<use xlink:href="#SVGID_1_"  style="overflow:visible;"/>
			</clipPath>
			<g class="st0">
				<g class="st1">
					<path class="st2" d="M136.52,193.56c-0.75,0-0.75,1.26,0,1.26C137.27,194.82,137.27,193.56,136.52,193.56z"/>
					<path class="st2" d="M425.88,214.41c-0.75,0-0.75,1.26,0,1.26S426.63,214.41,425.88,214.41z"/>
					<path class="st2" d="M512.93,139.74c-0.75,0-0.75,1.26,0,1.26S513.68,139.74,512.93,139.74z"/>
					<path class="st2" d="M681.45,304.56c-0.75,0-0.75,1.26,0,1.26S682.2,304.56,681.45,304.56z"/>
					<path class="st2" d="M657.2,394.71c-0.75,0-0.75,1.26,0,1.26S657.95,394.71,657.2,394.71z"/>
					<path class="st2" d="M680.21,466.02c-0.75,0-0.75,1.26,0,1.26S680.96,466.02,680.21,466.02z"/>
					<path class="st2" d="M582.58,400.77c-0.75,0-0.75,1.26,0,1.26S583.33,400.77,582.58,400.77z"/>
					<path class="st2" d="M598.75,324.07c-0.75,0-0.75,1.26,0,1.26C599.5,325.33,599.5,324.07,598.75,324.07z"/>
					<path class="st2" d="M496.77,360.4c-0.75,0-0.75,1.26,0,1.26S497.52,360.4,496.77,360.4z"/>
					<path class="st2" d="M383.59,359.73c-0.75,0-0.75,1.26,0,1.26C384.34,360.99,384.34,359.73,383.59,359.73z"/>
					<path class="st2" d="M252.39,343.58c-0.75,0-0.75,1.26,0,1.26S253.14,343.58,252.39,343.58z"/>
					<path class="st2" d="M262.96,273.61c-0.75,0-0.75,1.26,0,1.26C263.71,274.88,263.71,273.61,262.96,273.61z"/>
					<path class="st2" d="M174.04,281.01c-0.75,0-0.75,1.26,0,1.26C174.79,282.28,174.79,281.01,174.04,281.01z"/>
					<path class="st2" d="M166.57,328.11c-0.75,0-0.75,1.26,0,1.26S167.32,328.11,166.57,328.11z"/>
					<path class="st2" d="M102.52,369.82c-0.75,0-0.75,1.26,0,1.26C103.27,371.08,103.28,369.82,102.52,369.82z"/>
					<path class="st2" d="M98.17,464.68c-0.75,0-0.75,1.26,0,1.26S98.92,464.68,98.17,464.68z"/>
					<path class="st2" d="M17.96,484.19c-0.75,0-0.75,1.26,0,1.26S18.71,484.19,17.96,484.19z"/>
					<path class="st2" d="M158.49,454.59c-0.75,0-0.75,1.26,0,1.26S159.24,454.59,158.49,454.59z"/>
					<path class="st2" d="M312.08,445.17c-0.75,0-0.75,1.26,0,1.26C312.83,446.43,312.83,445.17,312.08,445.17z"/>
					<path class="st2" d="M341.93,487.55c-0.75,0-0.75,1.26,0,1.26S342.68,487.55,341.93,487.55z"/>
					<path class="st2" d="M389.81,486.21c-0.75,0-0.75,1.26,0,1.26S390.56,486.21,389.81,486.21z"/>
					<path class="st2" d="M442.04,484.86c-0.75,0-0.75,1.26,0,1.26S442.8,484.86,442.04,484.86z"/>
					<path class="st2" d="M528.48,511.1c-0.75,0-0.75,1.26,0,1.26S529.23,511.1,528.48,511.1z"/>
					<path class="st2" d="M499.87,522.53c-0.75,0-0.75,1.26,0,1.26C500.62,523.8,500.63,522.53,499.87,522.53z"/>
					<path class="st2" d="M201.4,530.61c-0.75,0-0.75,1.26,0,1.26S202.15,530.61,201.4,530.61z"/>
					<path class="st2" d="M125.53,515.13c-0.75,0-0.75,1.26,0,1.26C126.28,516.4,126.28,515.13,125.53,515.13z"/>
					<path class="st2" d="M36.61,325.42c-0.75,0-0.75,1.26,0,1.26C37.36,326.68,37.36,325.42,36.61,325.42z"/>
					<path class="st2" d="M39.72,155.88c-0.75,0-0.75,1.26,0,1.26S40.47,155.88,39.72,155.88z"/>
					<path class="st2" d="M103.06,140.12c-0.02-0.08-0.06-0.15-0.12-0.2c-0.05-0.06-0.12-0.1-0.19-0.13
						c-0.07-0.04-0.14-0.06-0.22-0.05c-0.05,0.01-0.1,0.02-0.15,0.02c-0.1,0.03-0.18,0.08-0.26,0.16c-0.1,0.12-0.17,0.28-0.17,0.45
						v0.67c0,0.09,0.01,0.17,0.05,0.24c0.02,0.08,0.06,0.15,0.12,0.2c0.05,0.06,0.12,0.1,0.19,0.13c0.07,0.04,0.14,0.06,0.22,0.05
						c0.05-0.01,0.1-0.02,0.15-0.02c0.1-0.03,0.18-0.08,0.26-0.16c0.1-0.12,0.17-0.28,0.17-0.45v-0.67
						C103.11,140.28,103.09,140.2,103.06,140.12z"/>
					<path class="st2" d="M124.29,225.18c-0.75,0-0.75,1.26,0,1.26C125.04,226.44,125.04,225.18,124.29,225.18z"/>
					<path class="st2" d="M243.68,124.94c-0.75,0-0.75,1.26,0,1.26C244.43,126.2,244.43,124.94,243.68,124.94z"/>
					<path class="st2" d="M249.9,195.57c-0.75,0-0.75,1.26,0,1.26C250.65,196.84,250.65,195.57,249.9,195.57z"/>
					<path class="st2" d="M307.11,136.37c-0.75,0-0.75,1.26,0,1.26C307.86,137.63,307.86,136.37,307.11,136.37z"/>
					<path class="st2" d="M455.1,145.12c-0.75,0-0.75,1.26,0,1.26C455.85,146.38,455.85,145.12,455.1,145.12z"/>
					<path class="st2" d="M537.81,215.08c-0.75,0-0.75,1.26,0,1.26C538.56,216.35,538.56,215.08,537.81,215.08z"/>
					<path class="st2" d="M634.19,130.32c-0.75,0-0.75,1.26,0,1.26S634.94,130.32,634.19,130.32z"/>
					<path class="st2" d="M662.79,202.97c-0.75,0-0.75,1.26,0,1.26C663.54,204.24,663.55,202.97,662.79,202.97z"/>
					<path class="st2" d="M599.37,218.45c-0.75,0-0.75,1.26,0,1.26C600.12,219.71,600.12,218.45,599.37,218.45z"/>
					<path class="st2" d="M598.75,185.48c-0.75,0-0.75,1.26,0,1.26C599.5,186.74,599.5,185.48,598.75,185.48z"/>
					<path class="st2" d="M603.1,203.65c-0.75,0-0.75,1.26,0,1.26C603.85,204.91,603.85,203.65,603.1,203.65z"/>
					<path class="st2" d="M631.7,250.07c-0.75,0-0.75,1.26,0,1.26S632.45,250.07,631.7,250.07z"/>
					<path class="st2" d="M635.43,337.53c-0.75,0-0.75,1.26,0,1.26S636.19,337.53,635.43,337.53z"/>
					<path class="st2" d="M657.2,368.47c-0.75,0-0.75,1.26,0,1.26S657.95,368.47,657.2,368.47z"/>
					<path class="st2" d="M644.76,402.11c-0.75,0-0.75,1.26,0,1.26S645.51,402.11,644.76,402.11z"/>
					<path class="st2" d="M614.91,458.62c-0.75,0-0.75,1.26,0,1.26S615.66,458.62,614.91,458.62z"/>
					<path class="st2" d="M496.14,420.28c-0.75,0-0.75,1.26,0,1.26S496.9,420.28,496.14,420.28z"/>
					<path class="st2" d="M485.57,394.71c-0.75,0-0.75,1.26,0,1.26S486.32,394.71,485.57,394.71z"/>
					<path class="st2" d="M313.95,410.86c-0.75,0-0.75,1.26,0,1.26S314.7,410.86,313.95,410.86z"/>
					<path class="st2" d="M284.1,398.75c-0.75,0-0.75,1.26,0,1.26S284.85,398.75,284.1,398.75z"/>
					<path class="st2" d="M207.61,315.33c-0.75,0-0.75,1.26,0,1.26S208.37,315.33,207.61,315.33z"/>
					<path class="st2" d="M145.43,365.11c-0.75,0-0.75,1.26,0,1.26S146.18,365.11,145.43,365.11z"/>
					<path class="st2" d="M54.02,392.69c-0.75,0-0.75,1.26,0,1.26S54.77,392.69,54.02,392.69z"/>
					<path class="st2" d="M57.13,408.17c-0.75,0-0.75,1.26,0,1.26C57.88,409.43,57.88,408.17,57.13,408.17z"/>
					<path class="st2" d="M43.45,426.33c-0.75,0-0.75,1.26,0,1.26S44.2,426.33,43.45,426.33z"/>
					<path class="st2" d="M84.49,270.92c-0.75,0-0.75,1.26,0,1.26C85.24,272.18,85.24,270.92,84.49,270.92z"/>
					<path class="st2" d="M57.75,242.67c-0.75,0-0.75,1.26,0,1.26S58.5,242.67,57.75,242.67z"/>
					<path class="st2" d="M198.29,144.44c-0.75,0-0.75,1.26,0,1.26C199.04,145.71,199.04,144.44,198.29,144.44z"/>
					<path class="st2" d="M128.64,257.51c-1.5,0-1.5,2.52,0,2.52S130.14,257.51,128.64,257.51z"/>
					<path class="st2" d="M69.57,183.51c-1.5,0-1.5,2.52,0,2.52S71.07,183.51,69.57,183.51z"/>
					<path class="st2" d="M144.81,137.76c-1.5,0-1.5,2.52,0,2.52S146.31,137.76,144.81,137.76z"/>
					<path class="st2" d="M158.49,158.61c-1.5,0-1.5,2.52,0,2.52C159.99,161.14,159.99,158.61,158.49,158.61z"/>
					<path class="st2" d="M169.68,157.94c-1.5,0-1.5,2.52,0,2.52S171.19,157.94,169.68,157.94z"/>
					<path class="st2" d="M361.21,122.96c-1.5,0-1.5,2.52,0,2.52C362.71,125.48,362.71,122.96,361.21,122.96z"/>
					<path class="st2" d="M425.88,180.14c-1.5,0-1.5,2.52,0,2.52C427.38,182.67,427.38,180.14,425.88,180.14z"/>
					<path class="st2" d="M97.55,396.1c-1.5,0-1.5,2.52,0,2.52S99.05,396.1,97.55,396.1z"/>
					<path class="st2" d="M76.41,468.08c-1.5,0-1.5,2.52,0,2.52C77.91,470.61,77.91,468.08,76.41,468.08z"/>
					<path class="st2" d="M644.14,456.65c-1.5,0-1.5,2.52,0,2.52C645.64,459.17,645.64,456.65,644.14,456.65z"/>
					<path class="st2" d="M636.68,429.06c-1.5,0-1.5,2.52,0,2.52C638.18,431.59,638.18,429.06,636.68,429.06z"/>
					<path class="st2" d="M436.45,326.47c-1.5,0-1.5,2.52,0,2.52S437.95,326.47,436.45,326.47z"/>
					<path class="st2" d="M669.63,155.25c-1.5,0-1.5,2.52,0,2.52S671.14,155.25,669.63,155.25z"/>
					<path class="st2" d="M584.44,266.93c-1.5,0-1.5,2.52,0,2.52C585.94,269.45,585.95,266.93,584.44,266.93z"/>
					<path class="st2" d="M555.84,252.8c-1.5,0-1.5,2.52,0,2.52S557.34,252.8,555.84,252.8z"/>
					<path class="st2" d="M573.87,194.94c-1.5,0-1.5,2.52,0,2.52C575.37,197.47,575.38,194.94,573.87,194.94z"/>
					<path class="st2" d="M475.62,209.83c-3,0-3.01,5.05,0,5.05C478.62,214.87,478.63,209.83,475.62,209.83z"/>
					<path class="st2" d="M244.92,164.08c-3,0-3.01,5.05,0,5.05C247.92,169.13,247.93,164.08,244.92,164.08z"/>
					<path class="st2" d="M135.48,286.52c-3,0-3.01,5.05,0,5.05C138.48,291.57,138.49,286.52,135.48,286.52z"/>
					<path class="st2" d="M32.88,363.89c-3,0-3.01,5.05,0,5.05C35.88,368.94,35.89,363.89,32.88,363.89z"/>
					<path class="st2" d="M30.39,180.9c-3,0-3.01,5.05,0,5.05C33.39,185.95,33.4,180.9,30.39,180.9z"/>
					<path class="st2" d="M368.05,139.86c-3,0-3.01,5.05,0,5.05C371.05,144.91,371.05,139.86,368.05,139.86z"/>
					<path class="st2" d="M562.68,154.66c-3,0-3.01,5.05,0,5.05C565.68,159.71,565.69,154.66,562.68,154.66z"/>
					<path class="st2" d="M590.66,125.06c-3,0-3.01,5.05,0,5.05C593.66,130.11,593.67,125.06,590.66,125.06z"/>
					<path class="st2" d="M680.83,267.01c-3,0-3.01,5.05,0,5.05C683.83,272.06,683.83,267.01,680.83,267.01z"/>
					<path class="st2" d="M652.85,296.61c-3,0-3.01,5.05,0,5.05C655.85,301.66,655.85,296.61,652.85,296.61z"/>
					<path class="st2" d="M680.83,394.84c-3,0-3.01,5.05,0,5.05C683.83,399.88,683.83,394.84,680.83,394.84z"/>
					<path class="st2" d="M575.74,356.49c-3,0-3.01,5.05,0,5.05C578.74,361.53,578.74,356.49,575.74,356.49z"/>
					<path class="st2" d="M51.53,311.41c-3,0-3.01,5.05,0,5.05C54.54,316.46,54.54,311.41,51.53,311.41z"/>
					<path class="st2" d="M63.97,345.05c-3,0-3.01,5.05,0,5.05C66.97,350.1,66.98,345.05,63.97,345.05z"/>
					<path class="st2" d="M402.87,216.56c-3,0-3.01,5.05,0,5.05C405.87,221.6,405.87,216.56,402.87,216.56z"/>
					<path class="st2" d="M299.02,404.26c-3,0-3.01,5.05,0,5.05C302.02,409.3,302.03,404.26,299.02,404.26z"/>
					<path class="st2" d="M239.33,441.93c-3,0-3.01,5.05,0,5.05C242.33,446.98,242.33,441.93,239.33,441.93z"/>
					<path class="st2" d="M196.42,505.84c-3,0-3.01,5.05,0,5.05C199.42,510.89,199.43,505.84,196.42,505.84z"/>
					<path class="st2" d="M527.86,532.75c-3,0-3.01,5.05,0,5.05C530.86,537.8,530.86,532.75,527.86,532.75z"/>
					<path class="st2" d="M503.61,481.62c-3,0-3.01,5.05,0,5.05C506.61,486.67,506.61,481.62,503.61,481.62z"/>
					<path class="st2" d="M392.3,431.17c-3,0-3.01,5.05,0,5.05C395.3,436.21,395.3,431.17,392.3,431.17z"/>
					<path class="st2" d="M169.68,435.87c-3,0-3.01,5.05,0,5.05C172.68,440.92,172.69,435.87,169.68,435.87z"/>
					<path class="st2" d="M29.15,121.57c-0.75,0-0.75,1.26,0,1.26S29.9,121.57,29.15,121.57z"/>
					<path class="st2" d="M56.51,138.39c-0.75,0-0.75,1.26,0,1.26S57.26,138.39,56.51,138.39z"/>
					<path class="st2" d="M146.67,116.86c-0.75,0-0.75,1.26,0,1.26S147.43,116.86,146.67,116.86z"/>
					<path class="st2" d="M159.73,246.03c-0.75,0-0.75,1.26,0,1.26S160.48,246.03,159.73,246.03z"/>
					<path class="st2" d="M163.46,236.61c-0.75,0-0.75,1.26,0,1.26S164.22,236.61,163.46,236.61z"/>
					<path class="st2" d="M501.74,228.54c-0.75,0-0.75,1.26,0,1.26C502.49,229.8,502.49,228.54,501.74,228.54z"/>
					<path class="st2" d="M494.28,252.09c-0.75,0-0.75,1.26,0,1.26C495.03,253.35,495.03,252.09,494.28,252.09z"/>
					<path class="st2" d="M519.77,256.8c-0.75,0-0.75,1.26,0,1.26S520.52,256.8,519.77,256.8z"/>
					<path class="st2" d="M505.47,188.85c-0.75,0-0.75,1.26,0,1.26S506.22,188.85,505.47,188.85z"/>
					<path class="st2" d="M519.68,149.54c-0.02-0.08-0.06-0.15-0.12-0.2c-0.05-0.06-0.12-0.1-0.19-0.13
						c-0.07-0.04-0.14-0.06-0.22-0.05c-0.05,0.01-0.1,0.02-0.16,0.02c-0.1,0.03-0.18,0.08-0.26,0.16c-0.1,0.12-0.17,0.28-0.17,0.45
						v0.67c0,0.09,0.01,0.17,0.05,0.24c0.02,0.08,0.06,0.15,0.12,0.2c0.05,0.06,0.12,0.1,0.19,0.13c0.07,0.04,0.14,0.06,0.22,0.05
						c0.05-0.01,0.1-0.02,0.15-0.02c0.1-0.03,0.18-0.08,0.26-0.16c0.1-0.12,0.17-0.28,0.17-0.45v-0.67
						C519.74,149.7,519.72,149.62,519.68,149.54z"/>
					<path class="st2" d="M443.91,237.96c-0.75,0-0.75,1.26,0,1.26S444.66,237.96,443.91,237.96z"/>
					<path class="st2" d="M156.62,344.93c-0.75,0-0.75,1.26,0,1.26S157.38,344.93,156.62,344.93z"/>
					<path class="st2" d="M622.38,361.75c-0.75,0-0.75,1.26,0,1.26S623.13,361.75,622.38,361.75z"/>
					<path class="st2" d="M555.22,350.98c-0.75,0-0.75,1.26,0,1.26C555.97,352.24,555.97,350.98,555.22,350.98z"/>
					<path class="st2" d="M558.95,330.13c-0.75,0-0.75,1.26,0,1.26S559.7,330.13,558.95,330.13z"/>
					<path class="st2" d="M554.6,306.58c-0.75,0-0.75,1.26,0,1.26S555.35,306.58,554.6,306.58z"/>
					<path class="st2" d="M142.94,406.82c-0.75,0-0.75,1.26,0,1.26C143.69,408.08,143.69,406.82,142.94,406.82z"/>
					<path class="st2" d="M181.5,402.78c-0.75,0-0.75,1.26,0,1.26S182.25,402.78,181.5,402.78z"/>
					<path class="st2" d="M186.47,417.58c-0.75,0-0.75,1.26,0,1.26C187.22,418.85,187.22,417.58,186.47,417.58z"/>
					<path class="st2" d="M182.74,420.28c-0.75,0-0.75,1.26,0,1.26S183.49,420.28,182.74,420.28z"/>
					<path class="st2" d="M65.84,494.28c-0.75,0-0.75,1.26,0,1.26S66.59,494.28,65.84,494.28z"/>
					<path class="st2" d="M27.28,513.79c-0.75,0-0.75,1.26,0,1.26S28.03,513.79,27.28,513.79z"/>
					<path class="st2" d="M10.49,449.88c-0.75,0-0.75,1.26,0,1.26S11.24,449.88,10.49,449.88z"/>
					<path class="st2" d="M48.43,386.64c-0.75,0-0.75,1.26,0,1.26C49.18,387.9,49.18,386.64,48.43,386.64z"/>
					<path class="st2" d="M-1.94,323.4c-0.75,0-0.75,1.26,0,1.26S-1.19,323.4-1.94,323.4z"/>
					<path class="st2" d="M14.79,285.51c-0.04-0.15-0.14-0.3-0.27-0.38c-0.14-0.08-0.3-0.12-0.45-0.06
						c-0.14,0.05-0.28,0.14-0.35,0.29c-0.21,0.45-0.41,0.9-0.62,1.35c-0.07,0.15-0.1,0.32-0.06,0.49c0.04,0.15,0.14,0.3,0.27,0.38
						c0.14,0.08,0.3,0.12,0.45,0.06c0.14-0.05,0.28-0.14,0.35-0.29c0.21-0.45,0.41-0.9,0.62-1.35
						C14.8,285.85,14.83,285.68,14.79,285.51z"/>
					<path class="st2" d="M22.93,252.09c-0.75,0-0.75,1.26,0,1.26C23.68,253.35,23.68,252.09,22.93,252.09z"/>
					<path class="st2" d="M11.12,232.58c-0.75,0-0.75,1.26,0,1.26S11.87,232.58,11.12,232.58z"/>
					<path class="st2" d="M10.49,178.76c-0.75,0-0.75,1.26,0,1.26C11.24,180.02,11.24,178.76,10.49,178.76z"/>
					<path class="st2" d="M489.3,118.88c-0.75,0-0.75,1.26,0,1.26S490.05,118.88,489.3,118.88z"/>
					<path class="st2" d="M491.17,110.81c-0.75,0-0.75,1.26,0,1.26S491.92,110.81,491.17,110.81z"/>
					<path class="st2" d="M506.09,119.55c-0.75,0-0.75,1.26,0,1.26C506.84,120.81,506.84,119.55,506.09,119.55z"/>
					<path class="st2" d="M536.56,118.88c-0.75,0-0.75,1.26,0,1.26S537.31,118.88,536.56,118.88z"/>
					<path class="st2" d="M694.51,202.97c-0.75,0-0.75,1.26,0,1.26C695.26,204.24,695.26,202.97,694.51,202.97z"/>
					<path class="st2" d="M713.16,159.92c-0.75,0-0.75,1.26,0,1.26S713.91,159.92,713.16,159.92z"/>
					<path class="st2" d="M698.24,139.74c-0.75,0-0.75,1.26,0,1.26S698.99,139.74,698.24,139.74z"/>
					<path class="st2" d="M696.37,125.61c-0.75,0-0.75,1.26,0,1.26S697.12,125.61,696.37,125.61z"/>
					<path class="st2" d="M698.24,332.82c-0.75,0-0.75,1.26,0,1.26C698.99,334.08,698.99,332.82,698.24,332.82z"/>
					<path class="st2" d="M704.46,353.67c-0.75,0-0.75,1.26,0,1.26C705.21,354.93,705.21,353.67,704.46,353.67z"/>
					<path class="st2" d="M136.52-7.26c-0.75,0-0.75,1.26,0,1.26S137.27-7.26,136.52-7.26z"/>
					<path class="st2" d="M425.88,13.59c-0.75,0-0.75,1.26,0,1.26C426.63,14.86,426.63,13.59,425.88,13.59z"/>
					<path class="st2" d="M681.45,103.74c-0.75,0-0.75,1.26,0,1.26S682.2,103.74,681.45,103.74z"/>
					<path class="st2" d="M598.75,123.25c-0.75,0-0.75,1.26,0,1.26S599.5,123.25,598.75,123.25z"/>
					<path class="st2" d="M496.77,159.58c-0.75,0-0.75,1.26,0,1.26S497.52,159.58,496.77,159.58z"/>
					<path class="st2" d="M383.59,158.91c-0.75,0-0.75,1.26,0,1.26S384.34,158.91,383.59,158.91z"/>
					<path class="st2" d="M252.39,142.76c-0.75,0-0.75,1.26,0,1.26C253.14,144.02,253.14,142.76,252.39,142.76z"/>
					<path class="st2" d="M262.96,72.8c-0.75,0-0.75,1.26,0,1.26C263.71,74.06,263.71,72.8,262.96,72.8z"/>
					<path class="st2" d="M328.25,62.71c-0.75,0-0.75,1.26,0,1.26C329,63.97,329,62.71,328.25,62.71z"/>
					<path class="st2" d="M262.34,8.21c-0.75,0-0.75,1.26,0,1.26S263.09,8.21,262.34,8.21z"/>
					<path class="st2" d="M174.04,80.2c-0.75,0-0.75,1.26,0,1.26S174.79,80.2,174.04,80.2z"/>
					<path class="st2" d="M166.57,127.29c-0.75,0-0.75,1.26,0,1.26S167.32,127.29,166.57,127.29z"/>
					<path class="st2" d="M36.61,124.6c-0.75,0-0.75,1.26,0,1.26S37.36,124.6,36.61,124.6z"/>
					<path class="st2" d="M124.29,24.36c-0.75,0-0.75,1.26,0,1.26S125.04,24.36,124.29,24.36z"/>
					<path class="st2" d="M249.9-5.24c-0.75,0-0.75,1.26,0,1.26C250.65-3.98,250.65-5.24,249.9-5.24z"/>
					<path class="st2" d="M537.81,14.27c-0.75,0-0.75,1.26,0,1.26C538.56,15.53,538.56,14.27,537.81,14.27z"/>
					<path class="st2" d="M662.79,2.16c-0.75,0-0.75,1.26,0,1.26S663.55,2.16,662.79,2.16z"/>
					<path class="st2" d="M599.37,17.63c-0.75,0-0.75,1.26,0,1.26S600.12,17.63,599.37,17.63z"/>
					<path class="st2" d="M598.75-15.33c-0.75,0-0.75,1.26,0,1.26S599.5-15.33,598.75-15.33z"/>
					<path class="st2" d="M603.1,2.83c-0.75,0-0.75,1.26,0,1.26S603.85,2.83,603.1,2.83z"/>
					<path class="st2" d="M631.7,49.25c-0.75,0-0.75,1.26,0,1.26S632.45,49.25,631.7,49.25z"/>
					<path class="st2" d="M635.43,136.71c-0.75,0-0.75,1.26,0,1.26S636.19,136.71,635.43,136.71z"/>
					<path class="st2" d="M207.61,114.51c-0.75,0-0.75,1.26,0,1.26C208.36,115.77,208.37,114.51,207.61,114.51z"/>
					<path class="st2" d="M84.49,70.11c-0.75,0-0.75,1.26,0,1.26S85.24,70.11,84.49,70.11z"/>
					<path class="st2" d="M57.75,41.85c-0.75,0-0.75,1.26,0,1.26C58.5,43.11,58.5,41.85,57.75,41.85z"/>
					<path class="st2" d="M205.13,10.9c-0.75,0-0.75,1.26,0,1.26S205.88,10.9,205.13,10.9z"/>
					<path class="st2" d="M128.64,56.69c-1.5,0-1.5,2.52,0,2.52C130.14,59.22,130.14,56.69,128.64,56.69z"/>
					<path class="st2" d="M69.57-17.31c-1.5,0-1.5,2.52,0,2.52C71.07-14.79,71.07-17.31,69.57-17.31z"/>
					<path class="st2" d="M260.47,37.86c-1.5,0-1.5,2.52,0,2.52S261.97,37.86,260.47,37.86z"/>
					<path class="st2" d="M228.13,68.8c-1.5,0-1.5,2.52,0,2.52S229.64,68.8,228.13,68.8z"/>
					<path class="st2" d="M193.31,96.38c-1.5,0-1.5,2.52,0,2.52C194.81,98.91,194.81,96.38,193.31,96.38z"/>
					<path class="st2" d="M584.44,66.11c-1.5,0-1.5,2.52,0,2.52S585.95,66.11,584.44,66.11z"/>
					<path class="st2" d="M555.84,51.98c-1.5,0-1.5,2.52,0,2.52C557.34,54.51,557.34,51.98,555.84,51.98z"/>
					<path class="st2" d="M573.87-5.87c-1.5,0-1.5,2.52,0,2.52S575.38-5.87,573.87-5.87z"/>
					<path class="st2" d="M475.62,9.01c-3,0-3.01,5.05,0,5.05C478.62,14.06,478.63,9.01,475.62,9.01z"/>
					<path class="st2" d="M135.48,85.7c-3,0-3.01,5.05,0,5.05C138.48,90.75,138.49,85.7,135.48,85.7z"/>
					<path class="st2" d="M30.39-19.92c-3,0-3.01,5.05,0,5.05C33.39-14.87,33.4-19.92,30.39-19.92z"/>
					<path class="st2" d="M680.83,66.2c-3,0-3.01,5.05,0,5.05C683.83,71.24,683.83,66.2,680.83,66.2z"/>
					<path class="st2" d="M652.85,95.8c-3,0-3.01,5.05,0,5.05C655.85,100.84,655.85,95.8,652.85,95.8z"/>
					<path class="st2" d="M575.74,155.67c-3,0-3.01,5.05,0,5.05C578.74,160.72,578.74,155.67,575.74,155.67z"/>
					<path class="st2" d="M249.28,113.96c-3,0-3.01,5.05,0,5.05C252.28,119.01,252.28,113.96,249.28,113.96z"/>
					<path class="st2" d="M205.13,59.47c-3,0-3.01,5.05,0,5.05C208.13,64.51,208.13,59.47,205.13,59.47z"/>
					<path class="st2" d="M51.53,110.6c-3,0-3.01,5.05,0,5.05C54.54,115.64,54.54,110.6,51.53,110.6z"/>
					<path class="st2" d="M63.97,144.23c-3,0-3.01,5.05,0,5.05C66.97,149.28,66.98,144.23,63.97,144.23z"/>
					<path class="st2" d="M406.6,33.9c-3,0-3.01,5.05,0,5.05C409.6,38.95,409.61,33.9,406.6,33.9z"/>
					<path class="st2" d="M354.13,68.21c-3,0-3.01,5.05,0,5.05C357.13,73.26,357.14,68.21,354.13,68.21z"/>
					<path class="st2" d="M159.73,45.21c-0.75,0-0.75,1.26,0,1.26C160.48,46.47,160.48,45.21,159.73,45.21z"/>
					<path class="st2" d="M501.74,27.72c-0.75,0-0.75,1.26,0,1.26S502.49,27.72,501.74,27.72z"/>
					<path class="st2" d="M494.28,51.27c-0.75,0-0.75,1.26,0,1.26S495.03,51.27,494.28,51.27z"/>
					<path class="st2" d="M519.77,55.98c-0.75,0-0.75,1.26,0,1.26C520.52,57.24,520.52,55.98,519.77,55.98z"/>
					<path class="st2" d="M505.47-11.97c-0.75,0-0.75,1.26,0,1.26S506.22-11.97,505.47-11.97z"/>
					<path class="st2" d="M443.91,37.14c-0.75,0-0.75,1.26,0,1.26C444.66,38.4,444.66,37.14,443.91,37.14z"/>
					<path class="st2" d="M156.62,144.11c-0.75,0-0.75,1.26,0,1.26S157.38,144.11,156.62,144.11z"/>
					<path class="st2" d="M622.38,160.93c-0.75,0-0.75,1.26,0,1.26C623.13,162.19,623.13,160.93,622.38,160.93z"/>
					<path class="st2" d="M555.22,150.16c-0.75,0-0.75,1.26,0,1.26S555.97,150.16,555.22,150.16z"/>
					<path class="st2" d="M558.95,129.31c-0.75,0-0.75,1.26,0,1.26C559.7,130.57,559.7,129.31,558.95,129.31z"/>
					<path class="st2" d="M554.6,105.76c-0.75,0-0.75,1.26,0,1.26C555.35,107.02,555.35,105.76,554.6,105.76z"/>
					<path class="st2" d="M-1.94,122.58c-0.75,0-0.75,1.26,0,1.26C-1.19,123.84-1.19,122.58-1.94,122.58z"/>
					<path class="st2" d="M14.79,84.7c-0.04-0.15-0.14-0.3-0.27-0.38c-0.14-0.08-0.3-0.12-0.45-0.06c-0.14,0.05-0.28,0.14-0.35,0.29
						c-0.21,0.45-0.41,0.9-0.62,1.35c-0.07,0.15-0.1,0.32-0.06,0.49c0.04,0.15,0.14,0.3,0.27,0.38c0.14,0.08,0.3,0.12,0.45,0.06
						c0.14-0.05,0.28-0.14,0.35-0.29c0.21-0.45,0.41-0.9,0.62-1.35C14.8,85.03,14.83,84.86,14.79,84.7z"/>
					<path class="st2" d="M22.93,51.27c-0.75,0-0.75,1.26,0,1.26S23.68,51.27,22.93,51.27z"/>
					<path class="st2" d="M11.12,31.76c-0.75,0-0.75,1.26,0,1.26S11.87,31.76,11.12,31.76z"/>
					<path class="st2" d="M694.51,2.16c-0.75,0-0.75,1.26,0,1.26S695.26,2.16,694.51,2.16z"/>
					<path class="st2" d="M698.24,132c-0.75,0-0.75,1.26,0,1.26S698.99,132,698.24,132z"/>
					<path class="st2" d="M704.46,152.85c-0.75,0-0.75,1.26,0,1.26C705.21,154.12,705.21,152.85,704.46,152.85z"/>
					<path class="st2" d="M346.13,340.97c-0.75,0-0.75,1.26,0,1.26C346.88,342.24,346.88,340.97,346.13,340.97z"/>
					<path class="st2" d="M377.84,340.97c-0.75,0-0.75,1.26,0,1.26C378.59,342.24,378.59,340.97,377.84,340.97z"/>
					<path class="st2" d="M396.5,297.92c-0.75,0-0.75,1.26,0,1.26C397.25,299.18,397.25,297.92,396.5,297.92z"/>
					<path class="st2" d="M318.77,274.71c-0.75,0-0.75,1.26,0,1.26S319.52,274.71,318.77,274.71z"/>
					<path class="st2" d="M381.57,270c-0.75,0-0.75,1.26,0,1.26S382.32,270,381.57,270z"/>
					<path class="st2" d="M387.79,290.85c-0.75,0-0.75,1.26,0,1.26C388.54,292.11,388.54,290.85,387.79,290.85z"/>
					<path class="st2" d="M147.24,572.49c-0.75,0-0.75,1.26,0,1.26S148,572.49,147.24,572.49z"/>
					<path class="st2" d="M523.66,518.67c-0.75,0-0.75,1.26,0,1.26S524.41,518.67,523.66,518.67z"/>
					<path class="st2" d="M50.45,534.81c-0.75,0-0.75,1.26,0,1.26S51.2,534.81,50.45,534.81z"/>
					<path class="st2" d="M113.78,519.05c-0.02-0.08-0.06-0.15-0.12-0.2c-0.05-0.06-0.12-0.1-0.19-0.13
						c-0.07-0.04-0.14-0.06-0.22-0.05c-0.05,0.01-0.1,0.02-0.15,0.02c-0.1,0.03-0.18,0.08-0.26,0.16c-0.1,0.12-0.17,0.28-0.17,0.45
						v0.67c0,0.09,0.01,0.17,0.05,0.24c0.02,0.08,0.06,0.15,0.12,0.2c0.05,0.06,0.12,0.1,0.19,0.13c0.07,0.04,0.14,0.06,0.22,0.05
						c0.05-0.01,0.1-0.02,0.15-0.02c0.1-0.03,0.18-0.08,0.26-0.16c0.1-0.12,0.17-0.28,0.17-0.45v-0.67
						C113.84,519.21,113.82,519.13,113.78,519.05z"/>
					<path class="st2" d="M254.41,503.86c-0.75,0-0.75,1.26,0,1.26C255.16,505.13,255.16,503.86,254.41,503.86z"/>
					<path class="st2" d="M260.63,574.5c-0.75,0-0.75,1.26,0,1.26C261.38,575.77,261.38,574.5,260.63,574.5z"/>
					<path class="st2" d="M317.83,515.3c-0.75,0-0.75,1.26,0,1.26S318.58,515.3,317.83,515.3z"/>
					<path class="st2" d="M465.83,524.05c-0.75,0-0.75,1.26,0,1.26S466.58,524.05,465.83,524.05z"/>
					<path class="st2" d="M644.92,509.25c-0.75,0-0.75,1.26,0,1.26S645.67,509.25,644.92,509.25z"/>
					<path class="st2" d="M673.52,581.9c-0.75,0-0.75,1.26,0,1.26C674.27,583.17,674.27,581.9,673.52,581.9z"/>
					<path class="st2" d="M609.47,564.41c-0.75,0-0.75,1.26,0,1.26S610.22,564.41,609.47,564.41z"/>
					<path class="st2" d="M613.83,582.58c-0.75,0-0.75,1.26,0,1.26S614.58,582.58,613.83,582.58z"/>
					<path class="st2" d="M209.01,523.37c-0.75,0-0.75,1.26,0,1.26C209.76,524.64,209.76,523.37,209.01,523.37z"/>
					<path class="st2" d="M80.29,562.44c-1.5,0-1.5,2.52,0,2.52S81.8,562.44,80.29,562.44z"/>
					<path class="st2" d="M155.54,516.69c-1.5,0-1.5,2.52,0,2.52S157.04,516.69,155.54,516.69z"/>
					<path class="st2" d="M169.22,537.54c-1.5,0-1.5,2.52,0,2.52C170.72,540.07,170.72,537.54,169.22,537.54z"/>
					<path class="st2" d="M180.41,536.87c-1.5,0-1.5,2.52,0,2.52S181.91,536.87,180.41,536.87z"/>
					<path class="st2" d="M371.93,501.89c-1.5,0-1.5,2.52,0,2.52S373.44,501.89,371.93,501.89z"/>
					<path class="st2" d="M436.6,559.07c-1.5,0-1.5,2.52,0,2.52C438.1,561.6,438.11,559.07,436.6,559.07z"/>
					<path class="st2" d="M680.36,534.18c-1.5,0-1.5,2.52,0,2.52S681.86,534.18,680.36,534.18z"/>
					<path class="st2" d="M584.6,573.87c-1.5,0-1.5,2.52,0,2.52C586.1,576.4,586.1,573.87,584.6,573.87z"/>
					<path class="st2" d="M255.65,543.01c-3,0-3.01,5.05,0,5.05C258.65,548.06,258.66,543.01,255.65,543.01z"/>
					<path class="st2" d="M41.12,559.83c-3,0-3.01,5.05,0,5.05C44.12,564.88,44.12,559.83,41.12,559.83z"/>
					<path class="st2" d="M378.77,518.79c-3,0-3.01,5.05,0,5.05C381.77,523.84,381.78,518.79,378.77,518.79z"/>
					<path class="st2" d="M573.41,533.59c-3,0-3.01,5.05,0,5.05C576.41,538.64,576.41,533.59,573.41,533.59z"/>
					<path class="st2" d="M434.66,532.08c-3,0-3.01,5.05,0,5.05C437.66,537.12,437.67,532.08,434.66,532.08z"/>
					<path class="st2" d="M601.39,503.99c-3,0-3.01,5.05,0,5.05C604.39,509.04,604.39,503.99,601.39,503.99z"/>
					<path class="st2" d="M39.88,500.5c-0.75,0-0.75,1.26,0,1.26S40.63,500.5,39.88,500.5z"/>
					<path class="st2" d="M67.24,517.32c-0.75,0-0.75,1.26,0,1.26S67.99,517.32,67.24,517.32z"/>
					<path class="st2" d="M516.2,567.78c-0.75,0-0.75,1.26,0,1.26C516.95,569.04,516.95,567.78,516.2,567.78z"/>
					<path class="st2" d="M530.41,528.47c-0.02-0.08-0.06-0.15-0.12-0.2c-0.05-0.06-0.12-0.1-0.19-0.13
						c-0.07-0.04-0.14-0.06-0.22-0.05c-0.05,0.01-0.1,0.02-0.16,0.02c-0.1,0.03-0.18,0.08-0.26,0.16c-0.1,0.12-0.17,0.28-0.17,0.45
						v0.67c0,0.09,0.01,0.17,0.05,0.24c0.02,0.08,0.06,0.15,0.12,0.2c0.05,0.06,0.12,0.1,0.19,0.13c0.07,0.04,0.14,0.06,0.22,0.05
						c0.05-0.01,0.1-0.02,0.15-0.02c0.1-0.03,0.18-0.08,0.26-0.16c0.1-0.12,0.17-0.28,0.17-0.45v-0.67
						C530.46,528.63,530.45,528.55,530.41,528.47z"/>
					<path class="st2" d="M21.22,557.69c-0.75,0-0.75,1.26,0,1.26S21.97,557.69,21.22,557.69z"/>
					<path class="st2" d="M705.23,581.9c-0.75,0-0.75,1.26,0,1.26C705.98,583.17,705.99,581.9,705.23,581.9z"/>
					<path class="st2" d="M723.89,538.85c-0.75,0-0.75,1.26,0,1.26S724.64,538.85,723.89,538.85z"/>
					<path class="st2" d="M708.97,518.67c-0.75,0-0.75,1.26,0,1.26S709.72,518.67,708.97,518.67z"/>
					<path class="st2" d="M707.1,504.54c-0.75,0-0.75,1.26,0,1.26C707.85,505.8,707.85,504.54,707.1,504.54z"/>
					<path class="st2" d="M609.47,502.18c-0.75,0-0.75,1.26,0,1.26S610.22,502.18,609.47,502.18z"/>
					<path class="st2" d="M507.49,538.51c-0.75,0-0.75,1.26,0,1.26S508.24,538.51,507.49,538.51z"/>
					<path class="st2" d="M394.32,537.84c-0.75,0-0.75,1.26,0,1.26C395.07,539.1,395.07,537.84,394.32,537.84z"/>
					<path class="st2" d="M263.11,521.69c-0.75,0-0.75,1.26,0,1.26S263.86,521.69,263.11,521.69z"/>
					<path class="st2" d="M177.3,506.22c-0.75,0-0.75,1.26,0,1.26S178.05,506.22,177.3,506.22z"/>
					<path class="st2" d="M47.34,503.53c-0.75,0-0.75,1.26,0,1.26S48.09,503.53,47.34,503.53z"/>
					<path class="st2" d="M646.16,515.64c-0.75,0-0.75,1.26,0,1.26S646.91,515.64,646.16,515.64z"/>
					<path class="st2" d="M558.48,436.72c-3,0-3.01,5.05,0,5.05C561.48,441.76,561.49,436.72,558.48,436.72z"/>
					<path class="st2" d="M74.7,523.16c-3,0-3.01,5.05,0,5.05C77.7,528.21,77.7,523.16,74.7,523.16z"/>
					<path class="st2" d="M167.35,523.04c-0.75,0-0.75,1.26,0,1.26S168.1,523.04,167.35,523.04z"/>
					<path class="st2" d="M633.1,539.86c-0.75,0-0.75,1.26,0,1.26S633.85,539.86,633.1,539.86z"/>
					<path class="st2" d="M565.94,529.09c-0.75,0-0.75,1.26,0,1.26C566.69,530.35,566.7,529.09,565.94,529.09z"/>
					<path class="st2" d="M569.68,508.24c-0.75,0-0.75,1.26,0,1.26S570.43,508.24,569.68,508.24z"/>
					<path class="st2" d="M8.78,501.51c-0.75,0-0.75,1.26,0,1.26C9.53,502.77,9.53,501.51,8.78,501.51z"/>
					<path class="st2" d="M708.97,510.93c-0.75,0-0.75,1.26,0,1.26S709.72,510.93,708.97,510.93z"/>
					<path class="st2" d="M715.18,531.78c-0.75,0-0.75,1.26,0,1.26C715.93,533.05,715.94,531.78,715.18,531.78z"/>
				</g>
			</g>
		</g>
	</g>
</g>
</svg>
