<?xml version="1.0" encoding="utf-8"?>
<!-- Generator: Adobe Illustrator 25.0.0, SVG Export Plug-In . SVG Version: 6.00 Build 0)  -->
<svg version="1.1" id="Capa_1" xmlns="http://www.w3.org/2000/svg" xmlns:xlink="http://www.w3.org/1999/xlink" x="0px" y="0px"
	 viewBox="0 0 699.56 504.57" style="enable-background:new 0 0 699.56 504.57;" xml:space="preserve">
<style type="text/css">
	.st0{clip-path:url(#SVGID_2_);}
	.st1{opacity:0.1;}
	.st2{opacity:0.6;fill:#FFFFFF;enable-background:new    ;}
	.st3{fill:#FFFFFF;}
</style>
<g>
	<g>
		<g>
			<defs>
				<rect id="SVGID_1_" y="0" width="699.56" height="504.57"/>
			</defs>
			<clipPath id="SVGID_2_">
				<use xlink:href="#SVGID_1_"  style="overflow:visible;"/>
			</clipPath>
			<g class="st0">
				<g class="st1">
					<path class="st2" d="M848.44,141.82c-41.38,15.16-90.91-5.41-128.53,18.6c-19.48,12.43-25.75,34.14-41.34,49.81
						c-12.38,12.44-32.2,23.13-49.22,21.9c-24.95-1.81-43.17-25.85-63-42.33c-30.55-25.39-74.04-22.68-110.59-9.53
						s-70.09,35.3-107.27,46.18s-81.69,7.83-107.8-22.8c-8.57-10.06-14.93-22.78-25.76-29.83c-14.34-9.33-33.12-6.18-48,2.11
						c-14.87,8.29-27.15,21.04-40.71,31.63C56.85,261.74-41,256.5-110.61,310.3c4.07,46.85,7.2,91.11,11.28,137.96
						C-64.37,374.99-8.3,317.11,61.42,283.78c37.73-18.04,80.89-30.42,105.99-65.83c9.42-13.29,18.81-31.14,34.28-30.61
						c15.59,0.53,23.95,19.32,30.7,34.53c28.07,63.22,87.87,108.6,152.37,115.63c34.91,3.81,75.18-6.31,92.58-39.27
						c7.18-13.61,9.57-29.45,12.95-44.7c3.38-15.24,8.29-30.94,18.99-41.5c10.71-10.56,28.75-13.85,39.49-3.32
						c25.67,25.16,42.17,53.69,68.52,78.01c22.63,20.9,53.77,30.6,83.21,25.93c29.22-4.64,55.24-22.3,83.74-30.68
						c40.43-11.88,84.11-4.33,122.83,12.96L848.44,141.82z"/>
					<path class="st3" d="M680.51,6.94c-50.67,22.73-97.15,56.88-151,70.85c-35.02,9.08-73.37,8.73-105.48-8.91
						c-21.69-11.92-40.03-31.32-63.44-38.5c-20.64-6.33-42.95-2.27-63.02,5.91s-38.52,20.32-57.66,30.81
						c-31.92,17.49-66.68,30.6-102.45,31.02c-13.57,0.16-27.54-1.64-39.5-8.57c-11.97-6.93-21.64-19.76-22.58-34.41
						C73.15,20.55,127.09,4.33,150.87-1.6c36.31-9.07,75.12-6.83,110.08,7.29c1.99,0.8,4.32,2.18,4.27,4.47
						c-0.03,1.56-1.2,2.78-2.29,3.79c-19.03,17.53-43.36,28.21-68.3,30.01c-7.71,0.55-15.78,0.2-22.66-3.6s-12.26-11.82-11.32-20.12
						c-10.09,0.08-19.95,6.7-24.35,16.52c-4.4,9.83-3.05,22.39,3.43,30.77c4.56,5.9,11.28,9.56,18.24,11.08
						c17.02,3.71,34.1-4.59,49.77-12.67c28.16-14.53,56.31-29.06,84.47-43.6c1.75-0.9,3.59-1.89,4.6-3.68
						c2.63-4.64-2-10.11-6.31-12.93c-14.14-9.27-30.25-14.49-46.46-18.01c-65.96-14.29-142.24-2.23-197.2,41.5
						C28.96,43.45,13.24,61.2,2.49,82.21c-6.48,12.67-10.46,30.21-0.86,40.3c3.65,3.84,8.64,5.76,13.47,7.5
						c34.35,12.34,70.27,21.16,106.45,19.93c29.6-1,59.53-9.08,84.81-26.14c19.48-13.15,34.38-33.57,51.54-49.82
						c26.92-25.49,60.29-38.67,95.81-29.46c36.2,9.39,67.24,35.2,95.51,60.21c20.33,17.99,41.89,35.36,66.9,44.06
						c38.36,13.35,82.84,3.65,113.43-24.73c14.54-13.49,25.81-30.54,37.77-46.72s25.13-32,42.05-41.73s38.36-12.45,55.04-2.27
						L812.12-7.3C769.36-22.68,722.13-11.73,680.51,6.94z"/>
					<path class="st3" d="M457.09,429.81c-52.04-14.39-103.84-37.28-157.38-32.62c-36.02,3.13-74.48,18.26-106.59,0.32
						c-35.45-19.81-46.87-71.99-81.93-92.6c-25.51-15-57.92-9.08-83.16,6.43c-25.24,15.51-45.04,39.32-65.27,61.86
						c-20.22,22.53-42.13,44.75-69.37,55.6c12.05,15.03,15.45,29.69,27.5,44.72c26.45-47.29,51.5-93.11,89-130.64
						C24,328.75,39.82,314.91,58.8,311.62c29.53-5.12,57.71,17.04,75.07,43.38s27.7,57.48,45.02,83.86s45.39,48.64,74.94,43.71
						c33.89-5.65,55.03-43.4,86.51-58.12c28.49-13.32,61.98-5.9,89.77,9.03s51.88,36.75,78.44,54.11
						c55.71,36.43,122.57,52.52,187.31,45.06c64.73-7.46,126.96-38.42,174.33-86.74l6.18-83.39
						C752.28,443.86,597.65,468.67,457.09,429.81z"/>
				</g>
			</g>
		</g>
	</g>
</g>
</svg>
